ISO-10303-21;
HEADER;
FILE_DESCRIPTION(('Open CASCADE Model'),'2;1');
FILE_NAME('Open CASCADE Shape Model','2026-09-05T22:49:17',('Author'),(
    'Open CASCADE'),'Open CASCADE STEP processor 7.9','Open CASCADE 7.9'
  ,'Unknown');
FILE_SCHEMA(('AUTOMOTIVE_DESIGN { 1 0 10303 214 1 1 1 1 }'));
ENDSEC;
DATA;
#1 = APPLICATION_PROTOCOL_DEFINITION('international standard',
  'automotive_design',2000,#2);
#2 = APPLICATION_CONTEXT(
  'core data for automotive mechanical design processes');
#3 = SHAPE_DEFINITION_REPRESENTATION(#4,#10);
#4 = PRODUCT_DEFINITION_SHAPE('','',#5);
#5 = PRODUCT_DEFINITION('design','',#6,#9);
#6 = PRODUCT_DEFINITION_FORMATION('','',#7);
#7 = PRODUCT('Open CASCADE STEP translator 7.9 1',
  'Open CASCADE STEP translator 7.9 1','',(#8));
#8 = PRODUCT_CONTEXT('',#2,'mechanical');
#9 = PRODUCT_DEFINITION_CONTEXT('part definition',#2,'design');
#10 = ADVANCED_BREP_SHAPE_REPRESENTATION('',(#11,#15),#972);
#11 = AXIS2_PLACEMENT_3D('',#12,#13,#14);
#12 = CARTESIAN_POINT('',(0.,0.,0.));
#13 = DIRECTION('',(0.,0.,1.));
#14 = DIRECTION('',(1.,0.,-0.));
#15 = MANIFOLD_SOLID_BREP('',#16);
#16 = CLOSED_SHELL('',(#17,#338,#548,#604,#660,#714,#768,#807,#846,#850,
    #854,#909,#964,#968));
#17 = ADVANCED_FACE('',(#18),#32,.T.);
#18 = FACE_BOUND('',#19,.F.);
#19 = EDGE_LOOP('',(#20,#50,#77,#78,#107,#195,#219,#316));
#20 = ORIENTED_EDGE('',*,*,#21,.T.);
#21 = EDGE_CURVE('',#22,#24,#26,.T.);
#22 = VERTEX_POINT('',#23);
#23 = CARTESIAN_POINT('',(5.75,0.,9.5));
#24 = VERTEX_POINT('',#25);
#25 = CARTESIAN_POINT('',(5.75,-1.6,9.5));
#26 = SEAM_CURVE('',#27,(#31,#43),.PCURVE_S1.);
#27 = LINE('',#28,#29);
#28 = CARTESIAN_POINT('',(5.75,0.,9.5));
#29 = VECTOR('',#30,1.);
#30 = DIRECTION('',(0.,-1.,0.));
#31 = PCURVE('',#32,#37);
#32 = CYLINDRICAL_SURFACE('',#33,5.75);
#33 = AXIS2_PLACEMENT_3D('',#34,#35,#36);
#34 = CARTESIAN_POINT('',(0.,0.,9.5));
#35 = DIRECTION('',(-0.,1.,-0.));
#36 = DIRECTION('',(1.,0.,0.));
#37 = DEFINITIONAL_REPRESENTATION('',(#38),#42);
#38 = LINE('',#39,#40);
#39 = CARTESIAN_POINT('',(-0.,0.));
#40 = VECTOR('',#41,1.);
#41 = DIRECTION('',(-0.,-1.));
#42 = ( GEOMETRIC_REPRESENTATION_CONTEXT(2) 
PARAMETRIC_REPRESENTATION_CONTEXT() REPRESENTATION_CONTEXT('2D SPACE',''
  ) );
#43 = PCURVE('',#32,#44);
#44 = DEFINITIONAL_REPRESENTATION('',(#45),#49);
#45 = LINE('',#46,#47);
#46 = CARTESIAN_POINT('',(-6.28318530718,0.));
#47 = VECTOR('',#48,1.);
#48 = DIRECTION('',(-0.,-1.));
#49 = ( GEOMETRIC_REPRESENTATION_CONTEXT(2) 
PARAMETRIC_REPRESENTATION_CONTEXT() REPRESENTATION_CONTEXT('2D SPACE',''
  ) );
#50 = ORIENTED_EDGE('',*,*,#51,.T.);
#51 = EDGE_CURVE('',#24,#24,#52,.T.);
#52 = SURFACE_CURVE('',#53,(#58,#65),.PCURVE_S1.);
#53 = CIRCLE('',#54,5.75);
#54 = AXIS2_PLACEMENT_3D('',#55,#56,#57);
#55 = CARTESIAN_POINT('',(0.,-1.6,9.5));
#56 = DIRECTION('',(0.,-1.,-0.));
#57 = DIRECTION('',(1.,0.,0.));
#58 = PCURVE('',#32,#59);
#59 = DEFINITIONAL_REPRESENTATION('',(#60),#64);
#60 = LINE('',#61,#62);
#61 = CARTESIAN_POINT('',(-0.,-1.6));
#62 = VECTOR('',#63,1.);
#63 = DIRECTION('',(-1.,0.));
#64 = ( GEOMETRIC_REPRESENTATION_CONTEXT(2) 
PARAMETRIC_REPRESENTATION_CONTEXT() REPRESENTATION_CONTEXT('2D SPACE',''
  ) );
#65 = PCURVE('',#66,#71);
#66 = TOROIDAL_SURFACE('',#67,4.95,0.8);
#67 = AXIS2_PLACEMENT_3D('',#68,#69,#70);
#68 = CARTESIAN_POINT('',(0.,-1.6,9.5));
#69 = DIRECTION('',(0.,-1.,-0.));
#70 = DIRECTION('',(1.,0.,0.));
#71 = DEFINITIONAL_REPRESENTATION('',(#72),#76);
#72 = LINE('',#73,#74);
#73 = CARTESIAN_POINT('',(0.,0.));
#74 = VECTOR('',#75,1.);
#75 = DIRECTION('',(1.,0.));
#76 = ( GEOMETRIC_REPRESENTATION_CONTEXT(2) 
PARAMETRIC_REPRESENTATION_CONTEXT() REPRESENTATION_CONTEXT('2D SPACE',''
  ) );
#77 = ORIENTED_EDGE('',*,*,#21,.F.);
#78 = ORIENTED_EDGE('',*,*,#79,.F.);
#79 = EDGE_CURVE('',#80,#22,#82,.T.);
#80 = VERTEX_POINT('',#81);
#81 = CARTESIAN_POINT('',(3.6,0.,5.016418842041));
#82 = SURFACE_CURVE('',#83,(#88,#95),.PCURVE_S1.);
#83 = CIRCLE('',#84,5.75);
#84 = AXIS2_PLACEMENT_3D('',#85,#86,#87);
#85 = CARTESIAN_POINT('',(0.,0.,9.5));
#86 = DIRECTION('',(0.,-1.,0.));
#87 = DIRECTION('',(1.,0.,0.));
#88 = PCURVE('',#32,#89);
#89 = DEFINITIONAL_REPRESENTATION('',(#90),#94);
#90 = LINE('',#91,#92);
#91 = CARTESIAN_POINT('',(-0.,0.));
#92 = VECTOR('',#93,1.);
#93 = DIRECTION('',(-1.,0.));
#94 = ( GEOMETRIC_REPRESENTATION_CONTEXT(2) 
PARAMETRIC_REPRESENTATION_CONTEXT() REPRESENTATION_CONTEXT('2D SPACE',''
  ) );
#95 = PCURVE('',#96,#101);
#96 = CYLINDRICAL_SURFACE('',#97,5.75);
#97 = AXIS2_PLACEMENT_3D('',#98,#99,#100);
#98 = CARTESIAN_POINT('',(0.,0.,9.5));
#99 = DIRECTION('',(0.,-1.,0.));
#100 = DIRECTION('',(1.,0.,0.));
#101 = DEFINITIONAL_REPRESENTATION('',(#102),#106);
#102 = LINE('',#103,#104);
#103 = CARTESIAN_POINT('',(0.,0.));
#104 = VECTOR('',#105,1.);
#105 = DIRECTION('',(1.,0.));
#106 = ( GEOMETRIC_REPRESENTATION_CONTEXT(2) 
PARAMETRIC_REPRESENTATION_CONTEXT() REPRESENTATION_CONTEXT('2D SPACE',''
  ) );
#107 = ORIENTED_EDGE('',*,*,#108,.F.);
#108 = EDGE_CURVE('',#109,#80,#111,.T.);
#109 = VERTEX_POINT('',#110);
#110 = CARTESIAN_POINT('',(1.4,0.,3.923038461671));
#111 = SURFACE_CURVE('',#112,(#136,#163),.PCURVE_S1.);
#112 = B_SPLINE_CURVE_WITH_KNOTS('',8,(#113,#114,#115,#116,#117,#118,
    #119,#120,#121,#122,#123,#124,#125,#126,#127,#128,#129,#130,#131,
    #132,#133,#134,#135),.UNSPECIFIED.,.F.,.F.,(9,7,7,9),(0.,
    0.417304303966,0.688000172247,1.),.UNSPECIFIED.);
#113 = CARTESIAN_POINT('',(1.4,6.000000003503E-07,3.923038461671));
#114 = CARTESIAN_POINT('',(1.399999908028,-0.168614857865,3.923038438583
    ));
#115 = CARTESIAN_POINT('',(1.429538833157,-0.341696438872,3.930453117969
    ));
#116 = CARTESIAN_POINT('',(1.491354446363,-0.51194780931,3.945974233378)
  );
#117 = CARTESIAN_POINT('',(1.585570943723,-0.6716136673,3.970546414591)
  );
#118 = CARTESIAN_POINT('',(1.710235495265,-0.813335615203,4.006023297369
    ));
#119 = CARTESIAN_POINT('',(1.861892994074,-0.930360476433,4.054644276754
    ));
#120 = CARTESIAN_POINT('',(2.035967606121,-1.016536190014,4.118548996478
    ));
#121 = CARTESIAN_POINT('',(2.349996989345,-1.097165231499,4.250431187328
    ));
#122 = CARTESIAN_POINT('',(2.475915258476,-1.112040629595,4.307184295661
    ));
#123 = CARTESIAN_POINT('',(2.601558160323,-1.110301854553,4.368103333481
    ));
#124 = CARTESIAN_POINT('',(2.724434245748,-1.092610116523,4.432147645714
    ));
#125 = CARTESIAN_POINT('',(2.842240525661,-1.060041055967,4.497896898554
    ));
#126 = CARTESIAN_POINT('',(2.952926351864,-1.014076032601,4.563599696094
    ));
#127 = CARTESIAN_POINT('',(3.054783107957,-0.9566012535,4.627339051912)
  );
#128 = CARTESIAN_POINT('',(3.252348743052,-0.813061417531,4.756509546956
    ));
#129 = CARTESIAN_POINT('',(3.347150169775,-0.722227191463,4.822284738721
    ));
#130 = CARTESIAN_POINT('',(3.428862877004,-0.619338912625,4.882136877257
    ));
#131 = CARTESIAN_POINT('',(3.495939507783,-0.506592370929,4.933513177372
    ));
#132 = CARTESIAN_POINT('',(3.547312213427,-0.386198386155,4.974115609977
    ));
#133 = CARTESIAN_POINT('',(3.582216461877,-0.260267258431,5.00213950834)
  );
#134 = CARTESIAN_POINT('',(3.6,-0.130831147995,5.016418842042));
#135 = CARTESIAN_POINT('',(3.6,-2.22044604925E-16,5.016418842042));
#136 = PCURVE('',#32,#137);
#137 = DEFINITIONAL_REPRESENTATION('',(#138),#162);
#138 = B_SPLINE_CURVE_WITH_KNOTS('',8,(#139,#140,#141,#142,#143,#144,
    #145,#146,#147,#148,#149,#150,#151,#152,#153,#154,#155,#156,#157,
    #158,#159,#160,#161),.UNSPECIFIED.,.F.,.F.,(9,7,7,9),(0.,
    0.417304303966,0.688000172247,1.),.UNSPECIFIED.);
#139 = CARTESIAN_POINT('',(-4.958339408482,5.999999999062E-07));
#140 = CARTESIAN_POINT('',(-4.958339391991,-0.168614857865));
#141 = CARTESIAN_POINT('',(-4.963635986618,-0.341696438872));
#142 = CARTESIAN_POINT('',(-4.974720103255,-0.51194780931));
#143 = CARTESIAN_POINT('',(-4.991653409344,-0.671613667299));
#144 = CARTESIAN_POINT('',(-5.014182839063,-0.813335615203));
#145 = CARTESIAN_POINT('',(-5.041845329818,-0.930360476433));
#146 = CARTESIAN_POINT('',(-5.074060982139,-1.016536190014));
#147 = CARTESIAN_POINT('',(-5.133295510921,-1.097165231499));
#148 = CARTESIAN_POINT('',(-5.157307854323,-1.112040629595));
#149 = CARTESIAN_POINT('',(-5.181575842565,-1.110301854553));
#150 = CARTESIAN_POINT('',(-5.205654167184,-1.092610116523));
#151 = CARTESIAN_POINT('',(-5.229099784704,-1.060041055967));
#152 = CARTESIAN_POINT('',(-5.25147502236,-1.014076032601));
#153 = CARTESIAN_POINT('',(-5.272367604315,-0.9566012535));
#154 = CARTESIAN_POINT('',(-5.313418892061,-0.813061417531));
#155 = CARTESIAN_POINT('',(-5.333478254685,-0.722227191463));
#156 = CARTESIAN_POINT('',(-5.351084803546,-0.619338912625));
#157 = CARTESIAN_POINT('',(-5.365774953489,-0.506592370929));
#158 = CARTESIAN_POINT('',(-5.377162580232,-0.386198386155));
#159 = CARTESIAN_POINT('',(-5.384947300586,-0.260267258431));
#160 = CARTESIAN_POINT('',(-5.388913709521,-0.130831147995));
#161 = CARTESIAN_POINT('',(-5.388913709521,-2.22044604925E-16));
#162 = ( GEOMETRIC_REPRESENTATION_CONTEXT(2) 
PARAMETRIC_REPRESENTATION_CONTEXT() REPRESENTATION_CONTEXT('2D SPACE',''
  ) );
#163 = PCURVE('',#164,#169);
#164 = CYLINDRICAL_SURFACE('',#165,1.1);
#165 = AXIS2_PLACEMENT_3D('',#166,#167,#168);
#166 = CARTESIAN_POINT('',(2.5,0.,2.));
#167 = DIRECTION('',(-0.,-0.,-1.));
#168 = DIRECTION('',(1.,0.,0.));
#169 = DEFINITIONAL_REPRESENTATION('',(#170),#194);
#170 = B_SPLINE_CURVE_WITH_KNOTS('',8,(#171,#172,#173,#174,#175,#176,
    #177,#178,#179,#180,#181,#182,#183,#184,#185,#186,#187,#188,#189,
    #190,#191,#192,#193),.UNSPECIFIED.,.F.,.F.,(9,7,7,9),(0.,
    0.417304303966,0.688000172247,1.),.UNSPECIFIED.);
#171 = CARTESIAN_POINT('',(-3.141592108135,-1.923038461671));
#172 = CARTESIAN_POINT('',(-3.294878888013,-1.923038438583));
#173 = CARTESIAN_POINT('',(-3.452226693931,-1.930453117969));
#174 = CARTESIAN_POINT('',(-3.612483900674,-1.945974233378));
#175 = CARTESIAN_POINT('',(-3.775334866293,-1.97054641459));
#176 = CARTESIAN_POINT('',(-3.940828931042,-2.006023297369));
#177 = CARTESIAN_POINT('',(-4.109525733827,-2.054644276754));
#178 = CARTESIAN_POINT('',(-4.282287302156,-2.118548996478));
#179 = CARTESIAN_POINT('',(-4.577028392992,-2.250431187328));
#180 = CARTESIAN_POINT('',(-4.691266407187,-2.307184295661));
#181 = CARTESIAN_POINT('',(-4.803881619272,-2.368103333481));
#182 = CARTESIAN_POINT('',(-4.914910573662,-2.432147645714));
#183 = CARTESIAN_POINT('',(-5.02431014899,-2.497896898554));
#184 = CARTESIAN_POINT('',(-5.131949552198,-2.563599696094));
#185 = CARTESIAN_POINT('',(-5.237573741464,-2.627339051912));
#186 = CARTESIAN_POINT('',(-5.459577882368,-2.756509546956));
#187 = CARTESIAN_POINT('',(-5.577838592534,-2.822284738721));
#188 = CARTESIAN_POINT('',(-5.695474447395,-2.882136877257));
#189 = CARTESIAN_POINT('',(-5.812620317055,-2.933513177372));
#190 = CARTESIAN_POINT('',(-5.92953251121,-2.974115609977));
#191 = CARTESIAN_POINT('',(-6.046578583465,-3.00213950834));
#192 = CARTESIAN_POINT('',(-6.164247899911,-3.016418842042));
#193 = CARTESIAN_POINT('',(-6.28318530718,-3.016418842042));
#194 = ( GEOMETRIC_REPRESENTATION_CONTEXT(2) 
PARAMETRIC_REPRESENTATION_CONTEXT() REPRESENTATION_CONTEXT('2D SPACE',''
  ) );
#195 = ORIENTED_EDGE('',*,*,#196,.F.);
#196 = EDGE_CURVE('',#197,#109,#199,.T.);
#197 = VERTEX_POINT('',#198);
#198 = CARTESIAN_POINT('',(-1.4,0.,3.923038461671));
#199 = SURFACE_CURVE('',#200,(#205,#212),.PCURVE_S1.);
#200 = CIRCLE('',#201,5.75);
#201 = AXIS2_PLACEMENT_3D('',#202,#203,#204);
#202 = CARTESIAN_POINT('',(0.,0.,9.5));
#203 = DIRECTION('',(0.,-1.,0.));
#204 = DIRECTION('',(1.,0.,0.));
#205 = PCURVE('',#32,#206);
#206 = DEFINITIONAL_REPRESENTATION('',(#207),#211);
#207 = LINE('',#208,#209);
#208 = CARTESIAN_POINT('',(-0.,0.));
#209 = VECTOR('',#210,1.);
#210 = DIRECTION('',(-1.,0.));
#211 = ( GEOMETRIC_REPRESENTATION_CONTEXT(2) 
PARAMETRIC_REPRESENTATION_CONTEXT() REPRESENTATION_CONTEXT('2D SPACE',''
  ) );
#212 = PCURVE('',#96,#213);
#213 = DEFINITIONAL_REPRESENTATION('',(#214),#218);
#214 = LINE('',#215,#216);
#215 = CARTESIAN_POINT('',(0.,0.));
#216 = VECTOR('',#217,1.);
#217 = DIRECTION('',(1.,0.));
#218 = ( GEOMETRIC_REPRESENTATION_CONTEXT(2) 
PARAMETRIC_REPRESENTATION_CONTEXT() REPRESENTATION_CONTEXT('2D SPACE',''
  ) );
#219 = ORIENTED_EDGE('',*,*,#220,.F.);
#220 = EDGE_CURVE('',#221,#197,#223,.T.);
#221 = VERTEX_POINT('',#222);
#222 = CARTESIAN_POINT('',(-3.6,0.,5.016418842042));
#223 = SURFACE_CURVE('',#224,(#251,#281),.PCURVE_S1.);
#224 = B_SPLINE_CURVE_WITH_KNOTS('',7,(#225,#226,#227,#228,#229,#230,
    #231,#232,#233,#234,#235,#236,#237,#238,#239,#240,#241,#242,#243,
    #244,#245,#246,#247,#248,#249,#250),.UNSPECIFIED.,.F.,.F.,(8,6,6,6,8
    ),(0.,0.188470824223,0.492404237245,0.73588507213,1.),
  .UNSPECIFIED.);
#225 = CARTESIAN_POINT('',(-3.6,6.000000012385E-07,5.016418842041));
#226 = CARTESIAN_POINT('',(-3.600000048736,-8.934842564513E-02,
    5.016418881173));
#227 = CARTESIAN_POINT('',(-3.591533248031,-0.178461928033,
    5.009620754042));
#228 = CARTESIAN_POINT('',(-3.574678744609,-0.266453811571,
    4.996087378352));
#229 = CARTESIAN_POINT('',(-3.549612222547,-0.352434866577,
    4.976126871466));
#230 = CARTESIAN_POINT('',(-3.51661614084,-0.435508871517,4.950287409589
    ));
#231 = CARTESIAN_POINT('',(-3.476118582907,-0.514785420279,
    4.919325389011));
#232 = CARTESIAN_POINT('',(-3.352390077885,-0.709750347285,
    4.827417040204));
#233 = CARTESIAN_POINT('',(-3.257569892661,-0.818953327036,
    4.759270378103));
#234 = CARTESIAN_POINT('',(-3.145716028845,-0.914296411144,
    4.682627530766));
#235 = CARTESIAN_POINT('',(-3.018471530032,-0.992917241862,
    4.600816953031));
#236 = CARTESIAN_POINT('',(-2.877957881796,-1.051820199553,
    4.517162000163));
#237 = CARTESIAN_POINT('',(-2.726896301036,-1.087899785098,
    4.434661058672));
#238 = CARTESIAN_POINT('',(-2.442634693866,-1.105784009526,
    4.292696607106));
#239 = CARTESIAN_POINT('',(-2.312846937322,-1.096893965982,
    4.232408556216));
#240 = CARTESIAN_POINT('',(-2.183555676664,-1.069809558977,
    4.177096239698));
#241 = CARTESIAN_POINT('',(-2.058802780937,-1.024639961575,
    4.128159952203));
#242 = CARTESIAN_POINT('',(-1.942474498748,-0.962828084313,4.086090793)
  );
#243 = CARTESIAN_POINT('',(-1.837854939531,-0.887185663173,
    4.050790545232));
#244 = CARTESIAN_POINT('',(-1.648441656093,-0.709314750592,
    3.990386463081));
#245 = CARTESIAN_POINT('',(-1.565678814771,-0.605000629956,
    3.966272329492));
#246 = CARTESIAN_POINT('',(-1.499278281152,-0.491905579444,
    3.948285327015));
#247 = CARTESIAN_POINT('',(-1.44950917464,-0.372593375596,3.935466838261
    ));
#248 = CARTESIAN_POINT('',(-1.41644323798,-0.249403772242,3.927166265312
    ));
#249 = CARTESIAN_POINT('',(-1.4,-0.124513979579,3.923038461671));
#250 = CARTESIAN_POINT('',(-1.4,-2.22044604925E-16,3.923038461671));
#251 = PCURVE('',#32,#252);
#252 = DEFINITIONAL_REPRESENTATION('',(#253),#280);
#253 = B_SPLINE_CURVE_WITH_KNOTS('',7,(#254,#255,#256,#257,#258,#259,
    #260,#261,#262,#263,#264,#265,#266,#267,#268,#269,#270,#271,#272,
    #273,#274,#275,#276,#277,#278,#279),.UNSPECIFIED.,.F.,.F.,(8,6,6,6,8
    ),(0.,0.188470824223,0.492404237245,0.73588507213,1.),
  .UNSPECIFIED.);
#254 = CARTESIAN_POINT('',(-4.035864251248,5.999999999062E-07));
#255 = CARTESIAN_POINT('',(-4.035864240378,-8.934842564513E-02));
#256 = CARTESIAN_POINT('',(-4.037752611996,-0.178461928033));
#257 = CARTESIAN_POINT('',(-4.041511873259,-0.266453811571));
#258 = CARTESIAN_POINT('',(-4.047084448171,-0.352434866577));
#259 = CARTESIAN_POINT('',(-4.054372555902,-0.435508871517));
#260 = CARTESIAN_POINT('',(-4.063237326798,-0.514785420279));
#261 = CARTESIAN_POINT('',(-4.090042448637,-0.709750347285));
#262 = CARTESIAN_POINT('',(-4.110347454539,-0.818953327036));
#263 = CARTESIAN_POINT('',(-4.133919108837,-0.914296411144));
#264 = CARTESIAN_POINT('',(-4.160205010232,-0.992917241862));
#265 = CARTESIAN_POINT('',(-4.188614753576,-1.051820199553));
#266 = CARTESIAN_POINT('',(-4.218528888332,-1.087899785098));
#267 = CARTESIAN_POINT('',(-4.273787980239,-1.105784009526));
#268 = CARTESIAN_POINT('',(-4.298666147271,-1.096893965982));
#269 = CARTESIAN_POINT('',(-4.323104450423,-1.069809558977));
#270 = CARTESIAN_POINT('',(-4.346393098978,-1.024639961575));
#271 = CARTESIAN_POINT('',(-4.367898286529,-0.962828084313));
#272 = CARTESIAN_POINT('',(-4.387098088675,-0.887185663173));
#273 = CARTESIAN_POINT('',(-4.421674015956,-0.709314750592));
#274 = CARTESIAN_POINT('',(-4.436661306964,-0.605000629956));
#275 = CARTESIAN_POINT('',(-4.448623274759,-0.491905579444));
#276 = CARTESIAN_POINT('',(-4.457561119397,-0.372593375596));
#277 = CARTESIAN_POINT('',(-4.463490126832,-0.249403772242));
#278 = CARTESIAN_POINT('',(-4.466438552287,-0.124513979579));
#279 = CARTESIAN_POINT('',(-4.466438552287,-2.22044604925E-16));
#280 = ( GEOMETRIC_REPRESENTATION_CONTEXT(2) 
PARAMETRIC_REPRESENTATION_CONTEXT() REPRESENTATION_CONTEXT('2D SPACE',''
  ) );
#281 = PCURVE('',#282,#287);
#282 = CYLINDRICAL_SURFACE('',#283,1.1);
#283 = AXIS2_PLACEMENT_3D('',#284,#285,#286);
#284 = CARTESIAN_POINT('',(-2.5,0.,2.));
#285 = DIRECTION('',(-0.,-0.,-1.));
#286 = DIRECTION('',(1.,0.,0.));
#287 = DEFINITIONAL_REPRESENTATION('',(#288),#315);
#288 = B_SPLINE_CURVE_WITH_KNOTS('',7,(#289,#290,#291,#292,#293,#294,
    #295,#296,#297,#298,#299,#300,#301,#302,#303,#304,#305,#306,#307,
    #308,#309,#310,#311,#312,#313,#314),.UNSPECIFIED.,.F.,.F.,(8,6,6,6,8
    ),(0.,0.188470824223,0.492404237245,0.73588507213,1.),
  .UNSPECIFIED.);
#289 = CARTESIAN_POINT('',(-3.141592108135,-3.016418842041));
#290 = CARTESIAN_POINT('',(-3.222818495085,-3.016418881173));
#291 = CARTESIAN_POINT('',(-3.303830437917,-3.009620754042));
#292 = CARTESIAN_POINT('',(-3.384699450293,-2.996087378352));
#293 = CARTESIAN_POINT('',(-3.465467951658,-2.976126871466));
#294 = CARTESIAN_POINT('',(-3.546154260202,-2.950287409589));
#295 = CARTESIAN_POINT('',(-3.62673134413,-2.919325389011));
#296 = CARTESIAN_POINT('',(-3.836650781093,-2.827417040204));
#297 = CARTESIAN_POINT('',(-3.966659829393,-2.759270378103));
#298 = CARTESIAN_POINT('',(-4.09788275257,-2.682627530766));
#299 = CARTESIAN_POINT('',(-4.230976627233,-2.600816953031));
#300 = CARTESIAN_POINT('',(-4.366676957225,-2.517162000163));
#301 = CARTESIAN_POINT('',(-4.505794599756,-2.434661058672));
#302 = CARTESIAN_POINT('',(-4.764725182997,-2.292696607106));
#303 = CARTESIAN_POINT('',(-4.881973695025,-2.232408556216));
#304 = CARTESIAN_POINT('',(-5.000228636725,-2.177096239698));
#305 = CARTESIAN_POINT('',(-5.118727513605,-2.128159952203));
#306 = CARTESIAN_POINT('',(-5.236659600214,-2.086090793));
#307 = CARTESIAN_POINT('',(-5.353064487916,-2.050790545232));
#308 = CARTESIAN_POINT('',(-5.589280269444,-1.990386463081));
#309 = CARTESIAN_POINT('',(-5.709043563671,-1.966272329492));
#310 = CARTESIAN_POINT('',(-5.826459585354,-1.948285327015));
#311 = CARTESIAN_POINT('',(-5.942094471195,-1.935466838261));
#312 = CARTESIAN_POINT('',(-6.056454777412,-1.927166265312));
#313 = CARTESIAN_POINT('',(-6.169990780289,-1.923038461671));
#314 = CARTESIAN_POINT('',(-6.28318530718,-1.923038461671));
#315 = ( GEOMETRIC_REPRESENTATION_CONTEXT(2) 
PARAMETRIC_REPRESENTATION_CONTEXT() REPRESENTATION_CONTEXT('2D SPACE',''
  ) );
#316 = ORIENTED_EDGE('',*,*,#317,.F.);
#317 = EDGE_CURVE('',#22,#221,#318,.T.);
#318 = SURFACE_CURVE('',#319,(#324,#331),.PCURVE_S1.);
#319 = CIRCLE('',#320,5.75);
#320 = AXIS2_PLACEMENT_3D('',#321,#322,#323);
#321 = CARTESIAN_POINT('',(0.,0.,9.5));
#322 = DIRECTION('',(0.,-1.,0.));
#323 = DIRECTION('',(1.,0.,0.));
#324 = PCURVE('',#32,#325);
#325 = DEFINITIONAL_REPRESENTATION('',(#326),#330);
#326 = LINE('',#327,#328);
#327 = CARTESIAN_POINT('',(-0.,0.));
#328 = VECTOR('',#329,1.);
#329 = DIRECTION('',(-1.,0.));
#330 = ( GEOMETRIC_REPRESENTATION_CONTEXT(2) 
PARAMETRIC_REPRESENTATION_CONTEXT() REPRESENTATION_CONTEXT('2D SPACE',''
  ) );
#331 = PCURVE('',#96,#332);
#332 = DEFINITIONAL_REPRESENTATION('',(#333),#337);
#333 = LINE('',#334,#335);
#334 = CARTESIAN_POINT('',(0.,0.));
#335 = VECTOR('',#336,1.);
#336 = DIRECTION('',(1.,0.));
#337 = ( GEOMETRIC_REPRESENTATION_CONTEXT(2) 
PARAMETRIC_REPRESENTATION_CONTEXT() REPRESENTATION_CONTEXT('2D SPACE',''
  ) );
#338 = ADVANCED_FACE('',(#339),#96,.T.);
#339 = FACE_BOUND('',#340,.T.);
#340 = EDGE_LOOP('',(#341,#364,#391,#392,#393,#474,#475,#547));
#341 = ORIENTED_EDGE('',*,*,#342,.T.);
#342 = EDGE_CURVE('',#22,#343,#345,.T.);
#343 = VERTEX_POINT('',#344);
#344 = CARTESIAN_POINT('',(5.75,1.6,9.5));
#345 = SEAM_CURVE('',#346,(#350,#357),.PCURVE_S1.);
#346 = LINE('',#347,#348);
#347 = CARTESIAN_POINT('',(5.75,0.,9.5));
#348 = VECTOR('',#349,1.);
#349 = DIRECTION('',(-0.,1.,-0.));
#350 = PCURVE('',#96,#351);
#351 = DEFINITIONAL_REPRESENTATION('',(#352),#356);
#352 = LINE('',#353,#354);
#353 = CARTESIAN_POINT('',(0.,0.));
#354 = VECTOR('',#355,1.);
#355 = DIRECTION('',(0.,-1.));
#356 = ( GEOMETRIC_REPRESENTATION_CONTEXT(2) 
PARAMETRIC_REPRESENTATION_CONTEXT() REPRESENTATION_CONTEXT('2D SPACE',''
  ) );
#357 = PCURVE('',#96,#358);
#358 = DEFINITIONAL_REPRESENTATION('',(#359),#363);
#359 = LINE('',#360,#361);
#360 = CARTESIAN_POINT('',(6.28318530718,0.));
#361 = VECTOR('',#362,1.);
#362 = DIRECTION('',(0.,-1.));
#363 = ( GEOMETRIC_REPRESENTATION_CONTEXT(2) 
PARAMETRIC_REPRESENTATION_CONTEXT() REPRESENTATION_CONTEXT('2D SPACE',''
  ) );
#364 = ORIENTED_EDGE('',*,*,#365,.T.);
#365 = EDGE_CURVE('',#343,#343,#366,.T.);
#366 = SURFACE_CURVE('',#367,(#372,#379),.PCURVE_S1.);
#367 = CIRCLE('',#368,5.75);
#368 = AXIS2_PLACEMENT_3D('',#369,#370,#371);
#369 = CARTESIAN_POINT('',(0.,1.6,9.5));
#370 = DIRECTION('',(0.,-1.,-0.));
#371 = DIRECTION('',(1.,0.,0.));
#372 = PCURVE('',#96,#373);
#373 = DEFINITIONAL_REPRESENTATION('',(#374),#378);
#374 = LINE('',#375,#376);
#375 = CARTESIAN_POINT('',(0.,-1.6));
#376 = VECTOR('',#377,1.);
#377 = DIRECTION('',(1.,0.));
#378 = ( GEOMETRIC_REPRESENTATION_CONTEXT(2) 
PARAMETRIC_REPRESENTATION_CONTEXT() REPRESENTATION_CONTEXT('2D SPACE',''
  ) );
#379 = PCURVE('',#380,#385);
#380 = TOROIDAL_SURFACE('',#381,4.95,0.8);
#381 = AXIS2_PLACEMENT_3D('',#382,#383,#384);
#382 = CARTESIAN_POINT('',(0.,1.6,9.5));
#383 = DIRECTION('',(-0.,1.,0.));
#384 = DIRECTION('',(1.,0.,0.));
#385 = DEFINITIONAL_REPRESENTATION('',(#386),#390);
#386 = LINE('',#387,#388);
#387 = CARTESIAN_POINT('',(-0.,0.));
#388 = VECTOR('',#389,1.);
#389 = DIRECTION('',(-1.,0.));
#390 = ( GEOMETRIC_REPRESENTATION_CONTEXT(2) 
PARAMETRIC_REPRESENTATION_CONTEXT() REPRESENTATION_CONTEXT('2D SPACE',''
  ) );
#391 = ORIENTED_EDGE('',*,*,#342,.F.);
#392 = ORIENTED_EDGE('',*,*,#79,.F.);
#393 = ORIENTED_EDGE('',*,*,#394,.T.);
#394 = EDGE_CURVE('',#80,#109,#395,.T.);
#395 = SURFACE_CURVE('',#396,(#420,#447),.PCURVE_S1.);
#396 = B_SPLINE_CURVE_WITH_KNOTS('',8,(#397,#398,#399,#400,#401,#402,
    #403,#404,#405,#406,#407,#408,#409,#410,#411,#412,#413,#414,#415,
    #416,#417,#418,#419),.UNSPECIFIED.,.F.,.F.,(9,7,7,9),(0.,
    0.291988942769,0.583273430948,1.),.UNSPECIFIED.);
#397 = CARTESIAN_POINT('',(3.6,-2.694223340385E-16,5.016418842042));
#398 = CARTESIAN_POINT('',(3.6,0.122077437832,5.016418842042));
#399 = CARTESIAN_POINT('',(3.584516492871,0.243074028596,5.00398641113)
  );
#400 = CARTESIAN_POINT('',(3.554029133089,0.361216717673,4.979508347954)
  );
#401 = CARTESIAN_POINT('',(3.509051031229,0.474787467751,4.943884392088)
  );
#402 = CARTESIAN_POINT('',(3.450206428047,0.582016687491,4.898532351364)
  );
#403 = CARTESIAN_POINT('',(3.378366248391,0.681066983067,4.845287548442)
  );
#404 = CARTESIAN_POINT('',(3.294782988308,0.77011818054,4.786232340819)
  );
#405 = CARTESIAN_POINT('',(3.10777564921,0.924824105866,4.660901965209)
  );
#406 = CARTESIAN_POINT('',(3.002372138375,0.992212018317,4.593286147798)
  );
#407 = CARTESIAN_POINT('',(2.886280076607,1.046939232464,4.522732032514)
  );
#408 = CARTESIAN_POINT('',(2.761422338732,1.086679035606,4.451596603732)
  );
#409 = CARTESIAN_POINT('',(2.630169213284,1.109562949106,4.382065934871)
  );
#410 = CARTESIAN_POINT('',(2.495228721631,1.114187257484,4.315919142667)
  );
#411 = CARTESIAN_POINT('',(2.359578734582,1.099625405532,4.254455210625)
  );
#412 = CARTESIAN_POINT('',(2.03596761155,1.016536191408,4.118548998758)
  );
#413 = CARTESIAN_POINT('',(1.861893003774,0.930360481288,4.054644280303)
  );
#414 = CARTESIAN_POINT('',(1.710235507712,0.813335624905,4.006023301347)
  );
#415 = CARTESIAN_POINT('',(1.585570957206,0.671613682738,3.970546418424)
  );
#416 = CARTESIAN_POINT('',(1.491354459048,0.511947830856,3.945974236691)
  );
#417 = CARTESIAN_POINT('',(1.429538843219,0.341696466416,3.930453120495)
  );
#418 = CARTESIAN_POINT('',(1.399999913776,0.168614890834,3.923038440026)
  );
#419 = CARTESIAN_POINT('',(1.4,-5.624999998218E-07,3.923038461671));
#420 = PCURVE('',#96,#421);
#421 = DEFINITIONAL_REPRESENTATION('',(#422),#446);
#422 = B_SPLINE_CURVE_WITH_KNOTS('',8,(#423,#424,#425,#426,#427,#428,
    #429,#430,#431,#432,#433,#434,#435,#436,#437,#438,#439,#440,#441,
    #442,#443,#444,#445),.UNSPECIFIED.,.F.,.F.,(9,7,7,9),(0.,
    0.291988942769,0.583273430948,1.),.UNSPECIFIED.);
#423 = CARTESIAN_POINT('',(5.388913709521,2.22044604925E-16));
#424 = CARTESIAN_POINT('',(5.388913709521,-0.122077437832));
#425 = CARTESIAN_POINT('',(5.385460300412,-0.243074028596));
#426 = CARTESIAN_POINT('',(5.37866065558,-0.361216717673));
#427 = CARTESIAN_POINT('',(5.368682261379,-0.474787467751));
#428 = CARTESIAN_POINT('',(5.355764365098,-0.582016687491));
#429 = CARTESIAN_POINT('',(5.340218982479,-0.681066983067));
#430 = CARTESIAN_POINT('',(5.322425959172,-0.77011818054));
#431 = CARTESIAN_POINT('',(5.283274487367,-0.924824105866));
#432 = CARTESIAN_POINT('',(5.261500279801,-0.992212018317));
#433 = CARTESIAN_POINT('',(5.23788593763,-1.046939232464));
#434 = CARTESIAN_POINT('',(5.212915535211,-1.086679035606));
#435 = CARTESIAN_POINT('',(5.187108598582,-1.109562949106));
#436 = CARTESIAN_POINT('',(5.160992916849,-1.114187257484));
#437 = CARTESIAN_POINT('',(5.135102890085,-1.099625405532));
#438 = CARTESIAN_POINT('',(5.074060983163,-1.016536191408));
#439 = CARTESIAN_POINT('',(5.041845331612,-0.930360481288));
#440 = CARTESIAN_POINT('',(5.014182841333,-0.813335624905));
#441 = CARTESIAN_POINT('',(4.99165341178,-0.671613682738));
#442 = CARTESIAN_POINT('',(4.974720105535,-0.511947830856));
#443 = CARTESIAN_POINT('',(4.963635988422,-0.341696466416));
#444 = CARTESIAN_POINT('',(4.958339393021,-0.168614890834));
#445 = CARTESIAN_POINT('',(4.958339408482,5.624999999121E-07));
#446 = ( GEOMETRIC_REPRESENTATION_CONTEXT(2) 
PARAMETRIC_REPRESENTATION_CONTEXT() REPRESENTATION_CONTEXT('2D SPACE',''
  ) );
#447 = PCURVE('',#164,#448);
#448 = DEFINITIONAL_REPRESENTATION('',(#449),#473);
#449 = B_SPLINE_CURVE_WITH_KNOTS('',8,(#450,#451,#452,#453,#454,#455,
    #456,#457,#458,#459,#460,#461,#462,#463,#464,#465,#466,#467,#468,
    #469,#470,#471,#472),.UNSPECIFIED.,.F.,.F.,(9,7,7,9),(0.,
    0.291988942769,0.583273430948,1.),.UNSPECIFIED.);
#450 = CARTESIAN_POINT('',(0.,-3.016418842042));
#451 = CARTESIAN_POINT('',(-0.110979488938,-3.016418842042));
#452 = CARTESIAN_POINT('',(-0.220976468144,-3.00398641113));
#453 = CARTESIAN_POINT('',(-0.330461432369,-2.979508347954));
#454 = CARTESIAN_POINT('',(-0.439801856297,-2.943884392088));
#455 = CARTESIAN_POINT('',(-0.549269283307,-2.898532351364));
#456 = CARTESIAN_POINT('',(-0.659042048067,-2.845287548442));
#457 = CARTESIAN_POINT('',(-0.769192293545,-2.786232340819));
#458 = CARTESIAN_POINT('',(-0.989833111209,-2.660901965209));
#459 = CARTESIAN_POINT('',(-1.10271430369,-2.593286147798));
#460 = CARTESIAN_POINT('',(-1.217785245362,-2.522732032514));
#461 = CARTESIAN_POINT('',(-1.334805288297,-2.451596603732));
#462 = CARTESIAN_POINT('',(-1.453681402155,-2.382065934871));
#463 = CARTESIAN_POINT('',(-1.574427370384,-2.315919142667));
#464 = CARTESIAN_POINT('',(-1.697163698284,-2.254455210625));
#465 = CARTESIAN_POINT('',(-2.000897999929,-2.118548998758));
#466 = CARTESIAN_POINT('',(-2.173659563713,-2.054644280303));
#467 = CARTESIAN_POINT('',(-2.342356362242,-2.006023301347));
#468 = CARTESIAN_POINT('',(-2.507850422905,-1.970546418424));
#469 = CARTESIAN_POINT('',(-2.67070138453,-1.945974236691));
#470 = CARTESIAN_POINT('',(-2.830958587293,-1.930453120495));
#471 = CARTESIAN_POINT('',(-2.988306389195,-1.923038440026));
#472 = CARTESIAN_POINT('',(-3.141593164953,-1.923038461671));
#473 = ( GEOMETRIC_REPRESENTATION_CONTEXT(2) 
PARAMETRIC_REPRESENTATION_CONTEXT() REPRESENTATION_CONTEXT('2D SPACE',''
  ) );
#474 = ORIENTED_EDGE('',*,*,#196,.F.);
#475 = ORIENTED_EDGE('',*,*,#476,.T.);
#476 = EDGE_CURVE('',#197,#221,#477,.T.);
#477 = SURFACE_CURVE('',#478,(#499,#523),.PCURVE_S1.);
#478 = B_SPLINE_CURVE_WITH_KNOTS('',7,(#479,#480,#481,#482,#483,#484,
    #485,#486,#487,#488,#489,#490,#491,#492,#493,#494,#495,#496,#497,
    #498),.UNSPECIFIED.,.F.,.F.,(8,6,6,8),(0.,0.283584335888,
    0.566298305048,1.),.UNSPECIFIED.);
#479 = CARTESIAN_POINT('',(-1.4,-2.694223340385E-16,3.923038461671));
#480 = CARTESIAN_POINT('',(-1.4,0.133492094333,3.923038461671));
#481 = CARTESIAN_POINT('',(-1.418899970504,0.267560273635,3.927783004392
    ));
#482 = CARTESIAN_POINT('',(-1.456994761878,0.399562255479,3.937345891862
    ));
#483 = CARTESIAN_POINT('',(-1.514377257193,0.526708439676,3.952180072608
    ));
#484 = CARTESIAN_POINT('',(-1.590874926846,0.646011347413,3.973136065413
    ));
#485 = CARTESIAN_POINT('',(-1.686005727961,0.754225224463,4.001455113626
    ));
#486 = CARTESIAN_POINT('',(-1.911315207357,0.940617435929,4.075666043265
    ));
#487 = CARTESIAN_POINT('',(-2.041076555017,1.01863032586,4.121402276449)
  );
#488 = CARTESIAN_POINT('',(-2.184355559464,1.075799158801,4.176326864028
    ));
#489 = CARTESIAN_POINT('',(-2.335472442605,1.10876925561,4.24023423349)
  );
#490 = CARTESIAN_POINT('',(-2.488065713019,1.116620855747,4.311662482958
    ));
#491 = CARTESIAN_POINT('',(-2.635887888517,1.100789378885,4.387339700094
    ));
#492 = CARTESIAN_POINT('',(-2.984755162868,1.011215487272,4.579444621385
    ));
#493 = CARTESIAN_POINT('',(-3.176598545238,0.909897385731,4.698548274108
    ));
#494 = CARTESIAN_POINT('',(-3.339192992185,0.770070112,4.811870730097));
#495 = CARTESIAN_POINT('',(-3.466182849758,0.600896503395,4.908982146162
    ));
#496 = CARTESIAN_POINT('',(-3.553964814295,0.411277285994,4.979454372891
    ));
#497 = CARTESIAN_POINT('',(-3.600000106538,0.208339738444,5.016418927584
    ));
#498 = CARTESIAN_POINT('',(-3.6,-5.624999998218E-07,5.016418842041));
#499 = PCURVE('',#96,#500);
#500 = DEFINITIONAL_REPRESENTATION('',(#501),#522);
#501 = B_SPLINE_CURVE_WITH_KNOTS('',7,(#502,#503,#504,#505,#506,#507,
    #508,#509,#510,#511,#512,#513,#514,#515,#516,#517,#518,#519,#520,
    #521),.UNSPECIFIED.,.F.,.F.,(8,6,6,8),(0.,0.283584335888,
    0.566298305048,1.),.UNSPECIFIED.);
#502 = CARTESIAN_POINT('',(4.466438552287,2.22044604925E-16));
#503 = CARTESIAN_POINT('',(4.466438552287,-0.133492094333));
#504 = CARTESIAN_POINT('',(4.463049608003,-0.267560273635));
#505 = CARTESIAN_POINT('',(4.45621890383,-0.399562255479));
#506 = CARTESIAN_POINT('',(4.445911432766,-0.526708439676));
#507 = CARTESIAN_POINT('',(4.432120682509,-0.646011347413));
#508 = CARTESIAN_POINT('',(4.414865885294,-0.754225224463));
#509 = CARTESIAN_POINT('',(4.37361085805,-0.940617435929));
#510 = CARTESIAN_POINT('',(4.349688139599,-1.01863032586));
#511 = CARTESIAN_POINT('',(4.323017684052,-1.075799158801));
#512 = CARTESIAN_POINT('',(4.294516749714,-1.10876925561));
#513 = CARTESIAN_POINT('',(4.265245324672,-1.116620855747));
#514 = CARTESIAN_POINT('',(4.236377069974,-1.100789378885));
#515 = CARTESIAN_POINT('',(4.167114101388,-1.011215487272));
#516 = CARTESIAN_POINT('',(4.127896214815,-0.909897385731));
#517 = CARTESIAN_POINT('',(4.093501562856,-0.770070112));
#518 = CARTESIAN_POINT('',(4.065710619969,-0.600896503395));
#519 = CARTESIAN_POINT('',(4.046131589901,-0.411277285994));
#520 = CARTESIAN_POINT('',(4.035864227487,-0.208339738444));
#521 = CARTESIAN_POINT('',(4.035864251248,5.624999999121E-07));
#522 = ( GEOMETRIC_REPRESENTATION_CONTEXT(2) 
PARAMETRIC_REPRESENTATION_CONTEXT() REPRESENTATION_CONTEXT('2D SPACE',''
  ) );
#523 = PCURVE('',#282,#524);
#524 = DEFINITIONAL_REPRESENTATION('',(#525),#546);
#525 = B_SPLINE_CURVE_WITH_KNOTS('',7,(#526,#527,#528,#529,#530,#531,
    #532,#533,#534,#535,#536,#537,#538,#539,#540,#541,#542,#543,#544,
    #545),.UNSPECIFIED.,.F.,.F.,(8,6,6,8),(0.,0.283584335888,
    0.566298305048,1.),.UNSPECIFIED.);
#526 = CARTESIAN_POINT('',(0.,-1.923038461671));
#527 = CARTESIAN_POINT('',(-0.121356449394,-1.923038461671));
#528 = CARTESIAN_POINT('',(-0.243236296353,-1.927783004392));
#529 = CARTESIAN_POINT('',(-0.36615882825,-1.937345891862));
#530 = CARTESIAN_POINT('',(-0.490613754462,-1.952180072608));
#531 = CARTESIAN_POINT('',(-0.617182206675,-1.973136065413));
#532 = CARTESIAN_POINT('',(-0.746525839002,-2.001455113626));
#533 = CARTESIAN_POINT('',(-1.012357479627,-2.075666043265));
#534 = CARTESIAN_POINT('',(-1.14845789349,-2.121402276449));
#535 = CARTESIAN_POINT('',(-1.285764193458,-2.176326864028));
#536 = CARTESIAN_POINT('',(-1.42305630218,-2.24023423349));
#537 = CARTESIAN_POINT('',(-1.559167587014,-2.311662482958));
#538 = CARTESIAN_POINT('',(-1.692908770165,-2.387339700094));
#539 = CARTESIAN_POINT('',(-2.020347941441,-2.579444621385));
#540 = CARTESIAN_POINT('',(-2.212178064727,-2.698548274108));
#541 = CARTESIAN_POINT('',(-2.399678486377,-2.811870730097));
#542 = CARTESIAN_POINT('',(-2.584239150733,-2.908982146162));
#543 = CARTESIAN_POINT('',(-2.767701976906,-2.979454372891));
#544 = CARTESIAN_POINT('',(-2.952192891368,-3.016418927584));
#545 = CARTESIAN_POINT('',(-3.141593164953,-3.016418842041));
#546 = ( GEOMETRIC_REPRESENTATION_CONTEXT(2) 
PARAMETRIC_REPRESENTATION_CONTEXT() REPRESENTATION_CONTEXT('2D SPACE',''
  ) );
#547 = ORIENTED_EDGE('',*,*,#317,.F.);
#548 = ADVANCED_FACE('',(#549),#282,.T.);
#549 = FACE_BOUND('',#550,.F.);
#550 = EDGE_LOOP('',(#551,#580,#601,#602,#603));
#551 = ORIENTED_EDGE('',*,*,#552,.F.);
#552 = EDGE_CURVE('',#553,#553,#555,.T.);
#553 = VERTEX_POINT('',#554);
#554 = CARTESIAN_POINT('',(-1.4,0.,2.));
#555 = SURFACE_CURVE('',#556,(#561,#568),.PCURVE_S1.);
#556 = CIRCLE('',#557,1.1);
#557 = AXIS2_PLACEMENT_3D('',#558,#559,#560);
#558 = CARTESIAN_POINT('',(-2.5,0.,2.));
#559 = DIRECTION('',(0.,0.,1.));
#560 = DIRECTION('',(1.,0.,0.));
#561 = PCURVE('',#282,#562);
#562 = DEFINITIONAL_REPRESENTATION('',(#563),#567);
#563 = LINE('',#564,#565);
#564 = CARTESIAN_POINT('',(-0.,0.));
#565 = VECTOR('',#566,1.);
#566 = DIRECTION('',(-1.,0.));
#567 = ( GEOMETRIC_REPRESENTATION_CONTEXT(2) 
PARAMETRIC_REPRESENTATION_CONTEXT() REPRESENTATION_CONTEXT('2D SPACE',''
  ) );
#568 = PCURVE('',#569,#574);
#569 = PLANE('',#570);
#570 = AXIS2_PLACEMENT_3D('',#571,#572,#573);
#571 = CARTESIAN_POINT('',(-2.5,-6.055984930685E-18,2.));
#572 = DIRECTION('',(0.,0.,1.));
#573 = DIRECTION('',(1.,0.,-0.));
#574 = DEFINITIONAL_REPRESENTATION('',(#575),#579);
#575 = CIRCLE('',#576,1.1);
#576 = AXIS2_PLACEMENT_2D('',#577,#578);
#577 = CARTESIAN_POINT('',(0.,6.055984930685E-18));
#578 = DIRECTION('',(1.,0.));
#579 = ( GEOMETRIC_REPRESENTATION_CONTEXT(2) 
PARAMETRIC_REPRESENTATION_CONTEXT() REPRESENTATION_CONTEXT('2D SPACE',''
  ) );
#580 = ORIENTED_EDGE('',*,*,#581,.T.);
#581 = EDGE_CURVE('',#553,#197,#582,.T.);
#582 = SEAM_CURVE('',#583,(#587,#594),.PCURVE_S1.);
#583 = LINE('',#584,#585);
#584 = CARTESIAN_POINT('',(-1.4,0.,2.));
#585 = VECTOR('',#586,1.);
#586 = DIRECTION('',(0.,0.,1.));
#587 = PCURVE('',#282,#588);
#588 = DEFINITIONAL_REPRESENTATION('',(#589),#593);
#589 = LINE('',#590,#591);
#590 = CARTESIAN_POINT('',(-6.28318530718,0.));
#591 = VECTOR('',#592,1.);
#592 = DIRECTION('',(-0.,-1.));
#593 = ( GEOMETRIC_REPRESENTATION_CONTEXT(2) 
PARAMETRIC_REPRESENTATION_CONTEXT() REPRESENTATION_CONTEXT('2D SPACE',''
  ) );
#594 = PCURVE('',#282,#595);
#595 = DEFINITIONAL_REPRESENTATION('',(#596),#600);
#596 = LINE('',#597,#598);
#597 = CARTESIAN_POINT('',(-0.,0.));
#598 = VECTOR('',#599,1.);
#599 = DIRECTION('',(-0.,-1.));
#600 = ( GEOMETRIC_REPRESENTATION_CONTEXT(2) 
PARAMETRIC_REPRESENTATION_CONTEXT() REPRESENTATION_CONTEXT('2D SPACE',''
  ) );
#601 = ORIENTED_EDGE('',*,*,#476,.T.);
#602 = ORIENTED_EDGE('',*,*,#220,.T.);
#603 = ORIENTED_EDGE('',*,*,#581,.F.);
#604 = ADVANCED_FACE('',(#605),#164,.T.);
#605 = FACE_BOUND('',#606,.F.);
#606 = EDGE_LOOP('',(#607,#636,#657,#658,#659));
#607 = ORIENTED_EDGE('',*,*,#608,.F.);
#608 = EDGE_CURVE('',#609,#609,#611,.T.);
#609 = VERTEX_POINT('',#610);
#610 = CARTESIAN_POINT('',(3.6,0.,2.));
#611 = SURFACE_CURVE('',#612,(#617,#624),.PCURVE_S1.);
#612 = CIRCLE('',#613,1.1);
#613 = AXIS2_PLACEMENT_3D('',#614,#615,#616);
#614 = CARTESIAN_POINT('',(2.5,0.,2.));
#615 = DIRECTION('',(0.,0.,1.));
#616 = DIRECTION('',(1.,0.,0.));
#617 = PCURVE('',#164,#618);
#618 = DEFINITIONAL_REPRESENTATION('',(#619),#623);
#619 = LINE('',#620,#621);
#620 = CARTESIAN_POINT('',(-0.,0.));
#621 = VECTOR('',#622,1.);
#622 = DIRECTION('',(-1.,0.));
#623 = ( GEOMETRIC_REPRESENTATION_CONTEXT(2) 
PARAMETRIC_REPRESENTATION_CONTEXT() REPRESENTATION_CONTEXT('2D SPACE',''
  ) );
#624 = PCURVE('',#625,#630);
#625 = PLANE('',#626);
#626 = AXIS2_PLACEMENT_3D('',#627,#628,#629);
#627 = CARTESIAN_POINT('',(2.5,-6.055984930685E-18,2.));
#628 = DIRECTION('',(0.,0.,1.));
#629 = DIRECTION('',(1.,0.,-0.));
#630 = DEFINITIONAL_REPRESENTATION('',(#631),#635);
#631 = CIRCLE('',#632,1.1);
#632 = AXIS2_PLACEMENT_2D('',#633,#634);
#633 = CARTESIAN_POINT('',(0.,6.055984930685E-18));
#634 = DIRECTION('',(1.,0.));
#635 = ( GEOMETRIC_REPRESENTATION_CONTEXT(2) 
PARAMETRIC_REPRESENTATION_CONTEXT() REPRESENTATION_CONTEXT('2D SPACE',''
  ) );
#636 = ORIENTED_EDGE('',*,*,#637,.T.);
#637 = EDGE_CURVE('',#609,#80,#638,.T.);
#638 = SEAM_CURVE('',#639,(#643,#650),.PCURVE_S1.);
#639 = LINE('',#640,#641);
#640 = CARTESIAN_POINT('',(3.6,0.,2.));
#641 = VECTOR('',#642,1.);
#642 = DIRECTION('',(0.,0.,1.));
#643 = PCURVE('',#164,#644);
#644 = DEFINITIONAL_REPRESENTATION('',(#645),#649);
#645 = LINE('',#646,#647);
#646 = CARTESIAN_POINT('',(-6.28318530718,0.));
#647 = VECTOR('',#648,1.);
#648 = DIRECTION('',(-0.,-1.));
#649 = ( GEOMETRIC_REPRESENTATION_CONTEXT(2) 
PARAMETRIC_REPRESENTATION_CONTEXT() REPRESENTATION_CONTEXT('2D SPACE',''
  ) );
#650 = PCURVE('',#164,#651);
#651 = DEFINITIONAL_REPRESENTATION('',(#652),#656);
#652 = LINE('',#653,#654);
#653 = CARTESIAN_POINT('',(-0.,0.));
#654 = VECTOR('',#655,1.);
#655 = DIRECTION('',(-0.,-1.));
#656 = ( GEOMETRIC_REPRESENTATION_CONTEXT(2) 
PARAMETRIC_REPRESENTATION_CONTEXT() REPRESENTATION_CONTEXT('2D SPACE',''
  ) );
#657 = ORIENTED_EDGE('',*,*,#394,.T.);
#658 = ORIENTED_EDGE('',*,*,#108,.T.);
#659 = ORIENTED_EDGE('',*,*,#637,.F.);
#660 = ADVANCED_FACE('',(#661),#66,.T.);
#661 = FACE_BOUND('',#662,.T.);
#662 = EDGE_LOOP('',(#663,#685,#686,#687));
#663 = ORIENTED_EDGE('',*,*,#664,.F.);
#664 = EDGE_CURVE('',#24,#665,#667,.T.);
#665 = VERTEX_POINT('',#666);
#666 = CARTESIAN_POINT('',(4.95,-2.4,9.5));
#667 = SEAM_CURVE('',#668,(#673,#679),.PCURVE_S1.);
#668 = CIRCLE('',#669,0.8);
#669 = AXIS2_PLACEMENT_3D('',#670,#671,#672);
#670 = CARTESIAN_POINT('',(4.95,-1.6,9.5));
#671 = DIRECTION('',(0.,0.,-1.));
#672 = DIRECTION('',(1.,0.,0.));
#673 = PCURVE('',#66,#674);
#674 = DEFINITIONAL_REPRESENTATION('',(#675),#678);
#675 = B_SPLINE_CURVE_WITH_KNOTS('',1,(#676,#677),.UNSPECIFIED.,.F.,.F.,
  (2,2),(0.,1.570796326795),.PIECEWISE_BEZIER_KNOTS.);
#676 = CARTESIAN_POINT('',(0.,0.));
#677 = CARTESIAN_POINT('',(0.,1.570796326795));
#678 = ( GEOMETRIC_REPRESENTATION_CONTEXT(2) 
PARAMETRIC_REPRESENTATION_CONTEXT() REPRESENTATION_CONTEXT('2D SPACE',''
  ) );
#679 = PCURVE('',#66,#680);
#680 = DEFINITIONAL_REPRESENTATION('',(#681),#684);
#681 = B_SPLINE_CURVE_WITH_KNOTS('',1,(#682,#683),.UNSPECIFIED.,.F.,.F.,
  (2,2),(0.,1.570796326795),.PIECEWISE_BEZIER_KNOTS.);
#682 = CARTESIAN_POINT('',(6.28318530718,0.));
#683 = CARTESIAN_POINT('',(6.28318530718,1.570796326795));
#684 = ( GEOMETRIC_REPRESENTATION_CONTEXT(2) 
PARAMETRIC_REPRESENTATION_CONTEXT() REPRESENTATION_CONTEXT('2D SPACE',''
  ) );
#685 = ORIENTED_EDGE('',*,*,#51,.T.);
#686 = ORIENTED_EDGE('',*,*,#664,.T.);
#687 = ORIENTED_EDGE('',*,*,#688,.F.);
#688 = EDGE_CURVE('',#665,#665,#689,.T.);
#689 = SURFACE_CURVE('',#690,(#695,#702),.PCURVE_S1.);
#690 = CIRCLE('',#691,4.95);
#691 = AXIS2_PLACEMENT_3D('',#692,#693,#694);
#692 = CARTESIAN_POINT('',(0.,-2.4,9.5));
#693 = DIRECTION('',(0.,-1.,-0.));
#694 = DIRECTION('',(1.,0.,0.));
#695 = PCURVE('',#66,#696);
#696 = DEFINITIONAL_REPRESENTATION('',(#697),#701);
#697 = LINE('',#698,#699);
#698 = CARTESIAN_POINT('',(0.,1.570796326795));
#699 = VECTOR('',#700,1.);
#700 = DIRECTION('',(1.,0.));
#701 = ( GEOMETRIC_REPRESENTATION_CONTEXT(2) 
PARAMETRIC_REPRESENTATION_CONTEXT() REPRESENTATION_CONTEXT('2D SPACE',''
  ) );
#702 = PCURVE('',#703,#708);
#703 = PLANE('',#704);
#704 = AXIS2_PLACEMENT_3D('',#705,#706,#707);
#705 = CARTESIAN_POINT('',(-3.567235128364E-16,-2.4,9.5));
#706 = DIRECTION('',(-0.,-1.,-0.));
#707 = DIRECTION('',(0.,0.,-1.));
#708 = DEFINITIONAL_REPRESENTATION('',(#709),#713);
#709 = CIRCLE('',#710,4.95);
#710 = AXIS2_PLACEMENT_2D('',#711,#712);
#711 = CARTESIAN_POINT('',(0.,3.567235128364E-16));
#712 = DIRECTION('',(0.,1.));
#713 = ( GEOMETRIC_REPRESENTATION_CONTEXT(2) 
PARAMETRIC_REPRESENTATION_CONTEXT() REPRESENTATION_CONTEXT('2D SPACE',''
  ) );
#714 = ADVANCED_FACE('',(#715),#380,.T.);
#715 = FACE_BOUND('',#716,.F.);
#716 = EDGE_LOOP('',(#717,#739,#740,#741));
#717 = ORIENTED_EDGE('',*,*,#718,.F.);
#718 = EDGE_CURVE('',#343,#719,#721,.T.);
#719 = VERTEX_POINT('',#720);
#720 = CARTESIAN_POINT('',(4.95,2.4,9.5));
#721 = SEAM_CURVE('',#722,(#727,#733),.PCURVE_S1.);
#722 = CIRCLE('',#723,0.8);
#723 = AXIS2_PLACEMENT_3D('',#724,#725,#726);
#724 = CARTESIAN_POINT('',(4.95,1.6,9.5));
#725 = DIRECTION('',(0.,-0.,1.));
#726 = DIRECTION('',(1.,0.,0.));
#727 = PCURVE('',#380,#728);
#728 = DEFINITIONAL_REPRESENTATION('',(#729),#732);
#729 = B_SPLINE_CURVE_WITH_KNOTS('',1,(#730,#731),.UNSPECIFIED.,.F.,.F.,
  (2,2),(0.,1.570796326795),.PIECEWISE_BEZIER_KNOTS.);
#730 = CARTESIAN_POINT('',(0.,0.));
#731 = CARTESIAN_POINT('',(0.,1.570796326795));
#732 = ( GEOMETRIC_REPRESENTATION_CONTEXT(2) 
PARAMETRIC_REPRESENTATION_CONTEXT() REPRESENTATION_CONTEXT('2D SPACE',''
  ) );
#733 = PCURVE('',#380,#734);
#734 = DEFINITIONAL_REPRESENTATION('',(#735),#738);
#735 = B_SPLINE_CURVE_WITH_KNOTS('',1,(#736,#737),.UNSPECIFIED.,.F.,.F.,
  (2,2),(0.,1.570796326795),.PIECEWISE_BEZIER_KNOTS.);
#736 = CARTESIAN_POINT('',(-6.28318530718,0.));
#737 = CARTESIAN_POINT('',(-6.28318530718,1.570796326795));
#738 = ( GEOMETRIC_REPRESENTATION_CONTEXT(2) 
PARAMETRIC_REPRESENTATION_CONTEXT() REPRESENTATION_CONTEXT('2D SPACE',''
  ) );
#739 = ORIENTED_EDGE('',*,*,#365,.F.);
#740 = ORIENTED_EDGE('',*,*,#718,.T.);
#741 = ORIENTED_EDGE('',*,*,#742,.T.);
#742 = EDGE_CURVE('',#719,#719,#743,.T.);
#743 = SURFACE_CURVE('',#744,(#749,#756),.PCURVE_S1.);
#744 = CIRCLE('',#745,4.95);
#745 = AXIS2_PLACEMENT_3D('',#746,#747,#748);
#746 = CARTESIAN_POINT('',(0.,2.4,9.5));
#747 = DIRECTION('',(0.,-1.,-0.));
#748 = DIRECTION('',(1.,0.,0.));
#749 = PCURVE('',#380,#750);
#750 = DEFINITIONAL_REPRESENTATION('',(#751),#755);
#751 = LINE('',#752,#753);
#752 = CARTESIAN_POINT('',(-0.,1.570796326795));
#753 = VECTOR('',#754,1.);
#754 = DIRECTION('',(-1.,0.));
#755 = ( GEOMETRIC_REPRESENTATION_CONTEXT(2) 
PARAMETRIC_REPRESENTATION_CONTEXT() REPRESENTATION_CONTEXT('2D SPACE',''
  ) );
#756 = PCURVE('',#757,#762);
#757 = PLANE('',#758);
#758 = AXIS2_PLACEMENT_3D('',#759,#760,#761);
#759 = CARTESIAN_POINT('',(-3.567235128364E-16,2.4,9.5));
#760 = DIRECTION('',(-0.,-1.,-0.));
#761 = DIRECTION('',(0.,0.,-1.));
#762 = DEFINITIONAL_REPRESENTATION('',(#763),#767);
#763 = CIRCLE('',#764,4.95);
#764 = AXIS2_PLACEMENT_2D('',#765,#766);
#765 = CARTESIAN_POINT('',(0.,3.567235128364E-16));
#766 = DIRECTION('',(0.,1.));
#767 = ( GEOMETRIC_REPRESENTATION_CONTEXT(2) 
PARAMETRIC_REPRESENTATION_CONTEXT() REPRESENTATION_CONTEXT('2D SPACE',''
  ) );
#768 = ADVANCED_FACE('',(#769,#772),#569,.F.);
#769 = FACE_BOUND('',#770,.F.);
#770 = EDGE_LOOP('',(#771));
#771 = ORIENTED_EDGE('',*,*,#552,.T.);
#772 = FACE_BOUND('',#773,.F.);
#773 = EDGE_LOOP('',(#774));
#774 = ORIENTED_EDGE('',*,*,#775,.T.);
#775 = EDGE_CURVE('',#776,#776,#778,.T.);
#776 = VERTEX_POINT('',#777);
#777 = CARTESIAN_POINT('',(-2.2,0.,2.));
#778 = SURFACE_CURVE('',#779,(#784,#795),.PCURVE_S1.);
#779 = CIRCLE('',#780,0.3);
#780 = AXIS2_PLACEMENT_3D('',#781,#782,#783);
#781 = CARTESIAN_POINT('',(-2.5,0.,2.));
#782 = DIRECTION('',(0.,0.,-1.));
#783 = DIRECTION('',(1.,0.,0.));
#784 = PCURVE('',#569,#785);
#785 = DEFINITIONAL_REPRESENTATION('',(#786),#794);
#786 = ( BOUNDED_CURVE() B_SPLINE_CURVE(2,(#787,#788,#789,#790,#791,#792
,#793),.UNSPECIFIED.,.T.,.F.) B_SPLINE_CURVE_WITH_KNOTS((1,2,2,2,2,1),(
    -2.094395102393,0.,2.094395102393,4.188790204786,6.28318530718,
8.377580409573),.UNSPECIFIED.) CURVE() GEOMETRIC_REPRESENTATION_ITEM() 
RATIONAL_B_SPLINE_CURVE((1.,0.5,1.,0.5,1.,0.5,1.)) REPRESENTATION_ITEM(
  '') );
#787 = CARTESIAN_POINT('',(0.3,6.055984930685E-18));
#788 = CARTESIAN_POINT('',(0.3,-0.519615242271));
#789 = CARTESIAN_POINT('',(-0.15,-0.259807621135));
#790 = CARTESIAN_POINT('',(-0.6,-6.742282301816E-17));
#791 = CARTESIAN_POINT('',(-0.15,0.259807621135));
#792 = CARTESIAN_POINT('',(0.3,0.519615242271));
#793 = CARTESIAN_POINT('',(0.3,6.055984930685E-18));
#794 = ( GEOMETRIC_REPRESENTATION_CONTEXT(2) 
PARAMETRIC_REPRESENTATION_CONTEXT() REPRESENTATION_CONTEXT('2D SPACE',''
  ) );
#795 = PCURVE('',#796,#801);
#796 = CYLINDRICAL_SURFACE('',#797,0.3);
#797 = AXIS2_PLACEMENT_3D('',#798,#799,#800);
#798 = CARTESIAN_POINT('',(-2.5,0.,-4.5));
#799 = DIRECTION('',(-0.,-0.,-1.));
#800 = DIRECTION('',(1.,0.,0.));
#801 = DEFINITIONAL_REPRESENTATION('',(#802),#806);
#802 = LINE('',#803,#804);
#803 = CARTESIAN_POINT('',(-6.28318530718,-6.5));
#804 = VECTOR('',#805,1.);
#805 = DIRECTION('',(1.,-0.));
#806 = ( GEOMETRIC_REPRESENTATION_CONTEXT(2) 
PARAMETRIC_REPRESENTATION_CONTEXT() REPRESENTATION_CONTEXT('2D SPACE',''
  ) );
#807 = ADVANCED_FACE('',(#808,#811),#625,.F.);
#808 = FACE_BOUND('',#809,.F.);
#809 = EDGE_LOOP('',(#810));
#810 = ORIENTED_EDGE('',*,*,#608,.T.);
#811 = FACE_BOUND('',#812,.F.);
#812 = EDGE_LOOP('',(#813));
#813 = ORIENTED_EDGE('',*,*,#814,.T.);
#814 = EDGE_CURVE('',#815,#815,#817,.T.);
#815 = VERTEX_POINT('',#816);
#816 = CARTESIAN_POINT('',(2.8,0.,2.));
#817 = SURFACE_CURVE('',#818,(#823,#834),.PCURVE_S1.);
#818 = CIRCLE('',#819,0.3);
#819 = AXIS2_PLACEMENT_3D('',#820,#821,#822);
#820 = CARTESIAN_POINT('',(2.5,0.,2.));
#821 = DIRECTION('',(0.,0.,-1.));
#822 = DIRECTION('',(1.,0.,0.));
#823 = PCURVE('',#625,#824);
#824 = DEFINITIONAL_REPRESENTATION('',(#825),#833);
#825 = ( BOUNDED_CURVE() B_SPLINE_CURVE(2,(#826,#827,#828,#829,#830,#831
,#832),.UNSPECIFIED.,.T.,.F.) B_SPLINE_CURVE_WITH_KNOTS((1,2,2,2,2,1),(
    -2.094395102393,0.,2.094395102393,4.188790204786,6.28318530718,
8.377580409573),.UNSPECIFIED.) CURVE() GEOMETRIC_REPRESENTATION_ITEM() 
RATIONAL_B_SPLINE_CURVE((1.,0.5,1.,0.5,1.,0.5,1.)) REPRESENTATION_ITEM(
  '') );
#826 = CARTESIAN_POINT('',(0.3,6.055984930685E-18));
#827 = CARTESIAN_POINT('',(0.3,-0.519615242271));
#828 = CARTESIAN_POINT('',(-0.15,-0.259807621135));
#829 = CARTESIAN_POINT('',(-0.6,-6.742282301816E-17));
#830 = CARTESIAN_POINT('',(-0.15,0.259807621135));
#831 = CARTESIAN_POINT('',(0.3,0.519615242271));
#832 = CARTESIAN_POINT('',(0.3,6.055984930685E-18));
#833 = ( GEOMETRIC_REPRESENTATION_CONTEXT(2) 
PARAMETRIC_REPRESENTATION_CONTEXT() REPRESENTATION_CONTEXT('2D SPACE',''
  ) );
#834 = PCURVE('',#835,#840);
#835 = CYLINDRICAL_SURFACE('',#836,0.3);
#836 = AXIS2_PLACEMENT_3D('',#837,#838,#839);
#837 = CARTESIAN_POINT('',(2.5,0.,-4.5));
#838 = DIRECTION('',(-0.,-0.,-1.));
#839 = DIRECTION('',(1.,0.,0.));
#840 = DEFINITIONAL_REPRESENTATION('',(#841),#845);
#841 = LINE('',#842,#843);
#842 = CARTESIAN_POINT('',(-6.28318530718,-6.5));
#843 = VECTOR('',#844,1.);
#844 = DIRECTION('',(1.,-0.));
#845 = ( GEOMETRIC_REPRESENTATION_CONTEXT(2) 
PARAMETRIC_REPRESENTATION_CONTEXT() REPRESENTATION_CONTEXT('2D SPACE',''
  ) );
#846 = ADVANCED_FACE('',(#847),#703,.T.);
#847 = FACE_BOUND('',#848,.T.);
#848 = EDGE_LOOP('',(#849));
#849 = ORIENTED_EDGE('',*,*,#688,.T.);
#850 = ADVANCED_FACE('',(#851),#757,.F.);
#851 = FACE_BOUND('',#852,.F.);
#852 = EDGE_LOOP('',(#853));
#853 = ORIENTED_EDGE('',*,*,#742,.T.);
#854 = ADVANCED_FACE('',(#855),#796,.T.);
#855 = FACE_BOUND('',#856,.F.);
#856 = EDGE_LOOP('',(#857,#886,#907,#908));
#857 = ORIENTED_EDGE('',*,*,#858,.F.);
#858 = EDGE_CURVE('',#859,#859,#861,.T.);
#859 = VERTEX_POINT('',#860);
#860 = CARTESIAN_POINT('',(-2.2,0.,-4.5));
#861 = SURFACE_CURVE('',#862,(#867,#874),.PCURVE_S1.);
#862 = CIRCLE('',#863,0.3);
#863 = AXIS2_PLACEMENT_3D('',#864,#865,#866);
#864 = CARTESIAN_POINT('',(-2.5,0.,-4.5));
#865 = DIRECTION('',(0.,0.,1.));
#866 = DIRECTION('',(1.,0.,0.));
#867 = PCURVE('',#796,#868);
#868 = DEFINITIONAL_REPRESENTATION('',(#869),#873);
#869 = LINE('',#870,#871);
#870 = CARTESIAN_POINT('',(-0.,0.));
#871 = VECTOR('',#872,1.);
#872 = DIRECTION('',(-1.,0.));
#873 = ( GEOMETRIC_REPRESENTATION_CONTEXT(2) 
PARAMETRIC_REPRESENTATION_CONTEXT() REPRESENTATION_CONTEXT('2D SPACE',''
  ) );
#874 = PCURVE('',#875,#880);
#875 = PLANE('',#876);
#876 = AXIS2_PLACEMENT_3D('',#877,#878,#879);
#877 = CARTESIAN_POINT('',(-2.5,5.558742067634E-18,-4.5));
#878 = DIRECTION('',(0.,0.,1.));
#879 = DIRECTION('',(1.,0.,-0.));
#880 = DEFINITIONAL_REPRESENTATION('',(#881),#885);
#881 = CIRCLE('',#882,0.3);
#882 = AXIS2_PLACEMENT_2D('',#883,#884);
#883 = CARTESIAN_POINT('',(0.,-5.558742067634E-18));
#884 = DIRECTION('',(1.,0.));
#885 = ( GEOMETRIC_REPRESENTATION_CONTEXT(2) 
PARAMETRIC_REPRESENTATION_CONTEXT() REPRESENTATION_CONTEXT('2D SPACE',''
  ) );
#886 = ORIENTED_EDGE('',*,*,#887,.T.);
#887 = EDGE_CURVE('',#859,#776,#888,.T.);
#888 = SEAM_CURVE('',#889,(#893,#900),.PCURVE_S1.);
#889 = LINE('',#890,#891);
#890 = CARTESIAN_POINT('',(-2.2,0.,-4.5));
#891 = VECTOR('',#892,1.);
#892 = DIRECTION('',(0.,0.,1.));
#893 = PCURVE('',#796,#894);
#894 = DEFINITIONAL_REPRESENTATION('',(#895),#899);
#895 = LINE('',#896,#897);
#896 = CARTESIAN_POINT('',(-6.28318530718,0.));
#897 = VECTOR('',#898,1.);
#898 = DIRECTION('',(-0.,-1.));
#899 = ( GEOMETRIC_REPRESENTATION_CONTEXT(2) 
PARAMETRIC_REPRESENTATION_CONTEXT() REPRESENTATION_CONTEXT('2D SPACE',''
  ) );
#900 = PCURVE('',#796,#901);
#901 = DEFINITIONAL_REPRESENTATION('',(#902),#906);
#902 = LINE('',#903,#904);
#903 = CARTESIAN_POINT('',(-0.,0.));
#904 = VECTOR('',#905,1.);
#905 = DIRECTION('',(-0.,-1.));
#906 = ( GEOMETRIC_REPRESENTATION_CONTEXT(2) 
PARAMETRIC_REPRESENTATION_CONTEXT() REPRESENTATION_CONTEXT('2D SPACE',''
  ) );
#907 = ORIENTED_EDGE('',*,*,#775,.F.);
#908 = ORIENTED_EDGE('',*,*,#887,.F.);
#909 = ADVANCED_FACE('',(#910),#835,.T.);
#910 = FACE_BOUND('',#911,.F.);
#911 = EDGE_LOOP('',(#912,#941,#962,#963));
#912 = ORIENTED_EDGE('',*,*,#913,.F.);
#913 = EDGE_CURVE('',#914,#914,#916,.T.);
#914 = VERTEX_POINT('',#915);
#915 = CARTESIAN_POINT('',(2.8,0.,-4.5));
#916 = SURFACE_CURVE('',#917,(#922,#929),.PCURVE_S1.);
#917 = CIRCLE('',#918,0.3);
#918 = AXIS2_PLACEMENT_3D('',#919,#920,#921);
#919 = CARTESIAN_POINT('',(2.5,0.,-4.5));
#920 = DIRECTION('',(0.,0.,1.));
#921 = DIRECTION('',(1.,0.,0.));
#922 = PCURVE('',#835,#923);
#923 = DEFINITIONAL_REPRESENTATION('',(#924),#928);
#924 = LINE('',#925,#926);
#925 = CARTESIAN_POINT('',(-0.,0.));
#926 = VECTOR('',#927,1.);
#927 = DIRECTION('',(-1.,0.));
#928 = ( GEOMETRIC_REPRESENTATION_CONTEXT(2) 
PARAMETRIC_REPRESENTATION_CONTEXT() REPRESENTATION_CONTEXT('2D SPACE',''
  ) );
#929 = PCURVE('',#930,#935);
#930 = PLANE('',#931);
#931 = AXIS2_PLACEMENT_3D('',#932,#933,#934);
#932 = CARTESIAN_POINT('',(2.5,5.558742067634E-18,-4.5));
#933 = DIRECTION('',(0.,0.,1.));
#934 = DIRECTION('',(1.,0.,-0.));
#935 = DEFINITIONAL_REPRESENTATION('',(#936),#940);
#936 = CIRCLE('',#937,0.3);
#937 = AXIS2_PLACEMENT_2D('',#938,#939);
#938 = CARTESIAN_POINT('',(0.,-5.558742067634E-18));
#939 = DIRECTION('',(1.,0.));
#940 = ( GEOMETRIC_REPRESENTATION_CONTEXT(2) 
PARAMETRIC_REPRESENTATION_CONTEXT() REPRESENTATION_CONTEXT('2D SPACE',''
  ) );
#941 = ORIENTED_EDGE('',*,*,#942,.T.);
#942 = EDGE_CURVE('',#914,#815,#943,.T.);
#943 = SEAM_CURVE('',#944,(#948,#955),.PCURVE_S1.);
#944 = LINE('',#945,#946);
#945 = CARTESIAN_POINT('',(2.8,0.,-4.5));
#946 = VECTOR('',#947,1.);
#947 = DIRECTION('',(0.,0.,1.));
#948 = PCURVE('',#835,#949);
#949 = DEFINITIONAL_REPRESENTATION('',(#950),#954);
#950 = LINE('',#951,#952);
#951 = CARTESIAN_POINT('',(-6.28318530718,0.));
#952 = VECTOR('',#953,1.);
#953 = DIRECTION('',(-0.,-1.));
#954 = ( GEOMETRIC_REPRESENTATION_CONTEXT(2) 
PARAMETRIC_REPRESENTATION_CONTEXT() REPRESENTATION_CONTEXT('2D SPACE',''
  ) );
#955 = PCURVE('',#835,#956);
#956 = DEFINITIONAL_REPRESENTATION('',(#957),#961);
#957 = LINE('',#958,#959);
#958 = CARTESIAN_POINT('',(-0.,0.));
#959 = VECTOR('',#960,1.);
#960 = DIRECTION('',(-0.,-1.));
#961 = ( GEOMETRIC_REPRESENTATION_CONTEXT(2) 
PARAMETRIC_REPRESENTATION_CONTEXT() REPRESENTATION_CONTEXT('2D SPACE',''
  ) );
#962 = ORIENTED_EDGE('',*,*,#814,.F.);
#963 = ORIENTED_EDGE('',*,*,#942,.F.);
#964 = ADVANCED_FACE('',(#965),#875,.F.);
#965 = FACE_BOUND('',#966,.F.);
#966 = EDGE_LOOP('',(#967));
#967 = ORIENTED_EDGE('',*,*,#858,.T.);
#968 = ADVANCED_FACE('',(#969),#930,.F.);
#969 = FACE_BOUND('',#970,.F.);
#970 = EDGE_LOOP('',(#971));
#971 = ORIENTED_EDGE('',*,*,#913,.T.);
#972 = ( GEOMETRIC_REPRESENTATION_CONTEXT(3) 
GLOBAL_UNCERTAINTY_ASSIGNED_CONTEXT((#976)) GLOBAL_UNIT_ASSIGNED_CONTEXT
((#973,#974,#975)) REPRESENTATION_CONTEXT('Context #1',
  '3D Context with UNIT and UNCERTAINTY') );
#973 = ( LENGTH_UNIT() NAMED_UNIT(*) SI_UNIT(.MILLI.,.METRE.) );
#974 = ( NAMED_UNIT(*) PLANE_ANGLE_UNIT() SI_UNIT($,.RADIAN.) );
#975 = ( NAMED_UNIT(*) SI_UNIT($,.STERADIAN.) SOLID_ANGLE_UNIT() );
#976 = UNCERTAINTY_MEASURE_WITH_UNIT(LENGTH_MEASURE(1.E-07),#973,
  'distance_accuracy_value','confusion accuracy');
#977 = PRODUCT_RELATED_PRODUCT_CATEGORY('part',$,(#7));
ENDSEC;
END-ISO-10303-21;
