ISO-10303-21;
HEADER;
FILE_DESCRIPTION(('Open CASCADE Model'),'2;1');
FILE_NAME('Open CASCADE Shape Model','2026-09-05T21:26:10',('Author'),(
    'Open CASCADE'),'Open CASCADE STEP processor 7.9','Open CASCADE 7.9'
  ,'Unknown');
FILE_SCHEMA(('AUTOMOTIVE_DESIGN { 1 0 10303 214 1 1 1 1 }'));
ENDSEC;
DATA;
#1 = APPLICATION_PROTOCOL_DEFINITION('international standard',
  'automotive_design',2000,#2);
#2 = APPLICATION_CONTEXT(
  'core data for automotive mechanical design processes');
#3 = SHAPE_DEFINITION_REPRESENTATION(#4,#10);
#4 = PRODUCT_DEFINITION_SHAPE('','',#5);
#5 = PRODUCT_DEFINITION('design','',#6,#9);
#6 = PRODUCT_DEFINITION_FORMATION('','',#7);
#7 = PRODUCT('Open CASCADE STEP translator 7.9 2',
  'Open CASCADE STEP translator 7.9 2','',(#8));
#8 = PRODUCT_CONTEXT('',#2,'mechanical');
#9 = PRODUCT_DEFINITION_CONTEXT('part definition',#2,'design');
#10 = ADVANCED_BREP_SHAPE_REPRESENTATION('',(#11,#15),#1336);
#11 = AXIS2_PLACEMENT_3D('',#12,#13,#14);
#12 = CARTESIAN_POINT('',(0.,0.,0.));
#13 = DIRECTION('',(0.,0.,1.));
#14 = DIRECTION('',(1.,0.,-0.));
#15 = MANIFOLD_SOLID_BREP('',#16);
#16 = CLOSED_SHELL('',(#17,#480,#831,#858,#915,#1017,#1024,#1078,#1132,
    #1171,#1210,#1214,#1218,#1273,#1328,#1332));
#17 = ADVANCED_FACE('',(#18),#32,.T.);
#18 = FACE_BOUND('',#19,.F.);
#19 = EDGE_LOOP('',(#20,#50,#77,#78,#107,#133,#278,#302,#432,#458));
#20 = ORIENTED_EDGE('',*,*,#21,.T.);
#21 = EDGE_CURVE('',#22,#24,#26,.T.);
#22 = VERTEX_POINT('',#23);
#23 = CARTESIAN_POINT('',(6.5,0.,10.));
#24 = VERTEX_POINT('',#25);
#25 = CARTESIAN_POINT('',(6.5,-1.6,10.));
#26 = SEAM_CURVE('',#27,(#31,#43),.PCURVE_S1.);
#27 = LINE('',#28,#29);
#28 = CARTESIAN_POINT('',(6.5,0.,10.));
#29 = VECTOR('',#30,1.);
#30 = DIRECTION('',(0.,-1.,0.));
#31 = PCURVE('',#32,#37);
#32 = CYLINDRICAL_SURFACE('',#33,6.5);
#33 = AXIS2_PLACEMENT_3D('',#34,#35,#36);
#34 = CARTESIAN_POINT('',(0.,0.,10.));
#35 = DIRECTION('',(-0.,1.,-0.));
#36 = DIRECTION('',(1.,0.,0.));
#37 = DEFINITIONAL_REPRESENTATION('',(#38),#42);
#38 = LINE('',#39,#40);
#39 = CARTESIAN_POINT('',(-0.,0.));
#40 = VECTOR('',#41,1.);
#41 = DIRECTION('',(-0.,-1.));
#42 = ( GEOMETRIC_REPRESENTATION_CONTEXT(2) 
PARAMETRIC_REPRESENTATION_CONTEXT() REPRESENTATION_CONTEXT('2D SPACE',''
  ) );
#43 = PCURVE('',#32,#44);
#44 = DEFINITIONAL_REPRESENTATION('',(#45),#49);
#45 = LINE('',#46,#47);
#46 = CARTESIAN_POINT('',(-6.28318530718,0.));
#47 = VECTOR('',#48,1.);
#48 = DIRECTION('',(-0.,-1.));
#49 = ( GEOMETRIC_REPRESENTATION_CONTEXT(2) 
PARAMETRIC_REPRESENTATION_CONTEXT() REPRESENTATION_CONTEXT('2D SPACE',''
  ) );
#50 = ORIENTED_EDGE('',*,*,#51,.T.);
#51 = EDGE_CURVE('',#24,#24,#52,.T.);
#52 = SURFACE_CURVE('',#53,(#58,#65),.PCURVE_S1.);
#53 = CIRCLE('',#54,6.5);
#54 = AXIS2_PLACEMENT_3D('',#55,#56,#57);
#55 = CARTESIAN_POINT('',(0.,-1.6,10.));
#56 = DIRECTION('',(0.,-1.,-0.));
#57 = DIRECTION('',(1.,0.,0.));
#58 = PCURVE('',#32,#59);
#59 = DEFINITIONAL_REPRESENTATION('',(#60),#64);
#60 = LINE('',#61,#62);
#61 = CARTESIAN_POINT('',(-0.,-1.6));
#62 = VECTOR('',#63,1.);
#63 = DIRECTION('',(-1.,0.));
#64 = ( GEOMETRIC_REPRESENTATION_CONTEXT(2) 
PARAMETRIC_REPRESENTATION_CONTEXT() REPRESENTATION_CONTEXT('2D SPACE',''
  ) );
#65 = PCURVE('',#66,#71);
#66 = TOROIDAL_SURFACE('',#67,5.7,0.8);
#67 = AXIS2_PLACEMENT_3D('',#68,#69,#70);
#68 = CARTESIAN_POINT('',(0.,-1.6,10.));
#69 = DIRECTION('',(0.,-1.,-0.));
#70 = DIRECTION('',(1.,0.,0.));
#71 = DEFINITIONAL_REPRESENTATION('',(#72),#76);
#72 = LINE('',#73,#74);
#73 = CARTESIAN_POINT('',(0.,0.));
#74 = VECTOR('',#75,1.);
#75 = DIRECTION('',(1.,0.));
#76 = ( GEOMETRIC_REPRESENTATION_CONTEXT(2) 
PARAMETRIC_REPRESENTATION_CONTEXT() REPRESENTATION_CONTEXT('2D SPACE',''
  ) );
#77 = ORIENTED_EDGE('',*,*,#21,.F.);
#78 = ORIENTED_EDGE('',*,*,#79,.F.);
#79 = EDGE_CURVE('',#80,#22,#82,.T.);
#80 = VERTEX_POINT('',#81);
#81 = CARTESIAN_POINT('',(4.690415759823,0.,5.5));
#82 = SURFACE_CURVE('',#83,(#88,#95),.PCURVE_S1.);
#83 = CIRCLE('',#84,6.5);
#84 = AXIS2_PLACEMENT_3D('',#85,#86,#87);
#85 = CARTESIAN_POINT('',(0.,0.,10.));
#86 = DIRECTION('',(0.,-1.,0.));
#87 = DIRECTION('',(1.,0.,0.));
#88 = PCURVE('',#32,#89);
#89 = DEFINITIONAL_REPRESENTATION('',(#90),#94);
#90 = LINE('',#91,#92);
#91 = CARTESIAN_POINT('',(-0.,0.));
#92 = VECTOR('',#93,1.);
#93 = DIRECTION('',(-1.,0.));
#94 = ( GEOMETRIC_REPRESENTATION_CONTEXT(2) 
PARAMETRIC_REPRESENTATION_CONTEXT() REPRESENTATION_CONTEXT('2D SPACE',''
  ) );
#95 = PCURVE('',#96,#101);
#96 = CYLINDRICAL_SURFACE('',#97,6.5);
#97 = AXIS2_PLACEMENT_3D('',#98,#99,#100);
#98 = CARTESIAN_POINT('',(0.,0.,10.));
#99 = DIRECTION('',(0.,-1.,0.));
#100 = DIRECTION('',(1.,0.,0.));
#101 = DEFINITIONAL_REPRESENTATION('',(#102),#106);
#102 = LINE('',#103,#104);
#103 = CARTESIAN_POINT('',(0.,0.));
#104 = VECTOR('',#105,1.);
#105 = DIRECTION('',(1.,0.));
#106 = ( GEOMETRIC_REPRESENTATION_CONTEXT(2) 
PARAMETRIC_REPRESENTATION_CONTEXT() REPRESENTATION_CONTEXT('2D SPACE',''
  ) );
#107 = ORIENTED_EDGE('',*,*,#108,.F.);
#108 = EDGE_CURVE('',#109,#80,#111,.T.);
#109 = VERTEX_POINT('',#110);
#110 = CARTESIAN_POINT('',(4.690415759823,-0.570629651066,5.5));
#111 = SURFACE_CURVE('',#112,(#116,#122),.PCURVE_S1.);
#112 = LINE('',#113,#114);
#113 = CARTESIAN_POINT('',(4.690415759823,0.,5.5));
#114 = VECTOR('',#115,1.);
#115 = DIRECTION('',(-0.,1.,-0.));
#116 = PCURVE('',#32,#117);
#117 = DEFINITIONAL_REPRESENTATION('',(#118),#121);
#118 = B_SPLINE_CURVE_WITH_KNOTS('',1,(#119,#120),.UNSPECIFIED.,.F.,.F.,
  (2,2),(-1.32,6.E-07),.PIECEWISE_BEZIER_KNOTS.);
#119 = CARTESIAN_POINT('',(-5.518503129317,-1.32));
#120 = CARTESIAN_POINT('',(-5.518503129317,6.E-07));
#121 = ( GEOMETRIC_REPRESENTATION_CONTEXT(2) 
PARAMETRIC_REPRESENTATION_CONTEXT() REPRESENTATION_CONTEXT('2D SPACE',''
  ) );
#122 = PCURVE('',#123,#128);
#123 = PLANE('',#124);
#124 = AXIS2_PLACEMENT_3D('',#125,#126,#127);
#125 = CARTESIAN_POINT('',(3.75,-6.055984930685E-18,5.5));
#126 = DIRECTION('',(0.,0.,1.));
#127 = DIRECTION('',(1.,0.,-0.));
#128 = DEFINITIONAL_REPRESENTATION('',(#129),#132);
#129 = B_SPLINE_CURVE_WITH_KNOTS('',1,(#130,#131),.UNSPECIFIED.,.F.,.F.,
  (2,2),(-1.32,6.E-07),.PIECEWISE_BEZIER_KNOTS.);
#130 = CARTESIAN_POINT('',(0.940415759823,-1.32));
#131 = CARTESIAN_POINT('',(0.940415759823,6.000000000061E-07));
#132 = ( GEOMETRIC_REPRESENTATION_CONTEXT(2) 
PARAMETRIC_REPRESENTATION_CONTEXT() REPRESENTATION_CONTEXT('2D SPACE',''
  ) );
#133 = ORIENTED_EDGE('',*,*,#134,.F.);
#134 = EDGE_CURVE('',#135,#109,#137,.T.);
#135 = VERTEX_POINT('',#136);
#136 = CARTESIAN_POINT('',(2.65,0.,4.064724100768));
#137 = SURFACE_CURVE('',#138,(#181,#227),.PCURVE_S1.);
#138 = B_SPLINE_CURVE_WITH_KNOTS('',6,(#139,#140,#141,#142,#143,#144,
    #145,#146,#147,#148,#149,#150,#151,#152,#153,#154,#155,#156,#157,
    #158,#159,#160,#161,#162,#163,#164,#165,#166,#167,#168,#169,#170,
    #171,#172,#173,#174,#175,#176,#177,#178,#179,#180),.UNSPECIFIED.,.F.
  ,.F.,(7,5,5,5,5,5,5,5,7),(0.,0.204494513135,0.283147233119,
    0.325505638292,0.419195023122,0.546356326355,0.613573535778,
    0.824375940405,1.),.UNSPECIFIED.);
#139 = CARTESIAN_POINT('',(2.65,6.000000012385E-07,4.064724100768));
#140 = CARTESIAN_POINT('',(2.649999946445,-9.818301915191E-02,
    4.064724076857));
#141 = CARTESIAN_POINT('',(2.660516073866,-0.196462616438,4.069419678824
    ));
#142 = CARTESIAN_POINT('',(2.68158779146,-0.29362647313,4.07882690127));
#143 = CARTESIAN_POINT('',(2.713141486468,-0.388452027182,4.093083688262
    ));
#144 = CARTESIAN_POINT('',(2.754990990795,-0.479695093804,4.112442874823
    ));
#145 = CARTESIAN_POINT('',(2.826779472889,-0.599304114166,4.146812268518
    ));
#146 = CARTESIAN_POINT('',(2.848191136232,-0.631795433917,4.157163183952
    ));
#147 = CARTESIAN_POINT('',(2.871040596375,-0.663460476515,4.168331225235
    ));
#148 = CARTESIAN_POINT('',(2.895288717288,-0.694210907415,4.180328637433
    ));
#149 = CARTESIAN_POINT('',(2.920889668216,-0.723962626298,4.193166560181
    ));
#150 = CARTESIAN_POINT('',(2.962278588937,-0.76807768077,4.214226948869)
  );
#151 = CARTESIAN_POINT('',(2.977141757175,-0.783205029749,4.221844658606
    ));
#152 = CARTESIAN_POINT('',(2.99237102763,-0.798004193735,4.229709058521)
  );
#153 = CARTESIAN_POINT('',(3.007955910196,-0.812461871108,4.237820492878
    ));
#154 = CARTESIAN_POINT('',(3.023884825426,-0.8265650789,4.246178748577)
  );
#155 = CARTESIAN_POINT('',(3.076109998412,-0.870682946152,4.273814276619
    ));
#156 = CARTESIAN_POINT('',(3.113705356085,-0.899276739967,4.29405408522)
  );
#157 = CARTESIAN_POINT('',(3.152782133801,-0.925933620139,4.315487593374
    ));
#158 = CARTESIAN_POINT('',(3.193173559831,-0.950531193216,4.338087960665
    ));
#159 = CARTESIAN_POINT('',(3.234699684574,-0.972973952671,4.361814416214
    ));
#160 = CARTESIAN_POINT('',(3.334818014863,-1.020637121927,4.420264835336
    ));
#161 = CARTESIAN_POINT('',(3.394162464491,-1.043964027325,4.455863268554
    ));
#162 = CARTESIAN_POINT('',(3.454740752909,-1.063022118563,4.493266089549
    ));
#163 = CARTESIAN_POINT('',(3.516068520247,-1.077747397402,4.532284052474
    ));
#164 = CARTESIAN_POINT('',(3.577656020071,-1.088164569567,4.572674467207
    ));
#165 = CARTESIAN_POINT('',(3.671460798964,-1.097676934808,4.636054790751
    ));
#166 = CARTESIAN_POINT('',(3.703847003895,-1.099795440975,4.658278387919
    ));
#167 = CARTESIAN_POINT('',(3.73612668068,-1.100760278718,4.680775691175)
  );
#168 = CARTESIAN_POINT('',(3.768246984112,-1.100591937057,4.70351162052)
  );
#169 = CARTESIAN_POINT('',(3.800156723935,-1.099314137923,4.726448626043
    ));
#170 = CARTESIAN_POINT('',(3.931063987507,-1.089551605525,4.821985383718
    ));
#171 = CARTESIAN_POINT('',(4.02755794913,-1.071518046534,4.895858211836)
  );
#172 = CARTESIAN_POINT('',(4.120327713267,-1.043726715736,4.970317678927
    ));
#173 = CARTESIAN_POINT('',(4.208608343232,-1.006956952067,5.044435879115
    ));
#174 = CARTESIAN_POINT('',(4.291737587029,-0.961913937799,5.117182763675
    ));
#175 = CARTESIAN_POINT('',(4.433539543989,-0.865362683078,5.245917165724
    ));
#176 = CARTESIAN_POINT('',(4.494090845312,-0.816111535235,5.302777032279
    ));
#177 = CARTESIAN_POINT('',(4.550429715934,-0.761780902868,5.357379008423
    ));
#178 = CARTESIAN_POINT('',(4.602212153223,-0.702612500476,5.409016004198
    ));
#179 = CARTESIAN_POINT('',(4.649037128192,-0.638823103241,5.456870436529
    ));
#180 = CARTESIAN_POINT('',(4.690416335465,-0.570628702389,5.5000006));
#181 = PCURVE('',#32,#182);
#182 = DEFINITIONAL_REPRESENTATION('',(#183),#226);
#183 = B_SPLINE_CURVE_WITH_KNOTS('',6,(#184,#185,#186,#187,#188,#189,
    #190,#191,#192,#193,#194,#195,#196,#197,#198,#199,#200,#201,#202,
    #203,#204,#205,#206,#207,#208,#209,#210,#211,#212,#213,#214,#215,
    #216,#217,#218,#219,#220,#221,#222,#223,#224,#225),.UNSPECIFIED.,.F.
  ,.F.,(7,5,5,5,5,5,5,5,7),(0.,0.204494513135,0.283147233119,
    0.325505638292,0.419195023122,0.546356326355,0.613573535778,
    0.824375940405,1.),.UNSPECIFIED.);
#184 = CARTESIAN_POINT('',(-5.132314349942,5.999999999062E-07));
#185 = CARTESIAN_POINT('',(-5.132314340919,-9.818301915191E-02));
#186 = CARTESIAN_POINT('',(-5.134086117286,-0.196462616438));
#187 = CARTESIAN_POINT('',(-5.137636437442,-0.29362647313));
#188 = CARTESIAN_POINT('',(-5.142963176976,-0.388452027182));
#189 = CARTESIAN_POINT('',(-5.150056492573,-0.479695093804));
#190 = CARTESIAN_POINT('',(-5.162301372082,-0.599304114166));
#191 = CARTESIAN_POINT('',(-5.165960175257,-0.631795433917));
#192 = CARTESIAN_POINT('',(-5.169872838252,-0.663460476515));
#193 = CARTESIAN_POINT('',(-5.174034877523,-0.694210907415));
#194 = CARTESIAN_POINT('',(-5.178440883183,-0.723962626298));
#195 = CARTESIAN_POINT('',(-5.185585348049,-0.76807768077));
#196 = CARTESIAN_POINT('',(-5.188154813357,-0.783205029749));
#197 = CARTESIAN_POINT('',(-5.190791716592,-0.798004193735));
#198 = CARTESIAN_POINT('',(-5.193494679613,-0.812461871108));
#199 = CARTESIAN_POINT('',(-5.196262144465,-0.8265650789));
#200 = CARTESIAN_POINT('',(-5.205352344798,-0.870682946152));
#201 = CARTESIAN_POINT('',(-5.211920995809,-0.899276739967));
#202 = CARTESIAN_POINT('',(-5.218777422195,-0.925933620139));
#203 = CARTESIAN_POINT('',(-5.225897688351,-0.950531193216));
#204 = CARTESIAN_POINT('',(-5.233255272346,-0.972973952671));
#205 = CARTESIAN_POINT('',(-5.251090900247,-1.020637121927));
#206 = CARTESIAN_POINT('',(-5.26173672315,-1.043964027325));
#207 = CARTESIAN_POINT('',(-5.272688355982,-1.063022118563));
#208 = CARTESIAN_POINT('',(-5.283869504672,-1.077747397402));
#209 = CARTESIAN_POINT('',(-5.2951992825,-1.088164569567));
#210 = CARTESIAN_POINT('',(-5.312616136173,-1.097676934808));
#211 = CARTESIAN_POINT('',(-5.318658731632,-1.099795440975));
#212 = CARTESIAN_POINT('',(-5.324711723122,-1.100760278718));
#213 = CARTESIAN_POINT('',(-5.3307657505,-1.100591937057));
#214 = CARTESIAN_POINT('',(-5.336811444578,-1.099314137923));
#215 = CARTESIAN_POINT('',(-5.361744008642,-1.089551605525));
#216 = CARTESIAN_POINT('',(-5.380435214375,-1.071518046534));
#217 = CARTESIAN_POINT('',(-5.398728971945,-1.043726715736));
#218 = CARTESIAN_POINT('',(-5.416456867997,-1.006956952067));
#219 = CARTESIAN_POINT('',(-5.433448700134,-0.961913937799));
#220 = CARTESIAN_POINT('',(-5.462913488574,-0.865362683078));
#221 = CARTESIAN_POINT('',(-5.475690622178,-0.816111535235));
#222 = CARTESIAN_POINT('',(-5.48775882573,-0.761780902868));
#223 = CARTESIAN_POINT('',(-5.499007990501,-0.702612500476));
#224 = CARTESIAN_POINT('',(-5.509307876617,-0.638823103241));
#225 = CARTESIAN_POINT('',(-5.518503257237,-0.570628702389));
#226 = ( GEOMETRIC_REPRESENTATION_CONTEXT(2) 
PARAMETRIC_REPRESENTATION_CONTEXT() REPRESENTATION_CONTEXT('2D SPACE',''
  ) );
#227 = PCURVE('',#228,#233);
#228 = CYLINDRICAL_SURFACE('',#229,1.1);
#229 = AXIS2_PLACEMENT_3D('',#230,#231,#232);
#230 = CARTESIAN_POINT('',(3.75,0.,2.));
#231 = DIRECTION('',(-0.,-0.,-1.));
#232 = DIRECTION('',(1.,0.,0.));
#233 = DEFINITIONAL_REPRESENTATION('',(#234),#277);
#234 = B_SPLINE_CURVE_WITH_KNOTS('',6,(#235,#236,#237,#238,#239,#240,
    #241,#242,#243,#244,#245,#246,#247,#248,#249,#250,#251,#252,#253,
    #254,#255,#256,#257,#258,#259,#260,#261,#262,#263,#264,#265,#266,
    #267,#268,#269,#270,#271,#272,#273,#274,#275,#276),.UNSPECIFIED.,.F.
  ,.F.,(7,5,5,5,5,5,5,5,7),(0.,0.204494513135,0.283147233119,
    0.325505638292,0.419195023122,0.546356326355,0.613573535778,
    0.824375940405,1.),.UNSPECIFIED.);
#235 = CARTESIAN_POINT('',(-3.141592108135,-2.064724100768));
#236 = CARTESIAN_POINT('',(-3.230849943728,-2.064724076857));
#237 = CARTESIAN_POINT('',(-3.320194500394,-2.069419678824));
#238 = CARTESIAN_POINT('',(-3.409806566795,-2.07882690127));
#239 = CARTESIAN_POINT('',(-3.499863502899,-2.093083688262));
#240 = CARTESIAN_POINT('',(-3.59056418711,-2.112442874823));
#241 = CARTESIAN_POINT('',(-3.717381241238,-2.146812268518));
#242 = CARTESIAN_POINT('',(-3.752724250949,-2.157163183952));
#243 = CARTESIAN_POINT('',(-3.78817493179,-2.168331225235));
#244 = CARTESIAN_POINT('',(-3.823726962831,-2.180328637433));
#245 = CARTESIAN_POINT('',(-3.859375762966,-2.193166560181));
#246 = CARTESIAN_POINT('',(-3.914367729243,-2.214226948869));
#247 = CARTESIAN_POINT('',(-3.933641966583,-2.221844658606));
#248 = CARTESIAN_POINT('',(-3.952939216294,-2.229709058521));
#249 = CARTESIAN_POINT('',(-3.972257108803,-2.237820492878));
#250 = CARTESIAN_POINT('',(-3.991592891608,-2.246178748577));
#251 = CARTESIAN_POINT('',(-4.053743434675,-2.273814276619));
#252 = CARTESIAN_POINT('',(-4.096626773757,-2.29405408522));
#253 = CARTESIAN_POINT('',(-4.139543814875,-2.315487593374));
#254 = CARTESIAN_POINT('',(-4.182450574487,-2.338087960665));
#255 = CARTESIAN_POINT('',(-4.225306011149,-2.361814416214));
#256 = CARTESIAN_POINT('',(-4.32611045223,-2.420264835336));
#257 = CARTESIAN_POINT('',(-4.383936998251,-2.455863268554));
#258 = CARTESIAN_POINT('',(-4.441460250402,-2.493266089549));
#259 = CARTESIAN_POINT('',(-4.498596168062,-2.532284052474));
#260 = CARTESIAN_POINT('',(-4.555254593166,-2.572674467207));
#261 = CARTESIAN_POINT('',(-4.640969002862,-2.636054790751));
#262 = CARTESIAN_POINT('',(-4.670455043971,-2.658278387919));
#263 = CARTESIAN_POINT('',(-4.6997858923,-2.680775691175));
#264 = CARTESIAN_POINT('',(-4.728959971929,-2.70351162052));
#265 = CARTESIAN_POINT('',(-4.757974828261,-2.726448626043));
#266 = CARTESIAN_POINT('',(-4.877311904496,-2.821985383718));
#267 = CARTESIAN_POINT('',(-4.966010148252,-2.895858211836));
#268 = CARTESIAN_POINT('',(-5.053324380287,-2.970317678927));
#269 = CARTESIAN_POINT('',(-5.139582920829,-3.044435879115));
#270 = CARTESIAN_POINT('',(-5.225095914592,-3.117182763675));
#271 = CARTESIAN_POINT('',(-5.381051883654,-3.245917165724));
#272 = CARTESIAN_POINT('',(-5.451751559979,-3.302777032279));
#273 = CARTESIAN_POINT('',(-5.52252651206,-3.357379008423));
#274 = CARTESIAN_POINT('',(-5.593618048856,-3.409016004198));
#275 = CARTESIAN_POINT('',(-5.665278066801,-3.456870436529));
#276 = CARTESIAN_POINT('',(-5.737793184075,-3.5000006));
#277 = ( GEOMETRIC_REPRESENTATION_CONTEXT(2) 
PARAMETRIC_REPRESENTATION_CONTEXT() REPRESENTATION_CONTEXT('2D SPACE',''
  ) );
#278 = ORIENTED_EDGE('',*,*,#279,.F.);
#279 = EDGE_CURVE('',#280,#135,#282,.T.);
#280 = VERTEX_POINT('',#281);
#281 = CARTESIAN_POINT('',(-2.65,0.,4.064724100768));
#282 = SURFACE_CURVE('',#283,(#288,#295),.PCURVE_S1.);
#283 = CIRCLE('',#284,6.5);
#284 = AXIS2_PLACEMENT_3D('',#285,#286,#287);
#285 = CARTESIAN_POINT('',(0.,0.,10.));
#286 = DIRECTION('',(0.,-1.,0.));
#287 = DIRECTION('',(1.,0.,0.));
#288 = PCURVE('',#32,#289);
#289 = DEFINITIONAL_REPRESENTATION('',(#290),#294);
#290 = LINE('',#291,#292);
#291 = CARTESIAN_POINT('',(-0.,0.));
#292 = VECTOR('',#293,1.);
#293 = DIRECTION('',(-1.,0.));
#294 = ( GEOMETRIC_REPRESENTATION_CONTEXT(2) 
PARAMETRIC_REPRESENTATION_CONTEXT() REPRESENTATION_CONTEXT('2D SPACE',''
  ) );
#295 = PCURVE('',#96,#296);
#296 = DEFINITIONAL_REPRESENTATION('',(#297),#301);
#297 = LINE('',#298,#299);
#298 = CARTESIAN_POINT('',(0.,0.));
#299 = VECTOR('',#300,1.);
#300 = DIRECTION('',(1.,0.));
#301 = ( GEOMETRIC_REPRESENTATION_CONTEXT(2) 
PARAMETRIC_REPRESENTATION_CONTEXT() REPRESENTATION_CONTEXT('2D SPACE',''
  ) );
#302 = ORIENTED_EDGE('',*,*,#303,.F.);
#303 = EDGE_CURVE('',#304,#280,#306,.T.);
#304 = VERTEX_POINT('',#305);
#305 = CARTESIAN_POINT('',(-4.690415759823,-0.570629651066,5.5));
#306 = SURFACE_CURVE('',#307,(#345,#386),.PCURVE_S1.);
#307 = B_SPLINE_CURVE_WITH_KNOTS('',6,(#308,#309,#310,#311,#312,#313,
    #314,#315,#316,#317,#318,#319,#320,#321,#322,#323,#324,#325,#326,
    #327,#328,#329,#330,#331,#332,#333,#334,#335,#336,#337,#338,#339,
    #340,#341,#342,#343,#344),.UNSPECIFIED.,.F.,.F.,(7,5,5,5,5,5,5,7),(
    0.,0.177865057939,0.320741422146,0.454629815269,0.582233563342,
    0.703613608919,0.771143245587,1.),.UNSPECIFIED.);
#308 = CARTESIAN_POINT('',(-4.690416335465,-0.570628702389,5.5000006));
#309 = CARTESIAN_POINT('',(-4.648479242648,-0.6397425184,5.456288944125)
  );
#310 = CARTESIAN_POINT('',(-4.600949118263,-0.704330837508,
    5.407725334619));
#311 = CARTESIAN_POINT('',(-4.548334214578,-0.764169537922,
    5.355290070174));
#312 = CARTESIAN_POINT('',(-4.491050369058,-0.819033590014,5.29983191999
    ));
#313 = CARTESIAN_POINT('',(-4.429453425557,-0.868671017221,
    5.242083155634));
#314 = CARTESIAN_POINT('',(-4.311190791859,-0.948206424128,
    5.134952557135));
#315 = CARTESIAN_POINT('',(-4.255905455313,-0.980088981318,
    5.086129828785));
#316 = CARTESIAN_POINT('',(-4.198194147638,-1.00824659776,5.036545396261
    ));
#317 = CARTESIAN_POINT('',(-4.138241829766,-1.032478468405,4.98651384185
    ));
#318 = CARTESIAN_POINT('',(-4.076247603813,-1.052559101878,
    4.936326922624));
#319 = CARTESIAN_POINT('',(-3.952631631007,-1.082927691193,
    4.839333281077));
#320 = CARTESIAN_POINT('',(-3.89119897045,-1.093759996349,4.792486687416
    ));
#321 = CARTESIAN_POINT('',(-3.82843915661,-1.10048674548,4.746037709809)
  );
#322 = CARTESIAN_POINT('',(-3.764685293857,-1.102893218685,
    4.700281356327));
#323 = CARTESIAN_POINT('',(-3.70029950304,-1.100796065879,4.655483029296
    ));
#324 = CARTESIAN_POINT('',(-3.574081154728,-1.087606368557,4.57031633039
    ));
#325 = CARTESIAN_POINT('',(-3.512281095784,-1.076941745497,
    4.529845691636));
#326 = CARTESIAN_POINT('',(-3.450761002627,-1.061935734971,
    4.490767108081));
#327 = CARTESIAN_POINT('',(-3.390017352827,-1.042566236544,
    4.453325073772));
#328 = CARTESIAN_POINT('',(-3.330540599758,-1.018901691479,
    4.417709651458));
#329 = CARTESIAN_POINT('',(-3.21787615464,-0.964655491044,4.352052210582
    ));
#330 = CARTESIAN_POINT('',(-3.164576385337,-0.93449315691,4.32185418619)
  );
#331 = CARTESIAN_POINT('',(-3.11329900722,-0.90076431175,4.293580493573)
  );
#332 = CARTESIAN_POINT('',(-3.064418512863,-0.863691635003,
    4.267302580389));
#333 = CARTESIAN_POINT('',(-3.018269881459,-0.823568282458,
    4.243056287513));
#334 = CARTESIAN_POINT('',(-2.951133249885,-0.756938041463,
    4.208494051074));
#335 = CARTESIAN_POINT('',(-2.928060061385,-0.732281765084,
    4.196767263678));
#336 = CARTESIAN_POINT('',(-2.905950820612,-0.70683792999,4.185664457137
    ));
#337 = CARTESIAN_POINT('',(-2.8848394181,-0.680659910488,4.175180384365)
  );
#338 = CARTESIAN_POINT('',(-2.864755863276,-0.653804082419,
    4.165308762537));
#339 = CARTESIAN_POINT('',(-2.781235375551,-0.533220040327,
    4.124638302839));
#340 = CARTESIAN_POINT('',(-2.728993671332,-0.433217087343,
    4.100255607605));
#341 = CARTESIAN_POINT('',(-2.68952067732,-0.328133274152,4.082369317218
    ));
#342 = CARTESIAN_POINT('',(-2.663147776613,-0.219737116629,
    4.070594386448));
#343 = CARTESIAN_POINT('',(-2.65,-0.109781805031,4.064724100768));
#344 = CARTESIAN_POINT('',(-2.65,-2.22044604925E-16,4.064724100768));
#345 = PCURVE('',#32,#346);
#346 = DEFINITIONAL_REPRESENTATION('',(#347),#385);
#347 = B_SPLINE_CURVE_WITH_KNOTS('',6,(#348,#349,#350,#351,#352,#353,
    #354,#355,#356,#357,#358,#359,#360,#361,#362,#363,#364,#365,#366,
    #367,#368,#369,#370,#371,#372,#373,#374,#375,#376,#377,#378,#379,
    #380,#381,#382,#383,#384),.UNSPECIFIED.,.F.,.F.,(7,5,5,5,5,5,5,7),(
    0.,0.177865057939,0.320741422146,0.454629815269,0.582233563342,
    0.703613608919,0.771143245587,1.),.UNSPECIFIED.);
#348 = CARTESIAN_POINT('',(-3.906274703532,-0.570628702389));
#349 = CARTESIAN_POINT('',(-3.915594058734,-0.6397425184));
#350 = CARTESIAN_POINT('',(-3.926047780437,-0.704330837508));
#351 = CARTESIAN_POINT('',(-3.937474284759,-0.764169537922));
#352 = CARTESIAN_POINT('',(-3.949738454012,-0.819033590014));
#353 = CARTESIAN_POINT('',(-3.96272638064,-0.868671017221));
#354 = CARTESIAN_POINT('',(-3.987275819064,-0.948206424128));
#355 = CARTESIAN_POINT('',(-3.998622179884,-0.980088981318));
#356 = CARTESIAN_POINT('',(-4.010326161528,-1.00824659776));
#357 = CARTESIAN_POINT('',(-4.022337459624,-1.032478468405));
#358 = CARTESIAN_POINT('',(-4.034607142541,-1.052559101878));
#359 = CARTESIAN_POINT('',(-4.058780419994,-1.082927691193));
#360 = CARTESIAN_POINT('',(-4.070664912629,-1.093759996349));
#361 = CARTESIAN_POINT('',(-4.082675147958,-1.10048674548));
#362 = CARTESIAN_POINT('',(-4.094746160243,-1.102893218685));
#363 = CARTESIAN_POINT('',(-4.106812210649,-1.100796065879));
#364 = CARTESIAN_POINT('',(-4.130237498181,-1.087606368557));
#365 = CARTESIAN_POINT('',(-4.141601381277,-1.076941745497));
#366 = CARTESIAN_POINT('',(-4.152812490182,-1.061935734971));
#367 = CARTESIAN_POINT('',(-4.16378893293,-1.042566236544));
#368 = CARTESIAN_POINT('',(-4.174453556298,-1.018901691479));
#369 = CARTESIAN_POINT('',(-4.194515104632,-0.964655491044));
#370 = CARTESIAN_POINT('',(-4.203939011723,-0.93449315691));
#371 = CARTESIAN_POINT('',(-4.21294674734,-0.90076431175));
#372 = CARTESIAN_POINT('',(-4.221483999237,-0.863691635003));
#373 = CARTESIAN_POINT('',(-4.229503789017,-0.823568282458));
#374 = CARTESIAN_POINT('',(-4.24112082964,-0.756938041463));
#375 = CARTESIAN_POINT('',(-4.24510265871,-0.732281765084));
#376 = CARTESIAN_POINT('',(-4.248908820203,-0.70683792999));
#377 = CARTESIAN_POINT('',(-4.252535127542,-0.680659910488));
#378 = CARTESIAN_POINT('',(-4.255977955016,-0.653804082419));
#379 = CARTESIAN_POINT('',(-4.270269722963,-0.533220040327));
#380 = CARTESIAN_POINT('',(-4.27913799904,-0.433217087343));
#381 = CARTESIAN_POINT('',(-4.285805000849,-0.328133274152));
#382 = CARTESIAN_POINT('',(-4.290248419151,-0.219737116629));
#383 = CARTESIAN_POINT('',(-4.292463610827,-0.109781805031));
#384 = CARTESIAN_POINT('',(-4.292463610827,-2.22044604925E-16));
#385 = ( GEOMETRIC_REPRESENTATION_CONTEXT(2) 
PARAMETRIC_REPRESENTATION_CONTEXT() REPRESENTATION_CONTEXT('2D SPACE',''
  ) );
#386 = PCURVE('',#387,#392);
#387 = CYLINDRICAL_SURFACE('',#388,1.1);
#388 = AXIS2_PLACEMENT_3D('',#389,#390,#391);
#389 = CARTESIAN_POINT('',(-3.75,0.,2.));
#390 = DIRECTION('',(-0.,-0.,-1.));
#391 = DIRECTION('',(1.,0.,0.));
#392 = DEFINITIONAL_REPRESENTATION('',(#393),#431);
#393 = B_SPLINE_CURVE_WITH_KNOTS('',6,(#394,#395,#396,#397,#398,#399,
    #400,#401,#402,#403,#404,#405,#406,#407,#408,#409,#410,#411,#412,
    #413,#414,#415,#416,#417,#418,#419,#420,#421,#422,#423,#424,#425,
    #426,#427,#428,#429,#430),.UNSPECIFIED.,.F.,.F.,(7,5,5,5,5,5,5,7),(
    0.,0.177865057939,0.320741422146,0.454629815269,0.582233563342,
    0.703613608919,0.771143245587,1.),.UNSPECIFIED.);
#394 = CARTESIAN_POINT('',(-3.686984776695,-3.5000006));
#395 = CARTESIAN_POINT('',(-3.760477562181,-3.456288944125));
#396 = CARTESIAN_POINT('',(-3.833091067276,-3.407725334619));
#397 = CARTESIAN_POINT('',(-3.905124218346,-3.355290070174));
#398 = CARTESIAN_POINT('',(-3.976839389629,-3.29983191999));
#399 = CARTESIAN_POINT('',(-4.048488104794,-3.242083155634));
#400 = CARTESIAN_POINT('',(-4.178051680818,-3.134952557135));
#401 = CARTESIAN_POINT('',(-4.23593174516,-3.086129828785));
#402 = CARTESIAN_POINT('',(-4.29409839094,-3.036545396261));
#403 = CARTESIAN_POINT('',(-4.35266575174,-2.98651384185));
#404 = CARTESIAN_POINT('',(-4.411752025442,-2.936326922624));
#405 = CARTESIAN_POINT('',(-4.527471692227,-2.839333281077));
#406 = CARTESIAN_POINT('',(-4.584056194779,-2.792486687416));
#407 = CARTESIAN_POINT('',(-4.641238058313,-2.746037709809));
#408 = CARTESIAN_POINT('',(-4.699025575932,-2.700281356327));
#409 = CARTESIAN_POINT('',(-4.757439371521,-2.655483029296));
#410 = CARTESIAN_POINT('',(-4.872808128361,-2.57031633039));
#411 = CARTESIAN_POINT('',(-4.929693408687,-2.529845691636));
#412 = CARTESIAN_POINT('',(-4.987056841081,-2.490767108081));
#413 = CARTESIAN_POINT('',(-5.04480640265,-2.453325073772));
#414 = CARTESIAN_POINT('',(-5.102856099174,-2.417709651458));
#415 = CARTESIAN_POINT('',(-5.216532192067,-2.352052210582));
#416 = CARTESIAN_POINT('',(-5.272085111074,-2.32185418619));
#417 = CARTESIAN_POINT('',(-5.327693998799,-2.293580493573));
#418 = CARTESIAN_POINT('',(-5.38327904096,-2.267302580389));
#419 = CARTESIAN_POINT('',(-5.438750931142,-2.243056287513));
#420 = CARTESIAN_POINT('',(-5.524740149734,-2.208494051074));
#421 = CARTESIAN_POINT('',(-5.555417620777,-2.196767263678));
#422 = CARTESIAN_POINT('',(-5.586029953425,-2.185664457137));
#423 = CARTESIAN_POINT('',(-5.616572123434,-2.175180384365));
#424 = CARTESIAN_POINT('',(-5.647038083652,-2.165308762537));
#425 = CARTESIAN_POINT('',(-5.780387134961,-2.124638302839));
#426 = CARTESIAN_POINT('',(-5.882164648825,-2.100255607605));
#427 = CARTESIAN_POINT('',(-5.983093703911,-2.082369317218));
#428 = CARTESIAN_POINT('',(-6.083424104329,-2.070594386448));
#429 = CARTESIAN_POINT('',(-6.183383666242,-2.064724100768));
#430 = CARTESIAN_POINT('',(-6.28318530718,-2.064724100768));
#431 = ( GEOMETRIC_REPRESENTATION_CONTEXT(2) 
PARAMETRIC_REPRESENTATION_CONTEXT() REPRESENTATION_CONTEXT('2D SPACE',''
  ) );
#432 = ORIENTED_EDGE('',*,*,#433,.T.);
#433 = EDGE_CURVE('',#304,#434,#436,.T.);
#434 = VERTEX_POINT('',#435);
#435 = CARTESIAN_POINT('',(-4.690415759823,0.,5.5));
#436 = SURFACE_CURVE('',#437,(#441,#447),.PCURVE_S1.);
#437 = LINE('',#438,#439);
#438 = CARTESIAN_POINT('',(-4.690415759823,0.,5.5));
#439 = VECTOR('',#440,1.);
#440 = DIRECTION('',(-0.,1.,-0.));
#441 = PCURVE('',#32,#442);
#442 = DEFINITIONAL_REPRESENTATION('',(#443),#446);
#443 = B_SPLINE_CURVE_WITH_KNOTS('',1,(#444,#445),.UNSPECIFIED.,.F.,.F.,
  (2,2),(-1.32,6.E-07),.PIECEWISE_BEZIER_KNOTS.);
#444 = CARTESIAN_POINT('',(-3.906274831452,-1.32));
#445 = CARTESIAN_POINT('',(-3.906274831452,6.E-07));
#446 = ( GEOMETRIC_REPRESENTATION_CONTEXT(2) 
PARAMETRIC_REPRESENTATION_CONTEXT() REPRESENTATION_CONTEXT('2D SPACE',''
  ) );
#447 = PCURVE('',#448,#453);
#448 = PLANE('',#449);
#449 = AXIS2_PLACEMENT_3D('',#450,#451,#452);
#450 = CARTESIAN_POINT('',(-3.75,-6.055984930685E-18,5.5));
#451 = DIRECTION('',(0.,0.,1.));
#452 = DIRECTION('',(1.,0.,-0.));
#453 = DEFINITIONAL_REPRESENTATION('',(#454),#457);
#454 = B_SPLINE_CURVE_WITH_KNOTS('',1,(#455,#456),.UNSPECIFIED.,.F.,.F.,
  (2,2),(-1.32,6.E-07),.PIECEWISE_BEZIER_KNOTS.);
#455 = CARTESIAN_POINT('',(-0.940415759823,-1.32));
#456 = CARTESIAN_POINT('',(-0.940415759823,6.000000000061E-07));
#457 = ( GEOMETRIC_REPRESENTATION_CONTEXT(2) 
PARAMETRIC_REPRESENTATION_CONTEXT() REPRESENTATION_CONTEXT('2D SPACE',''
  ) );
#458 = ORIENTED_EDGE('',*,*,#459,.F.);
#459 = EDGE_CURVE('',#22,#434,#460,.T.);
#460 = SURFACE_CURVE('',#461,(#466,#473),.PCURVE_S1.);
#461 = CIRCLE('',#462,6.5);
#462 = AXIS2_PLACEMENT_3D('',#463,#464,#465);
#463 = CARTESIAN_POINT('',(0.,0.,10.));
#464 = DIRECTION('',(0.,-1.,0.));
#465 = DIRECTION('',(1.,0.,0.));
#466 = PCURVE('',#32,#467);
#467 = DEFINITIONAL_REPRESENTATION('',(#468),#472);
#468 = LINE('',#469,#470);
#469 = CARTESIAN_POINT('',(-0.,0.));
#470 = VECTOR('',#471,1.);
#471 = DIRECTION('',(-1.,0.));
#472 = ( GEOMETRIC_REPRESENTATION_CONTEXT(2) 
PARAMETRIC_REPRESENTATION_CONTEXT() REPRESENTATION_CONTEXT('2D SPACE',''
  ) );
#473 = PCURVE('',#96,#474);
#474 = DEFINITIONAL_REPRESENTATION('',(#475),#479);
#475 = LINE('',#476,#477);
#476 = CARTESIAN_POINT('',(0.,0.));
#477 = VECTOR('',#478,1.);
#478 = DIRECTION('',(1.,0.));
#479 = ( GEOMETRIC_REPRESENTATION_CONTEXT(2) 
PARAMETRIC_REPRESENTATION_CONTEXT() REPRESENTATION_CONTEXT('2D SPACE',''
  ) );
#480 = ADVANCED_FACE('',(#481),#96,.T.);
#481 = FACE_BOUND('',#482,.T.);
#482 = EDGE_LOOP('',(#483,#506,#533,#534,#535,#556,#670,#671,#811,#830)
  );
#483 = ORIENTED_EDGE('',*,*,#484,.T.);
#484 = EDGE_CURVE('',#22,#485,#487,.T.);
#485 = VERTEX_POINT('',#486);
#486 = CARTESIAN_POINT('',(6.5,1.6,10.));
#487 = SEAM_CURVE('',#488,(#492,#499),.PCURVE_S1.);
#488 = LINE('',#489,#490);
#489 = CARTESIAN_POINT('',(6.5,0.,10.));
#490 = VECTOR('',#491,1.);
#491 = DIRECTION('',(-0.,1.,-0.));
#492 = PCURVE('',#96,#493);
#493 = DEFINITIONAL_REPRESENTATION('',(#494),#498);
#494 = LINE('',#495,#496);
#495 = CARTESIAN_POINT('',(0.,0.));
#496 = VECTOR('',#497,1.);
#497 = DIRECTION('',(0.,-1.));
#498 = ( GEOMETRIC_REPRESENTATION_CONTEXT(2) 
PARAMETRIC_REPRESENTATION_CONTEXT() REPRESENTATION_CONTEXT('2D SPACE',''
  ) );
#499 = PCURVE('',#96,#500);
#500 = DEFINITIONAL_REPRESENTATION('',(#501),#505);
#501 = LINE('',#502,#503);
#502 = CARTESIAN_POINT('',(6.28318530718,0.));
#503 = VECTOR('',#504,1.);
#504 = DIRECTION('',(0.,-1.));
#505 = ( GEOMETRIC_REPRESENTATION_CONTEXT(2) 
PARAMETRIC_REPRESENTATION_CONTEXT() REPRESENTATION_CONTEXT('2D SPACE',''
  ) );
#506 = ORIENTED_EDGE('',*,*,#507,.T.);
#507 = EDGE_CURVE('',#485,#485,#508,.T.);
#508 = SURFACE_CURVE('',#509,(#514,#521),.PCURVE_S1.);
#509 = CIRCLE('',#510,6.5);
#510 = AXIS2_PLACEMENT_3D('',#511,#512,#513);
#511 = CARTESIAN_POINT('',(0.,1.6,10.));
#512 = DIRECTION('',(0.,-1.,-0.));
#513 = DIRECTION('',(1.,0.,0.));
#514 = PCURVE('',#96,#515);
#515 = DEFINITIONAL_REPRESENTATION('',(#516),#520);
#516 = LINE('',#517,#518);
#517 = CARTESIAN_POINT('',(0.,-1.6));
#518 = VECTOR('',#519,1.);
#519 = DIRECTION('',(1.,0.));
#520 = ( GEOMETRIC_REPRESENTATION_CONTEXT(2) 
PARAMETRIC_REPRESENTATION_CONTEXT() REPRESENTATION_CONTEXT('2D SPACE',''
  ) );
#521 = PCURVE('',#522,#527);
#522 = TOROIDAL_SURFACE('',#523,5.7,0.8);
#523 = AXIS2_PLACEMENT_3D('',#524,#525,#526);
#524 = CARTESIAN_POINT('',(0.,1.6,10.));
#525 = DIRECTION('',(-0.,1.,0.));
#526 = DIRECTION('',(1.,0.,0.));
#527 = DEFINITIONAL_REPRESENTATION('',(#528),#532);
#528 = LINE('',#529,#530);
#529 = CARTESIAN_POINT('',(-0.,0.));
#530 = VECTOR('',#531,1.);
#531 = DIRECTION('',(-1.,0.));
#532 = ( GEOMETRIC_REPRESENTATION_CONTEXT(2) 
PARAMETRIC_REPRESENTATION_CONTEXT() REPRESENTATION_CONTEXT('2D SPACE',''
  ) );
#533 = ORIENTED_EDGE('',*,*,#484,.F.);
#534 = ORIENTED_EDGE('',*,*,#79,.F.);
#535 = ORIENTED_EDGE('',*,*,#536,.F.);
#536 = EDGE_CURVE('',#537,#80,#539,.T.);
#537 = VERTEX_POINT('',#538);
#538 = CARTESIAN_POINT('',(4.690415759823,0.570629651066,5.5));
#539 = SURFACE_CURVE('',#540,(#544,#550),.PCURVE_S1.);
#540 = LINE('',#541,#542);
#541 = CARTESIAN_POINT('',(4.690415759823,0.,5.5));
#542 = VECTOR('',#543,1.);
#543 = DIRECTION('',(0.,-1.,0.));
#544 = PCURVE('',#96,#545);
#545 = DEFINITIONAL_REPRESENTATION('',(#546),#549);
#546 = B_SPLINE_CURVE_WITH_KNOTS('',1,(#547,#548),.UNSPECIFIED.,.F.,.F.,
  (2,2),(-1.32,6.00000000222E-07),.PIECEWISE_BEZIER_KNOTS.);
#547 = CARTESIAN_POINT('',(5.518503129317,-1.32));
#548 = CARTESIAN_POINT('',(5.518503129317,6.00000000222E-07));
#549 = ( GEOMETRIC_REPRESENTATION_CONTEXT(2) 
PARAMETRIC_REPRESENTATION_CONTEXT() REPRESENTATION_CONTEXT('2D SPACE',''
  ) );
#550 = PCURVE('',#123,#551);
#551 = DEFINITIONAL_REPRESENTATION('',(#552),#555);
#552 = B_SPLINE_CURVE_WITH_KNOTS('',1,(#553,#554),.UNSPECIFIED.,.F.,.F.,
  (2,2),(-1.32,6.00000000222E-07),.PIECEWISE_BEZIER_KNOTS.);
#553 = CARTESIAN_POINT('',(0.940415759823,1.32));
#554 = CARTESIAN_POINT('',(0.940415759823,-6.00000000216E-07));
#555 = ( GEOMETRIC_REPRESENTATION_CONTEXT(2) 
PARAMETRIC_REPRESENTATION_CONTEXT() REPRESENTATION_CONTEXT('2D SPACE',''
  ) );
#556 = ORIENTED_EDGE('',*,*,#557,.T.);
#557 = EDGE_CURVE('',#537,#135,#558,.T.);
#558 = SURFACE_CURVE('',#559,(#594,#632),.PCURVE_S1.);
#559 = B_SPLINE_CURVE_WITH_KNOTS('',5,(#560,#561,#562,#563,#564,#565,
    #566,#567,#568,#569,#570,#571,#572,#573,#574,#575,#576,#577,#578,
    #579,#580,#581,#582,#583,#584,#585,#586,#587,#588,#589,#590,#591,
    #592,#593),.UNSPECIFIED.,.F.,.F.,(6,4,4,4,4,4,4,4,6),(0.,
    0.17787942897,0.320767337213,0.454666548209,0.582280606405,
    0.703670459242,0.771205552166,0.95257253131,1.),.UNSPECIFIED.);
#560 = CARTESIAN_POINT('',(4.690416335465,0.570628702389,5.5000006));
#561 = CARTESIAN_POINT('',(4.640091824085,0.653565281602,5.44754661295)
  );
#562 = CARTESIAN_POINT('',(4.581377765352,0.729713615461,5.387814695454)
  );
#563 = CARTESIAN_POINT('',(4.515290663803,0.798625460383,5.322765444894)
  );
#564 = CARTESIAN_POINT('',(4.442569779568,0.859849849277,5.253964870182)
  );
#565 = CARTESIAN_POINT('',(4.30065461913,0.955292337565,5.125408151983)
  );
#566 = CARTESIAN_POINT('',(4.233530873404,0.992487303194,5.066490667186)
  );
#567 = CARTESIAN_POINT('',(4.162857421871,1.024005892326,5.006600125337)
  );
#568 = CARTESIAN_POINT('',(4.089010645555,1.049423620562,4.946341274877)
  );
#569 = CARTESIAN_POINT('',(3.940671478165,1.085865927745,4.829948905003)
  );
#570 = CARTESIAN_POINT('',(3.866462716598,1.097707030646,4.773755578628)
  );
#571 = CARTESIAN_POINT('',(3.79041559666,1.103266460312,4.718319841018)
  );
#572 = CARTESIAN_POINT('',(3.713224688274,1.10214673544,4.664204386958)
  );
#573 = CARTESIAN_POINT('',(3.56176267032,1.086319098655,4.562004348284)
  );
#574 = CARTESIAN_POINT('',(3.487540308515,1.072253068918,4.513766363312)
  );
#575 = CARTESIAN_POINT('',(3.413981696739,1.051618401024,4.467767852851)
  );
#576 = CARTESIAN_POINT('',(3.342088665004,1.024461907582,4.424439515616)
  );
#577 = CARTESIAN_POINT('',(3.206891330862,0.95936646706,4.345650586566)
  );
#578 = CARTESIAN_POINT('',(3.143418912575,0.922056501835,4.309955986003)
  );
#579 = CARTESIAN_POINT('',(3.083179101865,0.879472121665,4.277205001143)
  );
#580 = CARTESIAN_POINT('',(3.026897334857,0.832130661678,4.247497738883)
  );
#581 = CARTESIAN_POINT('',(2.946333376968,0.752174372484,4.206023055155)
  );
#582 = CARTESIAN_POINT('',(2.918923403593,0.722335461384,4.19213936794)
  );
#583 = CARTESIAN_POINT('',(2.89297823763,0.691340398597,4.179189546334)
  );
#584 = CARTESIAN_POINT('',(2.86856177904,0.659298934271,4.167162060428)
  );
#585 = CARTESIAN_POINT('',(2.784401060921,0.537790549292,4.126179839327)
  );
#586 = CARTESIAN_POINT('',(2.734567386522,0.442691782965,4.102908823306)
  );
#587 = CARTESIAN_POINT('',(2.696810122503,0.342866254207,4.085740006947)
  );
#588 = CARTESIAN_POINT('',(2.671443836805,0.240133159576,4.07432791152)
  );
#589 = CARTESIAN_POINT('',(2.65508784982,0.109160371295,4.066997192458)
  );
#590 = CARTESIAN_POINT('',(2.652544116346,8.192614376582E-02,
    4.065860005472));
#591 = CARTESIAN_POINT('',(2.65084801746,5.463585748834E-02,
    4.065102726292));
#592 = CARTESIAN_POINT('',(2.649999986031,2.731766569153E-02,
    4.064724094531));
#593 = CARTESIAN_POINT('',(2.65,-5.625000007988E-07,4.064724100768));
#594 = PCURVE('',#96,#595);
#595 = DEFINITIONAL_REPRESENTATION('',(#596),#631);
#596 = B_SPLINE_CURVE_WITH_KNOTS('',5,(#597,#598,#599,#600,#601,#602,
    #603,#604,#605,#606,#607,#608,#609,#610,#611,#612,#613,#614,#615,
    #616,#617,#618,#619,#620,#621,#622,#623,#624,#625,#626,#627,#628,
    #629,#630),.UNSPECIFIED.,.F.,.F.,(6,4,4,4,4,4,4,4,6),(0.,
    0.17787942897,0.320767337213,0.454666548209,0.582280606405,
    0.703670459242,0.771205552166,0.95257253131,1.),.UNSPECIFIED.);
#597 = CARTESIAN_POINT('',(5.518503257237,-0.570628702389));
#598 = CARTESIAN_POINT('',(5.507320030995,-0.653565281602));
#599 = CARTESIAN_POINT('',(5.494435255001,-0.729713615461));
#600 = CARTESIAN_POINT('',(5.48017209702,-0.798625460383));
#601 = CARTESIAN_POINT('',(5.464774326233,-0.859849849277));
#602 = CARTESIAN_POINT('',(5.435315000124,-0.955292337565));
#603 = CARTESIAN_POINT('',(5.421576171267,-0.992487303194));
#604 = CARTESIAN_POINT('',(5.407327427217,-1.024005892326));
#605 = CARTESIAN_POINT('',(5.392666649003,-1.049423620562));
#606 = CARTESIAN_POINT('',(5.363658716055,-1.085865927745));
#607 = CARTESIAN_POINT('',(5.349340214185,-1.097707030646));
#608 = CARTESIAN_POINT('',(5.334865411445,-1.103266460312));
#609 = CARTESIAN_POINT('',(5.320364578694,-1.10214673544));
#610 = CARTESIAN_POINT('',(5.29225423366,-1.086319098655));
#611 = CARTESIAN_POINT('',(5.278637752408,-1.072253068918));
#612 = CARTESIAN_POINT('',(5.265293188766,-1.051618401024));
#613 = CARTESIAN_POINT('',(5.252380705986,-1.024461907582));
#614 = CARTESIAN_POINT('',(5.228306847985,-0.95936646706));
#615 = CARTESIAN_POINT('',(5.217104999578,-0.922056501835));
#616 = CARTESIAN_POINT('',(5.20655742728,-0.879472121665));
#617 = CARTESIAN_POINT('',(5.196767030036,-0.832130661678));
#618 = CARTESIAN_POINT('',(5.182826581289,-0.752174372484));
#619 = CARTESIAN_POINT('',(5.178099662445,-0.722335461384));
#620 = CARTESIAN_POINT('',(5.173638618688,-0.691340398597));
#621 = CARTESIAN_POINT('',(5.169451262306,-0.659298934271));
#622 = CARTESIAN_POINT('',(5.155049940111,-0.537790549292));
#623 = CARTESIAN_POINT('',(5.14658958328,-0.442691782965));
#624 = CARTESIAN_POINT('',(5.140208375136,-0.342866254207));
#625 = CARTESIAN_POINT('',(5.135929149968,-0.240133159576));
#626 = CARTESIAN_POINT('',(5.133171663108,-0.109160371295));
#627 = CARTESIAN_POINT('',(5.132742993218,-8.192614376582E-02));
#628 = CARTESIAN_POINT('',(5.132457227524,-5.463585748834E-02));
#629 = CARTESIAN_POINT('',(5.132314347588,-2.731766569153E-02));
#630 = CARTESIAN_POINT('',(5.132314349942,5.625000008003E-07));
#631 = ( GEOMETRIC_REPRESENTATION_CONTEXT(2) 
PARAMETRIC_REPRESENTATION_CONTEXT() REPRESENTATION_CONTEXT('2D SPACE',''
  ) );
#632 = PCURVE('',#228,#633);
#633 = DEFINITIONAL_REPRESENTATION('',(#634),#669);
#634 = B_SPLINE_CURVE_WITH_KNOTS('',5,(#635,#636,#637,#638,#639,#640,
    #641,#642,#643,#644,#645,#646,#647,#648,#649,#650,#651,#652,#653,
    #654,#655,#656,#657,#658,#659,#660,#661,#662,#663,#664,#665,#666,
    #667,#668),.UNSPECIFIED.,.F.,.F.,(6,4,4,4,4,4,4,4,6),(0.,
    0.17787942897,0.320767337213,0.454666548209,0.582280606405,
    0.703670459242,0.771205552166,0.95257253131,1.),.UNSPECIFIED.);
#635 = CARTESIAN_POINT('',(-0.545392123105,-3.5000006));
#636 = CARTESIAN_POINT('',(-0.633583465689,-3.44754661295));
#637 = CARTESIAN_POINT('',(-0.720455887685,-3.387814695454));
#638 = CARTESIAN_POINT('',(-0.806607241828,-3.322765444894));
#639 = CARTESIAN_POINT('',(-0.892525724461,-3.253964870182));
#640 = CARTESIAN_POINT('',(-1.048002015691,-3.125408151983));
#641 = CARTESIAN_POINT('',(-1.117507629509,-3.066490667186));
#642 = CARTESIAN_POINT('',(-1.187503845192,-3.006600125337));
#643 = CARTESIAN_POINT('',(-1.258211604067,-2.946341274877));
#644 = CARTESIAN_POINT('',(-1.39707520423,-2.829948905003));
#645 = CARTESIAN_POINT('',(-1.465157709664,-2.773755578628));
#646 = CARTESIAN_POINT('',(-1.534133099747,-2.718319841018));
#647 = CARTESIAN_POINT('',(-1.604032567514,-2.664204386958));
#648 = CARTESIAN_POINT('',(-1.742475075703,-2.562004348284));
#649 = CARTESIAN_POINT('',(-1.810913594794,-2.513766363312));
#650 = CARTESIAN_POINT('',(-1.880014780188,-2.467767852851));
#651 = CARTESIAN_POINT('',(-1.949611686804,-2.424439515616));
#652 = CARTESIAN_POINT('',(-2.086022998275,-2.345650586566));
#653 = CARTESIAN_POINT('',(-2.152727187089,-2.309955986003));
#654 = CARTESIAN_POINT('',(-2.219475503328,-2.277205001143));
#655 = CARTESIAN_POINT('',(-2.286108155454,-2.247497738883));
#656 = CARTESIAN_POINT('',(-2.389295217765,-2.206023055155));
#657 = CARTESIAN_POINT('',(-2.426089841898,-2.19213936794));
#658 = CARTESIAN_POINT('',(-2.462784757772,-2.179189546334));
#659 = CARTESIAN_POINT('',(-2.499368893989,-2.167162060428));
#660 = CARTESIAN_POINT('',(-2.63374013899,-2.126179839327));
#661 = CARTESIAN_POINT('',(-2.730606601043,-2.102908823306));
#662 = CARTESIAN_POINT('',(-2.826706399933,-2.085740006947));
#663 = CARTESIAN_POINT('',(-2.92223729996,-2.07432791152));
#664 = CARTESIAN_POINT('',(-3.042228310575,-2.066997192458));
#665 = CARTESIAN_POINT('',(-3.06708244387,-2.065860005472));
#666 = CARTESIAN_POINT('',(-3.0919236805,-2.065102726292));
#667 = CARTESIAN_POINT('',(-3.116758412052,-2.064724094531));
#668 = CARTESIAN_POINT('',(-3.141593164953,-2.064724100768));
#669 = ( GEOMETRIC_REPRESENTATION_CONTEXT(2) 
PARAMETRIC_REPRESENTATION_CONTEXT() REPRESENTATION_CONTEXT('2D SPACE',''
  ) );
#670 = ORIENTED_EDGE('',*,*,#279,.F.);
#671 = ORIENTED_EDGE('',*,*,#672,.T.);
#672 = EDGE_CURVE('',#280,#673,#675,.T.);
#673 = VERTEX_POINT('',#674);
#674 = CARTESIAN_POINT('',(-4.690415759823,0.570629651066,5.5));
#675 = SURFACE_CURVE('',#676,(#719,#765),.PCURVE_S1.);
#676 = B_SPLINE_CURVE_WITH_KNOTS('',6,(#677,#678,#679,#680,#681,#682,
    #683,#684,#685,#686,#687,#688,#689,#690,#691,#692,#693,#694,#695,
    #696,#697,#698,#699,#700,#701,#702,#703,#704,#705,#706,#707,#708,
    #709,#710,#711,#712,#713,#714,#715,#716,#717,#718),.UNSPECIFIED.,.F.
  ,.F.,(7,5,5,5,5,5,5,5,7),(0.,0.22893626342,0.296081638006,
    0.419419370172,0.507198119831,0.546559529619,0.613746630044,
    0.824454608717,1.),.UNSPECIFIED.);
#677 = CARTESIAN_POINT('',(-2.65,-2.694222958124E-16,4.064724100768));
#678 = CARTESIAN_POINT('',(-2.65,0.109807964632,4.064724100768));
#679 = CARTESIAN_POINT('',(-2.663154043451,0.219789714207,4.070597184577
    ));
#680 = CARTESIAN_POINT('',(-2.68953961998,0.328211219144,4.082377774473)
  );
#681 = CARTESIAN_POINT('',(-2.729031548117,0.43331789434,4.100272769408)
  );
#682 = CARTESIAN_POINT('',(-2.781298013489,0.533339858013,4.124667541011
    ));
#683 = CARTESIAN_POINT('',(-2.864742358083,0.653775938926,4.165302557904
    ));
#684 = CARTESIAN_POINT('',(-2.884707549529,0.680476927501,4.175115915937
    ));
#685 = CARTESIAN_POINT('',(-2.90568875348,0.706508095024,4.185534617075)
  );
#686 = CARTESIAN_POINT('',(-2.927656505993,0.731814048459,4.19656484551)
  );
#687 = CARTESIAN_POINT('',(-2.950577555089,0.756342324779,4.208211778076
    ));
#688 = CARTESIAN_POINT('',(-3.018201037231,0.82357931239,4.243014023894)
  );
#689 = CARTESIAN_POINT('',(-3.065099485824,0.864344374367,4.267653675701
    ));
#690 = CARTESIAN_POINT('',(-3.114817283194,0.901957710534,4.294390903188
    ));
#691 = CARTESIAN_POINT('',(-3.167002208097,0.936112136458,4.323187752107
    ));
#692 = CARTESIAN_POINT('',(-3.221260052163,0.966575768917,4.353968179215
    ));
#693 = CARTESIAN_POINT('',(-3.316964090793,1.012137433584,4.409841475878
    ));
#694 = CARTESIAN_POINT('',(-3.357575109281,1.029124327847,4.434004578454
    ));
#695 = CARTESIAN_POINT('',(-3.398848374961,1.044100168377,4.459051719389
    ));
#696 = CARTESIAN_POINT('',(-3.440621658448,1.057032393291,4.484923094478
    ));
#697 = CARTESIAN_POINT('',(-3.482729760404,1.067910127116,4.511546167814
    ));
#698 = CARTESIAN_POINT('',(-3.543965028852,1.080705641668,4.55107157215)
  );
#699 = CARTESIAN_POINT('',(-3.562958687924,1.084256435982,4.563443248219
    ));
#700 = CARTESIAN_POINT('',(-3.581974291621,1.087397799545,4.575942877581
    ));
#701 = CARTESIAN_POINT('',(-3.600998544519,1.090131594623,4.588563320009
    ));
#702 = CARTESIAN_POINT('',(-3.620018701159,1.092460398627,4.601297320597
    ));
#703 = CARTESIAN_POINT('',(-3.671460798964,1.097676934808,4.636054790751
    ));
#704 = CARTESIAN_POINT('',(-3.703847003895,1.099795440975,4.658278387919
    ));
#705 = CARTESIAN_POINT('',(-3.73612668068,1.100760278718,4.680775691175)
  );
#706 = CARTESIAN_POINT('',(-3.768246984112,1.100591937057,4.70351162052)
  );
#707 = CARTESIAN_POINT('',(-3.800156723935,1.099314137923,4.726448626043
    ));
#708 = CARTESIAN_POINT('',(-3.931063987507,1.089551605525,4.821985383718
    ));
#709 = CARTESIAN_POINT('',(-4.02755794913,1.071518046534,4.895858211836)
  );
#710 = CARTESIAN_POINT('',(-4.120327713267,1.043726715736,4.970317678927
    ));
#711 = CARTESIAN_POINT('',(-4.208608343232,1.006956952067,5.044435879115
    ));
#712 = CARTESIAN_POINT('',(-4.291737587029,0.961913937799,5.117182763675
    ));
#713 = CARTESIAN_POINT('',(-4.433539543989,0.865362683078,5.245917165724
    ));
#714 = CARTESIAN_POINT('',(-4.494090845312,0.816111535235,5.302777032279
    ));
#715 = CARTESIAN_POINT('',(-4.550429715934,0.761780902868,5.357379008423
    ));
#716 = CARTESIAN_POINT('',(-4.602212153223,0.702612500476,5.409016004198
    ));
#717 = CARTESIAN_POINT('',(-4.649037128192,0.638823103241,5.456870436529
    ));
#718 = CARTESIAN_POINT('',(-4.690416335465,0.570628702389,5.5000006));
#719 = PCURVE('',#96,#720);
#720 = DEFINITIONAL_REPRESENTATION('',(#721),#764);
#721 = B_SPLINE_CURVE_WITH_KNOTS('',6,(#722,#723,#724,#725,#726,#727,
    #728,#729,#730,#731,#732,#733,#734,#735,#736,#737,#738,#739,#740,
    #741,#742,#743,#744,#745,#746,#747,#748,#749,#750,#751,#752,#753,
    #754,#755,#756,#757,#758,#759,#760,#761,#762,#763),.UNSPECIFIED.,.F.
  ,.F.,(7,5,5,5,5,5,5,5,7),(0.,0.22893626342,0.296081638006,
    0.419419370172,0.507198119831,0.546559529619,0.613746630044,
    0.824454608717,1.),.UNSPECIFIED.);
#722 = CARTESIAN_POINT('',(4.292463610827,2.22044604925E-16));
#723 = CARTESIAN_POINT('',(4.292463610827,-0.109807964632));
#724 = CARTESIAN_POINT('',(4.290247363289,-0.219789714207));
#725 = CARTESIAN_POINT('',(4.285801809309,-0.328211219144));
#726 = CARTESIAN_POINT('',(4.279131601733,-0.43331789434));
#727 = CARTESIAN_POINT('',(4.270259089656,-0.533339858013));
#728 = CARTESIAN_POINT('',(4.255980240944,-0.653775938926));
#729 = CARTESIAN_POINT('',(4.252557709498,-0.680476927501));
#730 = CARTESIAN_POINT('',(4.248953814637,-0.706508095024));
#731 = CARTESIAN_POINT('',(4.245172115175,-0.731814048459));
#732 = CARTESIAN_POINT('',(4.241216717097,-0.756342324779));
#733 = CARTESIAN_POINT('',(4.229516181883,-0.82357931239));
#734 = CARTESIAN_POINT('',(4.221366137162,-0.864344374367));
#735 = CARTESIAN_POINT('',(4.212681998586,-0.901957710534));
#736 = CARTESIAN_POINT('',(4.203513178087,-0.936112136458));
#737 = CARTESIAN_POINT('',(4.193916898176,-0.966575768917));
#738 = CARTESIAN_POINT('',(4.176867656377,-1.012137433584));
#739 = CARTESIAN_POINT('',(4.16959778284,-1.029124327847));
#740 = CARTESIAN_POINT('',(4.16217071332,-1.044100168377));
#741 = CARTESIAN_POINT('',(4.154611826288,-1.057032393291));
#742 = CARTESIAN_POINT('',(4.146947784117,-1.067910127116));
#743 = CARTESIAN_POINT('',(4.135734926229,-1.080705641668));
#744 = CARTESIAN_POINT('',(4.132247642394,-1.084256435982));
#745 = CARTESIAN_POINT('',(4.128746770695,-1.087397799545));
#746 = CARTESIAN_POINT('',(4.125234547282,-1.090131594623));
#747 = CARTESIAN_POINT('',(4.12171314491,-1.092460398627));
#748 = CARTESIAN_POINT('',(4.112161824597,-1.097676934808));
#749 = CARTESIAN_POINT('',(4.106119229138,-1.099795440975));
#750 = CARTESIAN_POINT('',(4.100066237648,-1.100760278718));
#751 = CARTESIAN_POINT('',(4.09401221027,-1.100591937057));
#752 = CARTESIAN_POINT('',(4.087966516192,-1.099314137923));
#753 = CARTESIAN_POINT('',(4.063033952127,-1.089551605525));
#754 = CARTESIAN_POINT('',(4.044342746395,-1.071518046534));
#755 = CARTESIAN_POINT('',(4.026048988824,-1.043726715736));
#756 = CARTESIAN_POINT('',(4.008321092773,-1.006956952067));
#757 = CARTESIAN_POINT('',(3.991329260636,-0.961913937799));
#758 = CARTESIAN_POINT('',(3.961864472195,-0.865362683078));
#759 = CARTESIAN_POINT('',(3.949087338591,-0.816111535235));
#760 = CARTESIAN_POINT('',(3.93701913504,-0.761780902868));
#761 = CARTESIAN_POINT('',(3.925769970268,-0.702612500476));
#762 = CARTESIAN_POINT('',(3.915470084152,-0.638823103241));
#763 = CARTESIAN_POINT('',(3.906274703532,-0.570628702389));
#764 = ( GEOMETRIC_REPRESENTATION_CONTEXT(2) 
PARAMETRIC_REPRESENTATION_CONTEXT() REPRESENTATION_CONTEXT('2D SPACE',''
  ) );
#765 = PCURVE('',#387,#766);
#766 = DEFINITIONAL_REPRESENTATION('',(#767),#810);
#767 = B_SPLINE_CURVE_WITH_KNOTS('',6,(#768,#769,#770,#771,#772,#773,
    #774,#775,#776,#777,#778,#779,#780,#781,#782,#783,#784,#785,#786,
    #787,#788,#789,#790,#791,#792,#793,#794,#795,#796,#797,#798,#799,
    #800,#801,#802,#803,#804,#805,#806,#807,#808,#809),.UNSPECIFIED.,.F.
  ,.F.,(7,5,5,5,5,5,5,5,7),(0.,0.22893626342,0.296081638006,
    0.419419370172,0.507198119831,0.546559529619,0.613746630044,
    0.824454608717,1.),.UNSPECIFIED.);
#768 = CARTESIAN_POINT('',(0.,-2.064724100768));
#769 = CARTESIAN_POINT('',(-9.982542239267E-02,-2.064724100768));
#770 = CARTESIAN_POINT('',(-0.199809019196,-2.070597184577));
#771 = CARTESIAN_POINT('',(-0.300163740623,-2.082377774473));
#772 = CARTESIAN_POINT('',(-0.401117479563,-2.100272769408));
#773 = CARTESIAN_POINT('',(-0.50292013803,-2.124667541011));
#774 = CARTESIAN_POINT('',(-0.636119200614,-2.165302557904));
#775 = CARTESIAN_POINT('',(-0.66640834143,-2.175115915937));
#776 = CARTESIAN_POINT('',(-0.696772820288,-2.185534617075));
#777 = CARTESIAN_POINT('',(-0.727206711505,-2.19656484551));
#778 = CARTESIAN_POINT('',(-0.757705091754,-2.208211778076));
#779 = CARTESIAN_POINT('',(-0.844397041107,-2.243014023894));
#780 = CARTESIAN_POINT('',(-0.900760230861,-2.267653675701));
#781 = CARTESIAN_POINT('',(-0.957239603109,-2.294390903188));
#782 = CARTESIAN_POINT('',(-1.013741325341,-2.323187752107));
#783 = CARTESIAN_POINT('',(-1.070181623364,-2.353968179215));
#784 = CARTESIAN_POINT('',(-1.166541521651,-2.409841475878));
#785 = CARTESIAN_POINT('',(-1.206513818512,-2.434004578454));
#786 = CARTESIAN_POINT('',(-1.246359632605,-2.459051719389));
#787 = CARTESIAN_POINT('',(-1.286046099152,-2.484923094478));
#788 = CARTESIAN_POINT('',(-1.325539550649,-2.511546167814));
#789 = CARTESIAN_POINT('',(-1.382410313916,-2.55107157215));
#790 = CARTESIAN_POINT('',(-1.399972468194,-2.563443248219));
#791 = CARTESIAN_POINT('',(-1.41748786103,-2.575942877581));
#792 = CARTESIAN_POINT('',(-1.434954562928,-2.588563320009));
#793 = CARTESIAN_POINT('',(-1.452370971732,-2.601297320597));
#794 = CARTESIAN_POINT('',(-1.499376349272,-2.636054790751));
#795 = CARTESIAN_POINT('',(-1.528862390381,-2.658278387919));
#796 = CARTESIAN_POINT('',(-1.55819323871,-2.680775691175));
#797 = CARTESIAN_POINT('',(-1.587367318339,-2.70351162052));
#798 = CARTESIAN_POINT('',(-1.616382174671,-2.726448626043));
#799 = CARTESIAN_POINT('',(-1.735719250906,-2.821985383718));
#800 = CARTESIAN_POINT('',(-1.824417494662,-2.895858211836));
#801 = CARTESIAN_POINT('',(-1.911731726698,-2.970317678927));
#802 = CARTESIAN_POINT('',(-1.997990267239,-3.044435879115));
#803 = CARTESIAN_POINT('',(-2.083503261003,-3.117182763675));
#804 = CARTESIAN_POINT('',(-2.239459230064,-3.245917165724));
#805 = CARTESIAN_POINT('',(-2.31015890639,-3.302777032279));
#806 = CARTESIAN_POINT('',(-2.380933858471,-3.357379008423));
#807 = CARTESIAN_POINT('',(-2.452025395266,-3.409016004198));
#808 = CARTESIAN_POINT('',(-2.523685413212,-3.456870436529));
#809 = CARTESIAN_POINT('',(-2.596200530485,-3.5000006));
#810 = ( GEOMETRIC_REPRESENTATION_CONTEXT(2) 
PARAMETRIC_REPRESENTATION_CONTEXT() REPRESENTATION_CONTEXT('2D SPACE',''
  ) );
#811 = ORIENTED_EDGE('',*,*,#812,.T.);
#812 = EDGE_CURVE('',#673,#434,#813,.T.);
#813 = SURFACE_CURVE('',#814,(#818,#824),.PCURVE_S1.);
#814 = LINE('',#815,#816);
#815 = CARTESIAN_POINT('',(-4.690415759823,0.,5.5));
#816 = VECTOR('',#817,1.);
#817 = DIRECTION('',(0.,-1.,0.));
#818 = PCURVE('',#96,#819);
#819 = DEFINITIONAL_REPRESENTATION('',(#820),#823);
#820 = B_SPLINE_CURVE_WITH_KNOTS('',1,(#821,#822),.UNSPECIFIED.,.F.,.F.,
  (2,2),(-1.32,6.E-07),.PIECEWISE_BEZIER_KNOTS.);
#821 = CARTESIAN_POINT('',(3.906274831452,-1.32));
#822 = CARTESIAN_POINT('',(3.906274831452,6.E-07));
#823 = ( GEOMETRIC_REPRESENTATION_CONTEXT(2) 
PARAMETRIC_REPRESENTATION_CONTEXT() REPRESENTATION_CONTEXT('2D SPACE',''
  ) );
#824 = PCURVE('',#448,#825);
#825 = DEFINITIONAL_REPRESENTATION('',(#826),#829);
#826 = B_SPLINE_CURVE_WITH_KNOTS('',1,(#827,#828),.UNSPECIFIED.,.F.,.F.,
  (2,2),(-1.32,6.E-07),.PIECEWISE_BEZIER_KNOTS.);
#827 = CARTESIAN_POINT('',(-0.940415759823,1.32));
#828 = CARTESIAN_POINT('',(-0.940415759823,-5.999999999939E-07));
#829 = ( GEOMETRIC_REPRESENTATION_CONTEXT(2) 
PARAMETRIC_REPRESENTATION_CONTEXT() REPRESENTATION_CONTEXT('2D SPACE',''
  ) );
#830 = ORIENTED_EDGE('',*,*,#459,.F.);
#831 = ADVANCED_FACE('',(#832),#448,.T.);
#832 = FACE_BOUND('',#833,.T.);
#833 = EDGE_LOOP('',(#834,#835,#857));
#834 = ORIENTED_EDGE('',*,*,#812,.F.);
#835 = ORIENTED_EDGE('',*,*,#836,.T.);
#836 = EDGE_CURVE('',#673,#304,#837,.T.);
#837 = SURFACE_CURVE('',#838,(#843,#850),.PCURVE_S1.);
#838 = CIRCLE('',#839,1.1);
#839 = AXIS2_PLACEMENT_3D('',#840,#841,#842);
#840 = CARTESIAN_POINT('',(-3.75,0.,5.5));
#841 = DIRECTION('',(0.,0.,1.));
#842 = DIRECTION('',(1.,0.,0.));
#843 = PCURVE('',#448,#844);
#844 = DEFINITIONAL_REPRESENTATION('',(#845),#849);
#845 = CIRCLE('',#846,1.1);
#846 = AXIS2_PLACEMENT_2D('',#847,#848);
#847 = CARTESIAN_POINT('',(0.,6.055984930685E-18));
#848 = DIRECTION('',(1.,0.));
#849 = ( GEOMETRIC_REPRESENTATION_CONTEXT(2) 
PARAMETRIC_REPRESENTATION_CONTEXT() REPRESENTATION_CONTEXT('2D SPACE',''
  ) );
#850 = PCURVE('',#387,#851);
#851 = DEFINITIONAL_REPRESENTATION('',(#852),#856);
#852 = LINE('',#853,#854);
#853 = CARTESIAN_POINT('',(-0.,-3.5));
#854 = VECTOR('',#855,1.);
#855 = DIRECTION('',(-1.,0.));
#856 = ( GEOMETRIC_REPRESENTATION_CONTEXT(2) 
PARAMETRIC_REPRESENTATION_CONTEXT() REPRESENTATION_CONTEXT('2D SPACE',''
  ) );
#857 = ORIENTED_EDGE('',*,*,#433,.T.);
#858 = ADVANCED_FACE('',(#859),#387,.T.);
#859 = FACE_BOUND('',#860,.F.);
#860 = EDGE_LOOP('',(#861,#890,#911,#912,#913,#914));
#861 = ORIENTED_EDGE('',*,*,#862,.F.);
#862 = EDGE_CURVE('',#863,#863,#865,.T.);
#863 = VERTEX_POINT('',#864);
#864 = CARTESIAN_POINT('',(-2.65,0.,2.));
#865 = SURFACE_CURVE('',#866,(#871,#878),.PCURVE_S1.);
#866 = CIRCLE('',#867,1.1);
#867 = AXIS2_PLACEMENT_3D('',#868,#869,#870);
#868 = CARTESIAN_POINT('',(-3.75,0.,2.));
#869 = DIRECTION('',(0.,0.,1.));
#870 = DIRECTION('',(1.,0.,0.));
#871 = PCURVE('',#387,#872);
#872 = DEFINITIONAL_REPRESENTATION('',(#873),#877);
#873 = LINE('',#874,#875);
#874 = CARTESIAN_POINT('',(-0.,0.));
#875 = VECTOR('',#876,1.);
#876 = DIRECTION('',(-1.,0.));
#877 = ( GEOMETRIC_REPRESENTATION_CONTEXT(2) 
PARAMETRIC_REPRESENTATION_CONTEXT() REPRESENTATION_CONTEXT('2D SPACE',''
  ) );
#878 = PCURVE('',#879,#884);
#879 = PLANE('',#880);
#880 = AXIS2_PLACEMENT_3D('',#881,#882,#883);
#881 = CARTESIAN_POINT('',(-3.75,-6.055984930685E-18,2.));
#882 = DIRECTION('',(0.,0.,1.));
#883 = DIRECTION('',(1.,0.,-0.));
#884 = DEFINITIONAL_REPRESENTATION('',(#885),#889);
#885 = CIRCLE('',#886,1.1);
#886 = AXIS2_PLACEMENT_2D('',#887,#888);
#887 = CARTESIAN_POINT('',(0.,6.055984930685E-18));
#888 = DIRECTION('',(1.,0.));
#889 = ( GEOMETRIC_REPRESENTATION_CONTEXT(2) 
PARAMETRIC_REPRESENTATION_CONTEXT() REPRESENTATION_CONTEXT('2D SPACE',''
  ) );
#890 = ORIENTED_EDGE('',*,*,#891,.T.);
#891 = EDGE_CURVE('',#863,#280,#892,.T.);
#892 = SEAM_CURVE('',#893,(#897,#904),.PCURVE_S1.);
#893 = LINE('',#894,#895);
#894 = CARTESIAN_POINT('',(-2.65,0.,2.));
#895 = VECTOR('',#896,1.);
#896 = DIRECTION('',(0.,0.,1.));
#897 = PCURVE('',#387,#898);
#898 = DEFINITIONAL_REPRESENTATION('',(#899),#903);
#899 = LINE('',#900,#901);
#900 = CARTESIAN_POINT('',(-6.28318530718,0.));
#901 = VECTOR('',#902,1.);
#902 = DIRECTION('',(-0.,-1.));
#903 = ( GEOMETRIC_REPRESENTATION_CONTEXT(2) 
PARAMETRIC_REPRESENTATION_CONTEXT() REPRESENTATION_CONTEXT('2D SPACE',''
  ) );
#904 = PCURVE('',#387,#905);
#905 = DEFINITIONAL_REPRESENTATION('',(#906),#910);
#906 = LINE('',#907,#908);
#907 = CARTESIAN_POINT('',(-0.,0.));
#908 = VECTOR('',#909,1.);
#909 = DIRECTION('',(-0.,-1.));
#910 = ( GEOMETRIC_REPRESENTATION_CONTEXT(2) 
PARAMETRIC_REPRESENTATION_CONTEXT() REPRESENTATION_CONTEXT('2D SPACE',''
  ) );
#911 = ORIENTED_EDGE('',*,*,#672,.T.);
#912 = ORIENTED_EDGE('',*,*,#836,.T.);
#913 = ORIENTED_EDGE('',*,*,#303,.T.);
#914 = ORIENTED_EDGE('',*,*,#891,.F.);
#915 = ADVANCED_FACE('',(#916),#228,.T.);
#916 = FACE_BOUND('',#917,.F.);
#917 = EDGE_LOOP('',(#918,#947,#970,#992,#993,#994,#1016));
#918 = ORIENTED_EDGE('',*,*,#919,.F.);
#919 = EDGE_CURVE('',#920,#920,#922,.T.);
#920 = VERTEX_POINT('',#921);
#921 = CARTESIAN_POINT('',(4.85,0.,2.));
#922 = SURFACE_CURVE('',#923,(#928,#935),.PCURVE_S1.);
#923 = CIRCLE('',#924,1.1);
#924 = AXIS2_PLACEMENT_3D('',#925,#926,#927);
#925 = CARTESIAN_POINT('',(3.75,0.,2.));
#926 = DIRECTION('',(0.,0.,1.));
#927 = DIRECTION('',(1.,0.,0.));
#928 = PCURVE('',#228,#929);
#929 = DEFINITIONAL_REPRESENTATION('',(#930),#934);
#930 = LINE('',#931,#932);
#931 = CARTESIAN_POINT('',(-0.,0.));
#932 = VECTOR('',#933,1.);
#933 = DIRECTION('',(-1.,0.));
#934 = ( GEOMETRIC_REPRESENTATION_CONTEXT(2) 
PARAMETRIC_REPRESENTATION_CONTEXT() REPRESENTATION_CONTEXT('2D SPACE',''
  ) );
#935 = PCURVE('',#936,#941);
#936 = PLANE('',#937);
#937 = AXIS2_PLACEMENT_3D('',#938,#939,#940);
#938 = CARTESIAN_POINT('',(3.75,-6.055984930685E-18,2.));
#939 = DIRECTION('',(0.,0.,1.));
#940 = DIRECTION('',(1.,0.,-0.));
#941 = DEFINITIONAL_REPRESENTATION('',(#942),#946);
#942 = CIRCLE('',#943,1.1);
#943 = AXIS2_PLACEMENT_2D('',#944,#945);
#944 = CARTESIAN_POINT('',(0.,6.055984930685E-18));
#945 = DIRECTION('',(1.,0.));
#946 = ( GEOMETRIC_REPRESENTATION_CONTEXT(2) 
PARAMETRIC_REPRESENTATION_CONTEXT() REPRESENTATION_CONTEXT('2D SPACE',''
  ) );
#947 = ORIENTED_EDGE('',*,*,#948,.T.);
#948 = EDGE_CURVE('',#920,#949,#951,.T.);
#949 = VERTEX_POINT('',#950);
#950 = CARTESIAN_POINT('',(4.85,0.,5.5));
#951 = SEAM_CURVE('',#952,(#956,#963),.PCURVE_S1.);
#952 = LINE('',#953,#954);
#953 = CARTESIAN_POINT('',(4.85,0.,2.));
#954 = VECTOR('',#955,1.);
#955 = DIRECTION('',(0.,0.,1.));
#956 = PCURVE('',#228,#957);
#957 = DEFINITIONAL_REPRESENTATION('',(#958),#962);
#958 = LINE('',#959,#960);
#959 = CARTESIAN_POINT('',(-6.28318530718,0.));
#960 = VECTOR('',#961,1.);
#961 = DIRECTION('',(-0.,-1.));
#962 = ( GEOMETRIC_REPRESENTATION_CONTEXT(2) 
PARAMETRIC_REPRESENTATION_CONTEXT() REPRESENTATION_CONTEXT('2D SPACE',''
  ) );
#963 = PCURVE('',#228,#964);
#964 = DEFINITIONAL_REPRESENTATION('',(#965),#969);
#965 = LINE('',#966,#967);
#966 = CARTESIAN_POINT('',(-0.,0.));
#967 = VECTOR('',#968,1.);
#968 = DIRECTION('',(-0.,-1.));
#969 = ( GEOMETRIC_REPRESENTATION_CONTEXT(2) 
PARAMETRIC_REPRESENTATION_CONTEXT() REPRESENTATION_CONTEXT('2D SPACE',''
  ) );
#970 = ORIENTED_EDGE('',*,*,#971,.T.);
#971 = EDGE_CURVE('',#949,#537,#972,.T.);
#972 = SURFACE_CURVE('',#973,(#978,#985),.PCURVE_S1.);
#973 = CIRCLE('',#974,1.1);
#974 = AXIS2_PLACEMENT_3D('',#975,#976,#977);
#975 = CARTESIAN_POINT('',(3.75,0.,5.5));
#976 = DIRECTION('',(0.,0.,1.));
#977 = DIRECTION('',(1.,0.,0.));
#978 = PCURVE('',#228,#979);
#979 = DEFINITIONAL_REPRESENTATION('',(#980),#984);
#980 = LINE('',#981,#982);
#981 = CARTESIAN_POINT('',(-0.,-3.5));
#982 = VECTOR('',#983,1.);
#983 = DIRECTION('',(-1.,0.));
#984 = ( GEOMETRIC_REPRESENTATION_CONTEXT(2) 
PARAMETRIC_REPRESENTATION_CONTEXT() REPRESENTATION_CONTEXT('2D SPACE',''
  ) );
#985 = PCURVE('',#123,#986);
#986 = DEFINITIONAL_REPRESENTATION('',(#987),#991);
#987 = CIRCLE('',#988,1.1);
#988 = AXIS2_PLACEMENT_2D('',#989,#990);
#989 = CARTESIAN_POINT('',(0.,6.055984930685E-18));
#990 = DIRECTION('',(1.,0.));
#991 = ( GEOMETRIC_REPRESENTATION_CONTEXT(2) 
PARAMETRIC_REPRESENTATION_CONTEXT() REPRESENTATION_CONTEXT('2D SPACE',''
  ) );
#992 = ORIENTED_EDGE('',*,*,#557,.T.);
#993 = ORIENTED_EDGE('',*,*,#134,.T.);
#994 = ORIENTED_EDGE('',*,*,#995,.T.);
#995 = EDGE_CURVE('',#109,#949,#996,.T.);
#996 = SURFACE_CURVE('',#997,(#1002,#1009),.PCURVE_S1.);
#997 = CIRCLE('',#998,1.1);
#998 = AXIS2_PLACEMENT_3D('',#999,#1000,#1001);
#999 = CARTESIAN_POINT('',(3.75,0.,5.5));
#1000 = DIRECTION('',(0.,0.,1.));
#1001 = DIRECTION('',(1.,0.,0.));
#1002 = PCURVE('',#228,#1003);
#1003 = DEFINITIONAL_REPRESENTATION('',(#1004),#1008);
#1004 = LINE('',#1005,#1006);
#1005 = CARTESIAN_POINT('',(-0.,-3.5));
#1006 = VECTOR('',#1007,1.);
#1007 = DIRECTION('',(-1.,0.));
#1008 = ( GEOMETRIC_REPRESENTATION_CONTEXT(2) 
PARAMETRIC_REPRESENTATION_CONTEXT() REPRESENTATION_CONTEXT('2D SPACE',''
  ) );
#1009 = PCURVE('',#123,#1010);
#1010 = DEFINITIONAL_REPRESENTATION('',(#1011),#1015);
#1011 = CIRCLE('',#1012,1.1);
#1012 = AXIS2_PLACEMENT_2D('',#1013,#1014);
#1013 = CARTESIAN_POINT('',(0.,6.055984930685E-18));
#1014 = DIRECTION('',(1.,0.));
#1015 = ( GEOMETRIC_REPRESENTATION_CONTEXT(2) 
PARAMETRIC_REPRESENTATION_CONTEXT() REPRESENTATION_CONTEXT('2D SPACE',''
  ) );
#1016 = ORIENTED_EDGE('',*,*,#948,.F.);
#1017 = ADVANCED_FACE('',(#1018),#123,.T.);
#1018 = FACE_BOUND('',#1019,.T.);
#1019 = EDGE_LOOP('',(#1020,#1021,#1022,#1023));
#1020 = ORIENTED_EDGE('',*,*,#995,.T.);
#1021 = ORIENTED_EDGE('',*,*,#971,.T.);
#1022 = ORIENTED_EDGE('',*,*,#536,.T.);
#1023 = ORIENTED_EDGE('',*,*,#108,.F.);
#1024 = ADVANCED_FACE('',(#1025),#66,.T.);
#1025 = FACE_BOUND('',#1026,.T.);
#1026 = EDGE_LOOP('',(#1027,#1049,#1050,#1051));
#1027 = ORIENTED_EDGE('',*,*,#1028,.F.);
#1028 = EDGE_CURVE('',#24,#1029,#1031,.T.);
#1029 = VERTEX_POINT('',#1030);
#1030 = CARTESIAN_POINT('',(5.7,-2.4,10.));
#1031 = SEAM_CURVE('',#1032,(#1037,#1043),.PCURVE_S1.);
#1032 = CIRCLE('',#1033,0.8);
#1033 = AXIS2_PLACEMENT_3D('',#1034,#1035,#1036);
#1034 = CARTESIAN_POINT('',(5.7,-1.6,10.));
#1035 = DIRECTION('',(0.,0.,-1.));
#1036 = DIRECTION('',(1.,0.,0.));
#1037 = PCURVE('',#66,#1038);
#1038 = DEFINITIONAL_REPRESENTATION('',(#1039),#1042);
#1039 = B_SPLINE_CURVE_WITH_KNOTS('',1,(#1040,#1041),.UNSPECIFIED.,.F.,
  .F.,(2,2),(0.,1.570796326795),.PIECEWISE_BEZIER_KNOTS.);
#1040 = CARTESIAN_POINT('',(0.,0.));
#1041 = CARTESIAN_POINT('',(0.,1.570796326795));
#1042 = ( GEOMETRIC_REPRESENTATION_CONTEXT(2) 
PARAMETRIC_REPRESENTATION_CONTEXT() REPRESENTATION_CONTEXT('2D SPACE',''
  ) );
#1043 = PCURVE('',#66,#1044);
#1044 = DEFINITIONAL_REPRESENTATION('',(#1045),#1048);
#1045 = B_SPLINE_CURVE_WITH_KNOTS('',1,(#1046,#1047),.UNSPECIFIED.,.F.,
  .F.,(2,2),(0.,1.570796326795),.PIECEWISE_BEZIER_KNOTS.);
#1046 = CARTESIAN_POINT('',(6.28318530718,0.));
#1047 = CARTESIAN_POINT('',(6.28318530718,1.570796326795));
#1048 = ( GEOMETRIC_REPRESENTATION_CONTEXT(2) 
PARAMETRIC_REPRESENTATION_CONTEXT() REPRESENTATION_CONTEXT('2D SPACE',''
  ) );
#1049 = ORIENTED_EDGE('',*,*,#51,.T.);
#1050 = ORIENTED_EDGE('',*,*,#1028,.T.);
#1051 = ORIENTED_EDGE('',*,*,#1052,.F.);
#1052 = EDGE_CURVE('',#1029,#1029,#1053,.T.);
#1053 = SURFACE_CURVE('',#1054,(#1059,#1066),.PCURVE_S1.);
#1054 = CIRCLE('',#1055,5.7);
#1055 = AXIS2_PLACEMENT_3D('',#1056,#1057,#1058);
#1056 = CARTESIAN_POINT('',(0.,-2.4,10.));
#1057 = DIRECTION('',(0.,-1.,-0.));
#1058 = DIRECTION('',(1.,0.,0.));
#1059 = PCURVE('',#66,#1060);
#1060 = DEFINITIONAL_REPRESENTATION('',(#1061),#1065);
#1061 = LINE('',#1062,#1063);
#1062 = CARTESIAN_POINT('',(0.,1.570796326795));
#1063 = VECTOR('',#1064,1.);
#1064 = DIRECTION('',(1.,0.));
#1065 = ( GEOMETRIC_REPRESENTATION_CONTEXT(2) 
PARAMETRIC_REPRESENTATION_CONTEXT() REPRESENTATION_CONTEXT('2D SPACE',''
  ) );
#1066 = PCURVE('',#1067,#1072);
#1067 = PLANE('',#1068);
#1068 = AXIS2_PLACEMENT_3D('',#1069,#1070,#1071);
#1069 = CARTESIAN_POINT('',(-2.103754050061E-16,-2.4,10.));
#1070 = DIRECTION('',(-0.,-1.,-0.));
#1071 = DIRECTION('',(0.,0.,-1.));
#1072 = DEFINITIONAL_REPRESENTATION('',(#1073),#1077);
#1073 = CIRCLE('',#1074,5.7);
#1074 = AXIS2_PLACEMENT_2D('',#1075,#1076);
#1075 = CARTESIAN_POINT('',(0.,2.103754050061E-16));
#1076 = DIRECTION('',(0.,1.));
#1077 = ( GEOMETRIC_REPRESENTATION_CONTEXT(2) 
PARAMETRIC_REPRESENTATION_CONTEXT() REPRESENTATION_CONTEXT('2D SPACE',''
  ) );
#1078 = ADVANCED_FACE('',(#1079),#522,.T.);
#1079 = FACE_BOUND('',#1080,.F.);
#1080 = EDGE_LOOP('',(#1081,#1103,#1104,#1105));
#1081 = ORIENTED_EDGE('',*,*,#1082,.F.);
#1082 = EDGE_CURVE('',#485,#1083,#1085,.T.);
#1083 = VERTEX_POINT('',#1084);
#1084 = CARTESIAN_POINT('',(5.7,2.4,10.));
#1085 = SEAM_CURVE('',#1086,(#1091,#1097),.PCURVE_S1.);
#1086 = CIRCLE('',#1087,0.8);
#1087 = AXIS2_PLACEMENT_3D('',#1088,#1089,#1090);
#1088 = CARTESIAN_POINT('',(5.7,1.6,10.));
#1089 = DIRECTION('',(0.,-0.,1.));
#1090 = DIRECTION('',(1.,0.,0.));
#1091 = PCURVE('',#522,#1092);
#1092 = DEFINITIONAL_REPRESENTATION('',(#1093),#1096);
#1093 = B_SPLINE_CURVE_WITH_KNOTS('',1,(#1094,#1095),.UNSPECIFIED.,.F.,
  .F.,(2,2),(0.,1.570796326795),.PIECEWISE_BEZIER_KNOTS.);
#1094 = CARTESIAN_POINT('',(0.,0.));
#1095 = CARTESIAN_POINT('',(0.,1.570796326795));
#1096 = ( GEOMETRIC_REPRESENTATION_CONTEXT(2) 
PARAMETRIC_REPRESENTATION_CONTEXT() REPRESENTATION_CONTEXT('2D SPACE',''
  ) );
#1097 = PCURVE('',#522,#1098);
#1098 = DEFINITIONAL_REPRESENTATION('',(#1099),#1102);
#1099 = B_SPLINE_CURVE_WITH_KNOTS('',1,(#1100,#1101),.UNSPECIFIED.,.F.,
  .F.,(2,2),(0.,1.570796326795),.PIECEWISE_BEZIER_KNOTS.);
#1100 = CARTESIAN_POINT('',(-6.28318530718,0.));
#1101 = CARTESIAN_POINT('',(-6.28318530718,1.570796326795));
#1102 = ( GEOMETRIC_REPRESENTATION_CONTEXT(2) 
PARAMETRIC_REPRESENTATION_CONTEXT() REPRESENTATION_CONTEXT('2D SPACE',''
  ) );
#1103 = ORIENTED_EDGE('',*,*,#507,.F.);
#1104 = ORIENTED_EDGE('',*,*,#1082,.T.);
#1105 = ORIENTED_EDGE('',*,*,#1106,.T.);
#1106 = EDGE_CURVE('',#1083,#1083,#1107,.T.);
#1107 = SURFACE_CURVE('',#1108,(#1113,#1120),.PCURVE_S1.);
#1108 = CIRCLE('',#1109,5.7);
#1109 = AXIS2_PLACEMENT_3D('',#1110,#1111,#1112);
#1110 = CARTESIAN_POINT('',(0.,2.4,10.));
#1111 = DIRECTION('',(0.,-1.,-0.));
#1112 = DIRECTION('',(1.,0.,0.));
#1113 = PCURVE('',#522,#1114);
#1114 = DEFINITIONAL_REPRESENTATION('',(#1115),#1119);
#1115 = LINE('',#1116,#1117);
#1116 = CARTESIAN_POINT('',(-0.,1.570796326795));
#1117 = VECTOR('',#1118,1.);
#1118 = DIRECTION('',(-1.,0.));
#1119 = ( GEOMETRIC_REPRESENTATION_CONTEXT(2) 
PARAMETRIC_REPRESENTATION_CONTEXT() REPRESENTATION_CONTEXT('2D SPACE',''
  ) );
#1120 = PCURVE('',#1121,#1126);
#1121 = PLANE('',#1122);
#1122 = AXIS2_PLACEMENT_3D('',#1123,#1124,#1125);
#1123 = CARTESIAN_POINT('',(-2.103754050061E-16,2.4,10.));
#1124 = DIRECTION('',(-0.,-1.,-0.));
#1125 = DIRECTION('',(0.,0.,-1.));
#1126 = DEFINITIONAL_REPRESENTATION('',(#1127),#1131);
#1127 = CIRCLE('',#1128,5.7);
#1128 = AXIS2_PLACEMENT_2D('',#1129,#1130);
#1129 = CARTESIAN_POINT('',(0.,2.103754050061E-16));
#1130 = DIRECTION('',(0.,1.));
#1131 = ( GEOMETRIC_REPRESENTATION_CONTEXT(2) 
PARAMETRIC_REPRESENTATION_CONTEXT() REPRESENTATION_CONTEXT('2D SPACE',''
  ) );
#1132 = ADVANCED_FACE('',(#1133,#1136),#879,.F.);
#1133 = FACE_BOUND('',#1134,.F.);
#1134 = EDGE_LOOP('',(#1135));
#1135 = ORIENTED_EDGE('',*,*,#862,.T.);
#1136 = FACE_BOUND('',#1137,.F.);
#1137 = EDGE_LOOP('',(#1138));
#1138 = ORIENTED_EDGE('',*,*,#1139,.T.);
#1139 = EDGE_CURVE('',#1140,#1140,#1142,.T.);
#1140 = VERTEX_POINT('',#1141);
#1141 = CARTESIAN_POINT('',(-3.45,0.,2.));
#1142 = SURFACE_CURVE('',#1143,(#1148,#1159),.PCURVE_S1.);
#1143 = CIRCLE('',#1144,0.3);
#1144 = AXIS2_PLACEMENT_3D('',#1145,#1146,#1147);
#1145 = CARTESIAN_POINT('',(-3.75,0.,2.));
#1146 = DIRECTION('',(0.,0.,-1.));
#1147 = DIRECTION('',(1.,0.,0.));
#1148 = PCURVE('',#879,#1149);
#1149 = DEFINITIONAL_REPRESENTATION('',(#1150),#1158);
#1150 = ( BOUNDED_CURVE() B_SPLINE_CURVE(2,(#1151,#1152,#1153,#1154,
#1155,#1156,#1157),.UNSPECIFIED.,.T.,.F.) B_SPLINE_CURVE_WITH_KNOTS((1,2
    ,2,2,2,1),(-2.094395102393,0.,2.094395102393,4.188790204786,
6.28318530718,8.377580409573),.UNSPECIFIED.) CURVE() 
GEOMETRIC_REPRESENTATION_ITEM() RATIONAL_B_SPLINE_CURVE((1.,0.5,1.,0.5,
1.,0.5,1.)) REPRESENTATION_ITEM('') );
#1151 = CARTESIAN_POINT('',(0.3,6.055984930685E-18));
#1152 = CARTESIAN_POINT('',(0.3,-0.519615242271));
#1153 = CARTESIAN_POINT('',(-0.15,-0.259807621135));
#1154 = CARTESIAN_POINT('',(-0.6,-6.742282301816E-17));
#1155 = CARTESIAN_POINT('',(-0.15,0.259807621135));
#1156 = CARTESIAN_POINT('',(0.3,0.519615242271));
#1157 = CARTESIAN_POINT('',(0.3,6.055984930685E-18));
#1158 = ( GEOMETRIC_REPRESENTATION_CONTEXT(2) 
PARAMETRIC_REPRESENTATION_CONTEXT() REPRESENTATION_CONTEXT('2D SPACE',''
  ) );
#1159 = PCURVE('',#1160,#1165);
#1160 = CYLINDRICAL_SURFACE('',#1161,0.3);
#1161 = AXIS2_PLACEMENT_3D('',#1162,#1163,#1164);
#1162 = CARTESIAN_POINT('',(-3.75,0.,-4.5));
#1163 = DIRECTION('',(-0.,-0.,-1.));
#1164 = DIRECTION('',(1.,0.,0.));
#1165 = DEFINITIONAL_REPRESENTATION('',(#1166),#1170);
#1166 = LINE('',#1167,#1168);
#1167 = CARTESIAN_POINT('',(-6.28318530718,-6.5));
#1168 = VECTOR('',#1169,1.);
#1169 = DIRECTION('',(1.,-0.));
#1170 = ( GEOMETRIC_REPRESENTATION_CONTEXT(2) 
PARAMETRIC_REPRESENTATION_CONTEXT() REPRESENTATION_CONTEXT('2D SPACE',''
  ) );
#1171 = ADVANCED_FACE('',(#1172,#1175),#936,.F.);
#1172 = FACE_BOUND('',#1173,.F.);
#1173 = EDGE_LOOP('',(#1174));
#1174 = ORIENTED_EDGE('',*,*,#919,.T.);
#1175 = FACE_BOUND('',#1176,.F.);
#1176 = EDGE_LOOP('',(#1177));
#1177 = ORIENTED_EDGE('',*,*,#1178,.T.);
#1178 = EDGE_CURVE('',#1179,#1179,#1181,.T.);
#1179 = VERTEX_POINT('',#1180);
#1180 = CARTESIAN_POINT('',(4.05,0.,2.));
#1181 = SURFACE_CURVE('',#1182,(#1187,#1198),.PCURVE_S1.);
#1182 = CIRCLE('',#1183,0.3);
#1183 = AXIS2_PLACEMENT_3D('',#1184,#1185,#1186);
#1184 = CARTESIAN_POINT('',(3.75,0.,2.));
#1185 = DIRECTION('',(0.,0.,-1.));
#1186 = DIRECTION('',(1.,0.,0.));
#1187 = PCURVE('',#936,#1188);
#1188 = DEFINITIONAL_REPRESENTATION('',(#1189),#1197);
#1189 = ( BOUNDED_CURVE() B_SPLINE_CURVE(2,(#1190,#1191,#1192,#1193,
#1194,#1195,#1196),.UNSPECIFIED.,.T.,.F.) B_SPLINE_CURVE_WITH_KNOTS((1,2
    ,2,2,2,1),(-2.094395102393,0.,2.094395102393,4.188790204786,
6.28318530718,8.377580409573),.UNSPECIFIED.) CURVE() 
GEOMETRIC_REPRESENTATION_ITEM() RATIONAL_B_SPLINE_CURVE((1.,0.5,1.,0.5,
1.,0.5,1.)) REPRESENTATION_ITEM('') );
#1190 = CARTESIAN_POINT('',(0.3,6.055984930685E-18));
#1191 = CARTESIAN_POINT('',(0.3,-0.519615242271));
#1192 = CARTESIAN_POINT('',(-0.15,-0.259807621135));
#1193 = CARTESIAN_POINT('',(-0.6,-6.742282301816E-17));
#1194 = CARTESIAN_POINT('',(-0.15,0.259807621135));
#1195 = CARTESIAN_POINT('',(0.3,0.519615242271));
#1196 = CARTESIAN_POINT('',(0.3,6.055984930685E-18));
#1197 = ( GEOMETRIC_REPRESENTATION_CONTEXT(2) 
PARAMETRIC_REPRESENTATION_CONTEXT() REPRESENTATION_CONTEXT('2D SPACE',''
  ) );
#1198 = PCURVE('',#1199,#1204);
#1199 = CYLINDRICAL_SURFACE('',#1200,0.3);
#1200 = AXIS2_PLACEMENT_3D('',#1201,#1202,#1203);
#1201 = CARTESIAN_POINT('',(3.75,0.,-4.5));
#1202 = DIRECTION('',(-0.,-0.,-1.));
#1203 = DIRECTION('',(1.,0.,0.));
#1204 = DEFINITIONAL_REPRESENTATION('',(#1205),#1209);
#1205 = LINE('',#1206,#1207);
#1206 = CARTESIAN_POINT('',(-6.28318530718,-6.5));
#1207 = VECTOR('',#1208,1.);
#1208 = DIRECTION('',(1.,-0.));
#1209 = ( GEOMETRIC_REPRESENTATION_CONTEXT(2) 
PARAMETRIC_REPRESENTATION_CONTEXT() REPRESENTATION_CONTEXT('2D SPACE',''
  ) );
#1210 = ADVANCED_FACE('',(#1211),#1067,.T.);
#1211 = FACE_BOUND('',#1212,.T.);
#1212 = EDGE_LOOP('',(#1213));
#1213 = ORIENTED_EDGE('',*,*,#1052,.T.);
#1214 = ADVANCED_FACE('',(#1215),#1121,.F.);
#1215 = FACE_BOUND('',#1216,.F.);
#1216 = EDGE_LOOP('',(#1217));
#1217 = ORIENTED_EDGE('',*,*,#1106,.T.);
#1218 = ADVANCED_FACE('',(#1219),#1160,.T.);
#1219 = FACE_BOUND('',#1220,.F.);
#1220 = EDGE_LOOP('',(#1221,#1250,#1271,#1272));
#1221 = ORIENTED_EDGE('',*,*,#1222,.F.);
#1222 = EDGE_CURVE('',#1223,#1223,#1225,.T.);
#1223 = VERTEX_POINT('',#1224);
#1224 = CARTESIAN_POINT('',(-3.45,0.,-4.5));
#1225 = SURFACE_CURVE('',#1226,(#1231,#1238),.PCURVE_S1.);
#1226 = CIRCLE('',#1227,0.3);
#1227 = AXIS2_PLACEMENT_3D('',#1228,#1229,#1230);
#1228 = CARTESIAN_POINT('',(-3.75,0.,-4.5));
#1229 = DIRECTION('',(0.,0.,1.));
#1230 = DIRECTION('',(1.,0.,0.));
#1231 = PCURVE('',#1160,#1232);
#1232 = DEFINITIONAL_REPRESENTATION('',(#1233),#1237);
#1233 = LINE('',#1234,#1235);
#1234 = CARTESIAN_POINT('',(-0.,0.));
#1235 = VECTOR('',#1236,1.);
#1236 = DIRECTION('',(-1.,0.));
#1237 = ( GEOMETRIC_REPRESENTATION_CONTEXT(2) 
PARAMETRIC_REPRESENTATION_CONTEXT() REPRESENTATION_CONTEXT('2D SPACE',''
  ) );
#1238 = PCURVE('',#1239,#1244);
#1239 = PLANE('',#1240);
#1240 = AXIS2_PLACEMENT_3D('',#1241,#1242,#1243);
#1241 = CARTESIAN_POINT('',(-3.75,5.558742067634E-18,-4.5));
#1242 = DIRECTION('',(0.,0.,1.));
#1243 = DIRECTION('',(1.,0.,-0.));
#1244 = DEFINITIONAL_REPRESENTATION('',(#1245),#1249);
#1245 = CIRCLE('',#1246,0.3);
#1246 = AXIS2_PLACEMENT_2D('',#1247,#1248);
#1247 = CARTESIAN_POINT('',(0.,-5.558742067634E-18));
#1248 = DIRECTION('',(1.,0.));
#1249 = ( GEOMETRIC_REPRESENTATION_CONTEXT(2) 
PARAMETRIC_REPRESENTATION_CONTEXT() REPRESENTATION_CONTEXT('2D SPACE',''
  ) );
#1250 = ORIENTED_EDGE('',*,*,#1251,.T.);
#1251 = EDGE_CURVE('',#1223,#1140,#1252,.T.);
#1252 = SEAM_CURVE('',#1253,(#1257,#1264),.PCURVE_S1.);
#1253 = LINE('',#1254,#1255);
#1254 = CARTESIAN_POINT('',(-3.45,0.,-4.5));
#1255 = VECTOR('',#1256,1.);
#1256 = DIRECTION('',(0.,0.,1.));
#1257 = PCURVE('',#1160,#1258);
#1258 = DEFINITIONAL_REPRESENTATION('',(#1259),#1263);
#1259 = LINE('',#1260,#1261);
#1260 = CARTESIAN_POINT('',(-6.28318530718,0.));
#1261 = VECTOR('',#1262,1.);
#1262 = DIRECTION('',(-0.,-1.));
#1263 = ( GEOMETRIC_REPRESENTATION_CONTEXT(2) 
PARAMETRIC_REPRESENTATION_CONTEXT() REPRESENTATION_CONTEXT('2D SPACE',''
  ) );
#1264 = PCURVE('',#1160,#1265);
#1265 = DEFINITIONAL_REPRESENTATION('',(#1266),#1270);
#1266 = LINE('',#1267,#1268);
#1267 = CARTESIAN_POINT('',(-0.,0.));
#1268 = VECTOR('',#1269,1.);
#1269 = DIRECTION('',(-0.,-1.));
#1270 = ( GEOMETRIC_REPRESENTATION_CONTEXT(2) 
PARAMETRIC_REPRESENTATION_CONTEXT() REPRESENTATION_CONTEXT('2D SPACE',''
  ) );
#1271 = ORIENTED_EDGE('',*,*,#1139,.F.);
#1272 = ORIENTED_EDGE('',*,*,#1251,.F.);
#1273 = ADVANCED_FACE('',(#1274),#1199,.T.);
#1274 = FACE_BOUND('',#1275,.F.);
#1275 = EDGE_LOOP('',(#1276,#1305,#1326,#1327));
#1276 = ORIENTED_EDGE('',*,*,#1277,.F.);
#1277 = EDGE_CURVE('',#1278,#1278,#1280,.T.);
#1278 = VERTEX_POINT('',#1279);
#1279 = CARTESIAN_POINT('',(4.05,0.,-4.5));
#1280 = SURFACE_CURVE('',#1281,(#1286,#1293),.PCURVE_S1.);
#1281 = CIRCLE('',#1282,0.3);
#1282 = AXIS2_PLACEMENT_3D('',#1283,#1284,#1285);
#1283 = CARTESIAN_POINT('',(3.75,0.,-4.5));
#1284 = DIRECTION('',(0.,0.,1.));
#1285 = DIRECTION('',(1.,0.,0.));
#1286 = PCURVE('',#1199,#1287);
#1287 = DEFINITIONAL_REPRESENTATION('',(#1288),#1292);
#1288 = LINE('',#1289,#1290);
#1289 = CARTESIAN_POINT('',(-0.,0.));
#1290 = VECTOR('',#1291,1.);
#1291 = DIRECTION('',(-1.,0.));
#1292 = ( GEOMETRIC_REPRESENTATION_CONTEXT(2) 
PARAMETRIC_REPRESENTATION_CONTEXT() REPRESENTATION_CONTEXT('2D SPACE',''
  ) );
#1293 = PCURVE('',#1294,#1299);
#1294 = PLANE('',#1295);
#1295 = AXIS2_PLACEMENT_3D('',#1296,#1297,#1298);
#1296 = CARTESIAN_POINT('',(3.75,5.558742067634E-18,-4.5));
#1297 = DIRECTION('',(0.,0.,1.));
#1298 = DIRECTION('',(1.,0.,-0.));
#1299 = DEFINITIONAL_REPRESENTATION('',(#1300),#1304);
#1300 = CIRCLE('',#1301,0.3);
#1301 = AXIS2_PLACEMENT_2D('',#1302,#1303);
#1302 = CARTESIAN_POINT('',(0.,-5.558742067634E-18));
#1303 = DIRECTION('',(1.,0.));
#1304 = ( GEOMETRIC_REPRESENTATION_CONTEXT(2) 
PARAMETRIC_REPRESENTATION_CONTEXT() REPRESENTATION_CONTEXT('2D SPACE',''
  ) );
#1305 = ORIENTED_EDGE('',*,*,#1306,.T.);
#1306 = EDGE_CURVE('',#1278,#1179,#1307,.T.);
#1307 = SEAM_CURVE('',#1308,(#1312,#1319),.PCURVE_S1.);
#1308 = LINE('',#1309,#1310);
#1309 = CARTESIAN_POINT('',(4.05,0.,-4.5));
#1310 = VECTOR('',#1311,1.);
#1311 = DIRECTION('',(0.,0.,1.));
#1312 = PCURVE('',#1199,#1313);
#1313 = DEFINITIONAL_REPRESENTATION('',(#1314),#1318);
#1314 = LINE('',#1315,#1316);
#1315 = CARTESIAN_POINT('',(-6.28318530718,0.));
#1316 = VECTOR('',#1317,1.);
#1317 = DIRECTION('',(-0.,-1.));
#1318 = ( GEOMETRIC_REPRESENTATION_CONTEXT(2) 
PARAMETRIC_REPRESENTATION_CONTEXT() REPRESENTATION_CONTEXT('2D SPACE',''
  ) );
#1319 = PCURVE('',#1199,#1320);
#1320 = DEFINITIONAL_REPRESENTATION('',(#1321),#1325);
#1321 = LINE('',#1322,#1323);
#1322 = CARTESIAN_POINT('',(-0.,0.));
#1323 = VECTOR('',#1324,1.);
#1324 = DIRECTION('',(-0.,-1.));
#1325 = ( GEOMETRIC_REPRESENTATION_CONTEXT(2) 
PARAMETRIC_REPRESENTATION_CONTEXT() REPRESENTATION_CONTEXT('2D SPACE',''
  ) );
#1326 = ORIENTED_EDGE('',*,*,#1178,.F.);
#1327 = ORIENTED_EDGE('',*,*,#1306,.F.);
#1328 = ADVANCED_FACE('',(#1329),#1239,.F.);
#1329 = FACE_BOUND('',#1330,.F.);
#1330 = EDGE_LOOP('',(#1331));
#1331 = ORIENTED_EDGE('',*,*,#1222,.T.);
#1332 = ADVANCED_FACE('',(#1333),#1294,.F.);
#1333 = FACE_BOUND('',#1334,.F.);
#1334 = EDGE_LOOP('',(#1335));
#1335 = ORIENTED_EDGE('',*,*,#1277,.T.);
#1336 = ( GEOMETRIC_REPRESENTATION_CONTEXT(3) 
GLOBAL_UNCERTAINTY_ASSIGNED_CONTEXT((#1340)) 
GLOBAL_UNIT_ASSIGNED_CONTEXT((#1337,#1338,#1339)) REPRESENTATION_CONTEXT
('Context #1','3D Context with UNIT and UNCERTAINTY') );
#1337 = ( LENGTH_UNIT() NAMED_UNIT(*) SI_UNIT(.MILLI.,.METRE.) );
#1338 = ( NAMED_UNIT(*) PLANE_ANGLE_UNIT() SI_UNIT($,.RADIAN.) );
#1339 = ( NAMED_UNIT(*) SI_UNIT($,.STERADIAN.) SOLID_ANGLE_UNIT() );
#1340 = UNCERTAINTY_MEASURE_WITH_UNIT(LENGTH_MEASURE(1.E-07),#1337,
  'distance_accuracy_value','confusion accuracy');
#1341 = PRODUCT_RELATED_PRODUCT_CATEGORY('part',$,(#7));
ENDSEC;
END-ISO-10303-21;
